<svg width="100" height="45" viewBox="0 0 100 45" fill="none" xmlns="http://www.w3.org/2000/svg">
<g clip-path="url(#clip0_1_2)">
<path d="M9.038 19.43C9.66333 19.43 10.172 19.3507 10.564 19.192C10.9653 19.0333 11.278 18.828 11.502 18.576C11.726 18.324 11.88 18.0393 11.964 17.722C12.048 17.4047 12.09 17.0827 12.09 16.756C12.09 16.3827 12.0387 16.0467 11.936 15.748C11.8427 15.4493 11.6747 15.1973 11.432 14.992C11.1987 14.7867 10.886 14.628 10.494 14.516C10.102 14.404 9.60733 14.348 9.01 14.348H5.706V19.43H9.038ZM5.706 6.144V11.184H8.17C8.69267 11.184 9.164 11.1467 9.584 11.072C10.004 10.9973 10.3587 10.8667 10.648 10.68C10.9467 10.4933 11.1707 10.2367 11.32 9.91C11.4787 9.58333 11.558 9.17267 11.558 8.678C11.558 8.19267 11.4973 7.79133 11.376 7.474C11.2547 7.14733 11.068 6.886 10.816 6.69C10.564 6.494 10.242 6.354 9.85 6.27C9.46733 6.186 9.01 6.144 8.478 6.144H5.706ZM8.478 2.602C9.88733 2.602 11.0867 2.73267 12.076 2.994C13.0653 3.25533 13.8727 3.624 14.498 4.1C15.1233 4.576 15.576 5.15467 15.856 5.836C16.1453 6.51733 16.29 7.278 16.29 8.118C16.29 8.57533 16.2247 9.01867 16.094 9.448C15.9633 9.868 15.758 10.2647 15.478 10.638C15.198 11.002 14.8387 11.338 14.4 11.646C13.9613 11.954 13.434 12.22 12.818 12.444C14.162 12.7707 15.156 13.298 15.8 14.026C16.444 14.754 16.766 15.6967 16.766 16.854C16.766 17.722 16.598 18.5293 16.262 19.276C15.926 20.0227 15.4313 20.676 14.778 21.236C14.134 21.7867 13.336 22.2207 12.384 22.538C11.432 22.846 10.3447 23 9.122 23H0.974V2.602H8.478ZM26.3678 12.192C27.0118 12.192 27.5578 12.1127 28.0058 11.954C28.4631 11.786 28.8365 11.5573 29.1258 11.268C29.4151 10.9787 29.6251 10.6427 29.7558 10.26C29.8865 9.868 29.9518 9.448 29.9518 9C29.9518 8.104 29.6578 7.404 29.0698 6.9C28.4911 6.396 27.5905 6.144 26.3678 6.144H24.4638V12.192H26.3678ZM36.4198 23H32.1358C31.3425 23 30.7731 22.7013 30.4278 22.104L27.0398 16.182C26.8811 15.93 26.7038 15.748 26.5078 15.636C26.3118 15.5147 26.0318 15.454 25.6678 15.454H24.4638V23H19.7318V2.602H26.3678C27.8425 2.602 29.0978 2.756 30.1338 3.064C31.1791 3.36267 32.0285 3.78267 32.6818 4.324C33.3445 4.86533 33.8251 5.50467 34.1238 6.242C34.4225 6.97933 34.5718 7.782 34.5718 8.65C34.5718 9.31267 34.4831 9.938 34.3058 10.526C34.1285 11.114 33.8671 11.66 33.5218 12.164C33.1765 12.6587 32.7471 13.102 32.2338 13.494C31.7298 13.886 31.1465 14.208 30.4838 14.46C30.7918 14.6187 31.0811 14.8193 31.3518 15.062C31.6225 15.2953 31.8651 15.5753 32.0798 15.902L36.4198 23ZM48.9142 15.202L47.0242 9.616C46.8842 9.26133 46.7348 8.846 46.5762 8.37C46.4175 7.88467 46.2588 7.362 46.1002 6.802C45.9602 7.37133 45.8108 7.89867 45.6522 8.384C45.4935 8.86933 45.3442 9.28933 45.2042 9.644L43.3282 15.202H48.9142ZM56.4322 23H52.7642C52.3535 23 52.0222 22.9067 51.7702 22.72C51.5182 22.524 51.3268 22.2767 51.1962 21.978L49.9922 18.422H42.2362L41.0322 21.978C40.9295 22.2393 40.7428 22.4773 40.4722 22.692C40.2108 22.8973 39.8842 23 39.4922 23H35.7962L43.6922 2.602H48.5362L56.4322 23ZM75.8484 2.602V23H73.3844C73.0204 23 72.7124 22.944 72.4604 22.832C72.2177 22.7107 71.9751 22.5053 71.7324 22.216L62.1144 10.05C62.1517 10.414 62.1751 10.7687 62.1844 11.114C62.2031 11.45 62.2124 11.7673 62.2124 12.066V23H58.0404V2.602H60.5324C60.7377 2.602 60.9104 2.61133 61.0504 2.63C61.1904 2.64867 61.3164 2.686 61.4284 2.742C61.5404 2.78867 61.6477 2.85867 61.7504 2.952C61.8531 3.04533 61.9697 3.17133 62.1004 3.33L71.8024 15.58C71.7557 15.188 71.7231 14.81 71.7044 14.446C71.6857 14.0727 71.6764 13.7227 71.6764 13.396V2.602H75.8484ZM98.314 12.794C98.314 14.2687 98.0574 15.6313 97.544 16.882C97.04 18.1233 96.326 19.2013 95.402 20.116C94.478 21.0213 93.3627 21.7307 92.056 22.244C90.7587 22.748 89.3167 23 87.73 23H79.806V2.602H87.73C89.3167 2.602 90.7587 2.85867 92.056 3.372C93.3627 3.88533 94.478 4.59467 95.402 5.5C96.326 6.40533 97.04 7.48333 97.544 8.734C98.0574 9.97533 98.314 11.3287 98.314 12.794ZM93.47 12.794C93.47 11.786 93.3394 10.876 93.078 10.064C92.8167 9.252 92.4387 8.566 91.944 8.006C91.4587 7.43667 90.8614 7.00267 90.152 6.704C89.4427 6.396 88.6354 6.242 87.73 6.242H84.566V19.36H87.73C88.6354 19.36 89.4427 19.2107 90.152 18.912C90.8614 18.604 91.4587 18.17 91.944 17.61C92.4387 17.0407 92.8167 16.35 93.078 15.538C93.3394 14.726 93.47 13.8113 93.47 12.794Z" fill="#7B7B7B"/>
<path d="M66.6805 37.435V40H58.3395V26.1585H61.5505V37.435H66.6805ZM72.2055 29.9965C72.9528 29.9965 73.6337 30.1137 74.248 30.348C74.8623 30.5823 75.388 30.918 75.825 31.355C76.2683 31.792 76.6103 32.324 76.851 32.951C77.098 33.5717 77.2215 34.2715 77.2215 35.0505C77.2215 35.8358 77.098 36.5452 76.851 37.1785C76.6103 37.8055 76.2683 38.3407 75.825 38.784C75.388 39.221 74.8623 39.5598 74.248 39.8005C73.6337 40.0348 72.9528 40.152 72.2055 40.152C71.4518 40.152 70.7647 40.0348 70.144 39.8005C69.5297 39.5598 68.9977 39.221 68.548 38.784C68.1047 38.3407 67.7595 37.8055 67.5125 37.1785C67.2718 36.5452 67.1515 35.8358 67.1515 35.0505C67.1515 34.2715 67.2718 33.5717 67.5125 32.951C67.7595 32.324 68.1047 31.792 68.548 31.355C68.9977 30.918 69.5297 30.5823 70.144 30.348C70.7647 30.1137 71.4518 29.9965 72.2055 29.9965ZM72.2055 37.967C72.8832 37.967 73.3803 37.7295 73.697 37.2545C74.02 36.7732 74.1815 36.0448 74.1815 35.0695C74.1815 34.0942 74.02 33.369 73.697 32.894C73.3803 32.419 72.8832 32.1815 72.2055 32.1815C71.5088 32.1815 70.999 32.419 70.676 32.894C70.353 33.369 70.1915 34.0942 70.1915 35.0695C70.1915 36.0448 70.353 36.7732 70.676 37.2545C70.999 37.7295 71.5088 37.967 72.2055 37.967ZM82.3643 34.5565C82.8519 34.5565 83.2034 34.4362 83.4188 34.1955C83.6404 33.9485 83.7513 33.6318 83.7513 33.2455C83.7513 32.8465 83.6404 32.533 83.4188 32.305C83.2034 32.077 82.8519 31.963 82.3643 31.963C81.8766 31.963 81.5219 32.077 81.3003 32.305C81.0849 32.533 80.9773 32.8465 80.9773 33.2455C80.9773 33.4355 81.0026 33.6097 81.0533 33.768C81.1103 33.9263 81.1958 34.0657 81.3098 34.186C81.4238 34.3 81.5663 34.3918 81.7373 34.4615C81.9146 34.5248 82.1236 34.5565 82.3643 34.5565ZM84.6443 40.361C84.6443 40.1267 84.5398 39.9588 84.3308 39.8575C84.1218 39.7498 83.8494 39.6738 83.5138 39.6295C83.1781 39.5852 82.8013 39.5598 82.3833 39.5535C81.9716 39.5408 81.5599 39.5155 81.1483 39.4775C80.9646 39.6042 80.8126 39.7467 80.6923 39.905C80.5783 40.057 80.5213 40.2312 80.5213 40.4275C80.5213 40.5668 80.5498 40.6935 80.6068 40.8075C80.6701 40.9215 80.7778 41.0197 80.9298 41.102C81.0818 41.1843 81.2844 41.2477 81.5378 41.292C81.7974 41.3427 82.1236 41.368 82.5163 41.368C82.9406 41.368 83.2889 41.3427 83.5613 41.292C83.8336 41.2413 84.0489 41.1717 84.2073 41.083C84.3719 40.9943 84.4859 40.8867 84.5493 40.76C84.6126 40.6397 84.6443 40.5067 84.6443 40.361ZM87.5513 30.4525V31.526C87.5513 31.6907 87.5038 31.8205 87.4088 31.9155C87.3201 32.0105 87.1649 32.0833 86.9433 32.134L86.2308 32.2955C86.2688 32.4348 86.2973 32.5773 86.3163 32.723C86.3416 32.8687 86.3543 33.0207 86.3543 33.179C86.3543 33.673 86.2498 34.1163 86.0408 34.509C85.8381 34.9017 85.5563 35.2373 85.1953 35.516C84.8406 35.7883 84.4194 36.0005 83.9318 36.1525C83.4441 36.2982 82.9216 36.371 82.3643 36.371C82.2123 36.371 82.0634 36.3678 81.9178 36.3615C81.7721 36.3488 81.6296 36.3298 81.4903 36.3045C81.2749 36.4375 81.1673 36.5863 81.1673 36.751C81.1673 36.9157 81.2559 37.036 81.4333 37.112C81.6106 37.1817 81.8449 37.2323 82.1363 37.264C82.4276 37.2893 82.7569 37.3083 83.1243 37.321C83.4979 37.3273 83.8779 37.3495 84.2643 37.3875C84.6506 37.4192 85.0274 37.4762 85.3948 37.5585C85.7684 37.6408 86.1009 37.7738 86.3923 37.9575C86.6836 38.1412 86.9179 38.3882 87.0953 38.6985C87.2726 39.0025 87.3613 39.392 87.3613 39.867C87.3613 40.3103 87.2536 40.7442 87.0383 41.1685C86.8229 41.5928 86.5063 41.9697 86.0883 42.299C85.6703 42.6283 85.1573 42.8912 84.5493 43.0875C83.9413 43.2902 83.2446 43.3915 82.4593 43.3915C81.6866 43.3915 81.0184 43.3187 80.4548 43.173C79.8974 43.0273 79.4319 42.8342 79.0583 42.5935C78.6909 42.3592 78.4186 42.0868 78.2413 41.7765C78.0639 41.4662 77.9753 41.1432 77.9753 40.8075C77.9753 40.3705 78.1019 40.0063 78.3553 39.715C78.6086 39.4237 78.9633 39.1893 79.4193 39.012C79.1786 38.8663 78.9886 38.6795 78.8493 38.4515C78.7099 38.2235 78.6403 37.929 78.6403 37.568C78.6403 37.4223 78.6656 37.2703 78.7163 37.112C78.7669 36.9473 78.8461 36.789 78.9538 36.637C79.0678 36.4787 79.2071 36.3298 79.3718 36.1905C79.5364 36.0512 79.7328 35.9277 79.9608 35.82C79.4478 35.5477 79.0424 35.1898 78.7448 34.7465C78.4471 34.2968 78.2983 33.7743 78.2983 33.179C78.2983 32.685 78.4028 32.2417 78.6118 31.849C78.8208 31.45 79.1058 31.1143 79.4668 30.842C79.8341 30.5633 80.2648 30.3512 80.7588 30.2055C81.2528 30.0535 81.7879 29.9775 82.3643 29.9775C83.2003 29.9775 83.9413 30.1358 84.5873 30.4525H87.5513ZM93.1352 29.9965C93.8825 29.9965 94.5633 30.1137 95.1777 30.348C95.792 30.5823 96.3177 30.918 96.7547 31.355C97.198 31.792 97.54 32.324 97.7807 32.951C98.0277 33.5717 98.1512 34.2715 98.1512 35.0505C98.1512 35.8358 98.0277 36.5452 97.7807 37.1785C97.54 37.8055 97.198 38.3407 96.7547 38.784C96.3177 39.221 95.792 39.5598 95.1777 39.8005C94.5633 40.0348 93.8825 40.152 93.1352 40.152C92.3815 40.152 91.6943 40.0348 91.0737 39.8005C90.4593 39.5598 89.9273 39.221 89.4777 38.784C89.0343 38.3407 88.6892 37.8055 88.4422 37.1785C88.2015 36.5452 88.0812 35.8358 88.0812 35.0505C88.0812 34.2715 88.2015 33.5717 88.4422 32.951C88.6892 32.324 89.0343 31.792 89.4777 31.355C89.9273 30.918 90.4593 30.5823 91.0737 30.348C91.6943 30.1137 92.3815 29.9965 93.1352 29.9965ZM93.1352 37.967C93.8128 37.967 94.31 37.7295 94.6267 37.2545C94.9497 36.7732 95.1112 36.0448 95.1112 35.0695C95.1112 34.0942 94.9497 33.369 94.6267 32.894C94.31 32.419 93.8128 32.1815 93.1352 32.1815C92.4385 32.1815 91.9287 32.419 91.6057 32.894C91.2827 33.369 91.1212 34.0942 91.1212 35.0695C91.1212 36.0448 91.2827 36.7732 91.6057 37.2545C91.9287 37.7295 92.4385 37.967 93.1352 37.967Z" fill="#5A5A5A"/>
</g>
<defs>
<clipPath id="clip0_1_2">
<rect width="100" height="45" fill="white"/>
</clipPath>
</defs>
</svg>
