<?xml version="1.0" encoding="UTF-8"?>
<svg id="Layer_1" xmlns="http://www.w3.org/2000/svg" version="1.1" viewBox="0 0 600 600">
  <!-- Generator: Adobe Illustrator 29.2.1, SVG Export Plug-In . SVG Version: 2.1.0 Build 116)  -->
  <defs>
    <style>
      .st0 {
        fill: #e0a4a2;
      }

      .st1 {
        fill: #f8bb9e;
      }

      .st2 {
        fill: #f4c8a9;
      }

      .st3 {
        fill: #fde6df;
      }

      .st4 {
        fill: #fdd2b2;
      }

      .st5 {
        fill: #6a7b7e;
      }

      .st6 {
        fill: #efaca0;
      }

      .st7 {
        fill: #dea798;
      }

      .st8 {
        fill: #82274b;
      }

      .st9 {
        fill: #c64c6a;
      }

      .st10 {
        fill: #f3b5a6;
      }

      .st11 {
        fill: #f8ceaf;
      }

      .st12 {
        fill: #b8c8cb;
      }

      .st13 {
        fill: #e38a85;
      }

      .st14 {
        fill: #89999d;
      }

      .st15 {
        fill: #d87a78;
      }

      .st16 {
        fill: #f2baa7;
      }

      .st17 {
        fill: #c9646f;
      }

      .st18 {
        fill: #fcf9ec;
      }

      .st19 {
        fill: #f4d7c5;
      }

      .st20 {
        fill: #d05d70;
      }

      .st21 {
        fill: #f6ccb6;
      }

      .st22 {
        fill: #f7c0c0;
      }

      .st23 {
        fill: #fbcdba;
      }

      .st24 {
        fill: #bad0d0;
      }

      .st25 {
        fill: #bc4855;
      }

      .st26 {
        fill: #d9757f;
      }

      .st27 {
        fill: #f8b29d;
      }

      .st28 {
        fill: #d77d7e;
      }

      .st29 {
        fill: #849492;
      }

      .st30 {
        fill: #a4b6b6;
      }

      .st31 {
        fill: #fce5c6;
      }

      .st32 {
        fill: #e7a394;
      }

      .st33 {
        fill: #f7f1e8;
      }

      .st34 {
        fill: #de8f8a;
      }

      .st35 {
        fill: #cc596b;
      }

      .st36 {
        fill: #f8d1ce;
      }

      .st37 {
        fill: #9a2a39;
      }

      .st38 {
        fill: #c7556f;
      }

      .st39 {
        fill: #fde4c7;
      }

      .st40 {
        fill: #efada2;
      }

      .st41 {
        fill: #e18e8c;
      }

      .st42 {
        fill: #a5535b;
      }

      .st43 {
        fill: #c15563;
      }

      .st44 {
        fill: #fbd6b7;
      }

      .st45 {
        fill: #d7a390;
      }

      .st46 {
        fill: #fef3d9;
      }

      .st47 {
        fill: #9daab1;
      }

      .st48 {
        fill: #fbbba2;
      }

      .st49 {
        fill: #fcfbf1;
      }

      .st50 {
        fill: #e9adad;
      }

      .st51 {
        fill: #f2c5a7;
      }

      .st52 {
        fill: #cf716e;
      }

      .st53 {
        fill: #ab3f5b;
      }

      .st54 {
        fill: #df828b;
      }

      .st55 {
        fill: #7b1f41;
      }

      .st56 {
        fill: #f7c0bf;
      }

      .st57 {
        fill: #f9bb9e;
      }

      .st58 {
        fill: #b8c9ca;
      }

      .st59 {
        fill: #fbd9b9;
      }

      .st60 {
        fill: #c65a67;
      }

      .st61 {
        fill: #c34d69;
      }

      .st62 {
        fill: #98a9b0;
      }

      .st63 {
        fill: #eea895;
      }

      .st64 {
        fill: #f9bc9e;
      }

      .st65 {
        fill: #f2eae9;
      }

      .st66 {
        fill: #fbdab8;
      }

      .st67 {
        fill: #abbcbd;
      }

      .st68 {
        fill: #db928b;
      }

      .st69 {
        fill: #f1b8ab;
      }

      .st70 {
        fill: #d9eae5;
      }

      .st71 {
        fill: #ea988f;
      }

      .st72 {
        fill: #ce6b72;
      }

      .st73 {
        fill: #f1bfa2;
      }

      .st74 {
        fill: #acbdbc;
      }

      .st75 {
        fill: #d58685;
      }

      .st76 {
        fill: #ef9f97;
      }

      .st77 {
        fill: #fce3bd;
      }

      .st78 {
        fill: #fdf4db;
      }

      .st79 {
        fill: #8d2943;
      }

      .st80 {
        fill: #9cacab;
      }

      .st81 {
        fill: #af5f59;
      }

      .st82 {
        fill: #cb6872;
      }

      .st83 {
        fill: #bfd2d1;
      }

      .st84 {
        fill: #c2d8d9;
      }

      .st85 {
        fill: #ad5467;
      }

      .st86 {
        fill: #ee9f96;
      }

      .st87 {
        fill: #97a7ae;
      }

      .st88 {
        fill: #fdceb1;
      }

      .st89 {
        fill: #acbfbf;
      }

      .st90 {
        fill: #7a8a90;
      }

      .st91 {
        fill: #ebb8b4;
      }
    </style>
  </defs>
  <rect class="st22" width="600" height="600"/>
  <path class="st70" d="M231.8241425,373.6721497c.1282043-.3637695.2530823-.7314453.3820648-1.0939026.0215607-.0605469-.250824.5292969-.3820648,1.0939026Z"/>
  <path class="st70" d="M215.5532074,372.2069092c1.6983948.7205811,3.4998016,1.3668518,5.3051758,1.8952942-1.7112732-.724823-3.4733429-1.3667908-5.3051758-1.8952942Z"/>
  <path class="st70" d="M359.4620972,514.522644c-6.0513306-6.0633545-3.3607178-16.5614929-5.067749-22.3094177-.3311462-1.1151733-2.2045593-2.1541443-2.9484863-3.4182129-1.2316284-2.0930176-4.6393127-9.1842651-5.1983337-11.0369263l-.5688171-1.444519-6.1183167-1.5062561c3.3572693-.3876343,5.7985229-1.5263062,7.323822-3.4159546.075592-.4740601.9550781-1.0440979.369873-1.9135437-.883667-1.3128662-4.7577515-1.2366028-5.7635193-3.1980286-1.3577881-2.6479187-.520752-6.6195679-.9802856-9.2310181-.227417-1.2923279-1.2271423-1.473114-1.2662048-1.5743103l-1.3388062-1.6572876c-2.4486694.1593628-4.0967407-2.0819397-4.9441833-6.7239685l-1.3571167.1044617.0409241-1.8170471c-2.744873-6.7167358-5.7667542-13.3212585-9.0657349-19.813446,5.0112915-2.9826355,9.7351685-6.3280945,14.1715698-10.0364075l.5833435-1.4402771.6629944-2.2495117c-2.066803-7.3432617-3.5081482-14.8978882-3.8133545-22.5332336l-1.306366-1.9576416-.3684692-6.0678711.92099-.4987183c-.7269897-1.8695679-1.1234131-4.1373901-1.1891785-6.8036194l-1.1724243-1.3491516c-10.7246704-4.2283936-21.9288635-6.9184265-33.6126099-8.0700684-19.8738708-2.2330017-39.6826477-4.6832275-59.0655975-9.5724182-3.8893585-.6442261-8.7164917-1.2151184-12.47435-.7453003-.1667328-2.1333923-4.8263397-2.079071-5.0934143,0-2.4389343,1.884552-3.2783508,4.6749878-3.8200531,7.6401062-3.0404663,2.1365051-4.5878448,5.1970825-4.4567413,8.9134827.944931.492218,1.9573212.9647522,3.0077057,1.4104309,1.8318329.5285034,3.5939026,1.1705017,5.3051758,1.8952942,1.7142487.5018616,3.4299011.8988953,5.0573273,1.151001.0519257.1150513.1069794.2280884.1593018.342865,1.2209625.0295105,1.3028717,1.2480164.2523499,3.6483459.0009308.1724243.0159149.3345947.0634613.4719238.2792816.3433533.563385.603302.8535461.7585754.2412109.085083.5289001.1425171.8589783.1751404.5517273-.049469,1.1210785-.4029541,1.70961-1.0854797.6500702-1.9737549,1.3230286-3.9403687,2.0111694-5.8925171.1312408-.5645752.4036255-1.1544495.3820648-1.0939026-.1289978.3624268-.2538757.7301331-.3820648,1.0939026-.130722.5624084-.1214294,1.0997314.4583435.944397l.8010254,1.2886658c4.1267853.8366394,8.1542358,2.1170959,12.0823212,3.8413391-4.7705688-1.4819336-9.4894562-2.1307983-14.1566925-1.9466248-.407074.7325745-.8052673,1.3114319-1.1961517,1.7647095-.1230316.3735962-.2520905.7457886-.3731842,1.1195679-.5115356.021698-.9437408.0046997-1.3364258-.0340881-.291275.026123-.5779877-.0248718-.8589783-.1751404-.4340057-.1531372-.7277985-.3953247-.8535461-.7585754-.0582275-.0716248-.1177826-.1210938-.1755524-.2008972.0449066-.0982056.070694-.1765442.1120758-.2710571-.002594-.4876404.161026-1.1035156.5529785-1.9146118-.2743683-.5741882-.5408478-1.1533813-.8053284-1.7337646-.3750458-.0090942-.843338.0791931-1.4326477.2937927-1.2226868-.6587524-2.4925842-1.2407227-3.7839813-1.7876587-1.8053741-.5284424-3.6067657-1.1747437-5.3051758-1.8952942-.9862518-.2845154-1.986496-.5461426-3.0077057-.7737732-1.9713745-.1902161-4.4017487,3.453186-3.1833801,5.0934143-1.7597504.245636-2.0044098.6742249-.636673,1.9100342l-1.8215637.804718c-6.0270691,12.4129944-14.3616333,23.3891602-25.0036774,32.9283752-4.0263824,3.6884766-6.5448303,7.9364929-7.5552979,12.7442627.3498383,7.5215454,1.3611603,14.2615662,1.9100342,21.6470032,1.7020416,13.2973328,2.6431427,26.7000122,2.8233948,40.208252,4.4096527,29.4351196,11.553894,59.0847778,18.8277893,88.5809937,1.9989014,8.1055298,4.0604095,16.3776245,6.2660217,24.6497803h64.6590576c-.1695862-11.8457031-.0926514-23.8277588.2622986-35.963562-.1313782-2.4832764-.5179749-4.9266968-1.1571655-7.3304443,1.0519104-19.1900635,1.6747131-37.3445435-9.5501404-54.1174927l-.6748047-2.3789673c-8.1252441-7.5836182-16.4960938-15.0915527-25.9333496-20.9928894,8.4111633,4.9152832,16.701355,11.003479,23.554306,17.8884888,4.813797,4.8362122,9.10289,11.6657104,12.3598175,18.1847839,2.5140076,5.7769165,5.3543091,11.305481,8.5209961,16.5856934l.4212646,2.5404053c8.7791748,21.5375977,16.9371033,43.1384888,22.4990845,65.5839844h75.6669312c-4.7410583-28.5593872-9.9281616-57.0423584-15.3383179-85.477356l-.0000305.000061Z"/>
  <path class="st70" d="M227.2443848,380.4749451c-.2901459-.1552429-.5742645-.4152222-.8535461-.7585754.1257477.3632507.4195404.6054382.8535461.7585754Z"/>
  <path class="st70" d="M226.3273621,379.2444458c1.0505219-2.4003296.9686127-3.6188354-.2523499-3.6483459.2644806.5803833.5309601,1.1595459.8053284,1.7337646-.3919525.8110962-.5555725,1.4269409-.5529785,1.9146118v-.0000305Z"/>
  <path class="st70" d="M229.4397888,380.6842041c.1210938-.3737793.2501678-.7459717.3731842-1.1195679-.5885315.6824951-1.1578827,1.0359802-1.70961,1.0854797.3926849.0387878.8248901.0557861,1.3364258.0340881Z"/>
  <path class="st24" d="M178.7750702,483.1964111c.1171875,2.014679.3432159,4.0719299.637207,6.1532898-.2660828-2.9510498-.5125275-5.9124146-.7447815-8.8865356.0228119.9128418.054718,1.8244629.1075745,2.7332764v-.0000305Z"/>
  <path class="st24" d="M176.2549591,446.5609741c.8794708,11.8342896,1.5593262,22.975647,2.4125366,33.9021606-.2836456-11.3424683,1.4416046-22.9620056-2.4125366-33.9021606Z"/>
  <path class="st24" d="M188.0403595,526.1385498c-2.5914001-11.6246948-6.9162292-24.6689453-8.6280975-36.7888794,1.5141602,16.7928162,3.6958466,33.3659668,7.965683,51.458252,4.6751251,19.8093872,10.0145874,39.4703979,15.1296844,59.1920776h3.0037231c-6.6443787-24.4053345-11.9644775-49.1602173-17.470993-73.8614502Z"/>
  <path class="st3" d="M344.9742126,187.43367c1.5585327-1.208252,3.8645325-.6195679,5.7301025,0,2.988678-1.8987122,9.102478-1.8924713,12.0968628,0,33.3312378-.7125702,34.6274109,31.9066925,41.7044373,56.0253906,1.7955627,6.1193237,4.1438293,12.1162109,6.0571899,18.2039948.221344,3.2565613-7.4429932,3.8942566-8.9241028,6.6222839,3.4787598-1.2052002,9.1102905-4.0708923,11.1485596.6359863,4.2545471,14.4844666,6.7252502,31.3872375,12.738678,45.198822,1.3206177,3.0331726,3.3862915,5.2961731,4.6839905,8.04953,3.5154419,7.4587402,5.078949,19.392395,7.2634888,27.7537231.9532166,3.6484375,6.1191711,17.1009216,4.5975952,19.6076355-.6595154,1.0865173-3.507843,1.7476196-4.7786865,1.9021301-.5692444.718689-.9844971.9156494-1.2733459,0-3.3595886.64151-6.8241272.5762634-10.1868286,0l-1.3759155.6217957c-10.4082336-.6207886-20.7731018-1.4647217-31.0946045-2.5318298l-3.1726685-.1451721c-.5963745,1.4573975-1.9166565,1.4707336-1.9654236-.098938-2.8647766-.0794983-5.6088257-.4225769-8.2321167-1.0292358-2.6014404,1.4223633-3.9564209-.9742432-4.0649719-7.1898193l-2.1382141-20.1810303c-5.36203-15.8268738-5.9577637-32.1557922.2801819-48.0845642-1.8283691,3.8599243-5.3659058,6.2090454-10.6126099,7.0474548-1.7668152,7.6050415.5151062,14.7510071,5.1032715,21.0090637l.4618835,1.7955017c-4.0846252,17.2989807-10.2151794,36.5018311-16.8003845,53.013916-1.15625,2.899231-2.9344788,5.8386536-5.3363342,2.7763672-2.8170166-.2001343-.7590942-2.1912537,1.3977966-2.4895325.5885315-1.665741-3.5947266-5.8263245-4.8306274-6.8540039l-8.2486267-7.0767517-.4154358-2.0433044-2.0009766-.0977173c-16.2866211-18.9561462-37.5889893-19.099762-60.159729-13.9673462-10.4310303,1.4960327-21.0702515.4902954-31.380188-1.6972046-.9073792,1.5836487-1.4878082,3.3791504-1.7413177,5.3865356l-1.4925842.8256226c2.1125946.1299133.7795105,4.6796875-.2449646,4.7797546-5.1425629-1.3685303-9.0932007-1.6884155-11.8518829-.9597168-1.9460297-.2092285-3.0058746-.1515808-5.0934143,0-2.1170502,1.2487488-3.3904114,3.7954712-3.8200531,7.6401062-1.4930878,2.9580994-3.0088501,5.9342957-4.4567413,8.9134827.5455627.1794434.5369873.3921814,0,.6366882-.8386536,1.7142944-2.5782013,3.8935852-3.1833801,5.0934143-.2789459.3658447-.5779266.6877747-.9469604.8561401-1.4816742.6758728-10.177002-.9377747-12.423233-1.4927979-.533432,1.7397156-2.587204.6322632-3.1833801-.6366882,4.7216492-14.5053711,7.5206909-42.3274536,10.0012054-58.4415283,1.1754608-7.6361084,2.6810913-15.3403931,2.7323303-23.0530701l1.0024414-2.0646973c11.3298187-7.2984009,21.2481384-19.539856,22.9701233-33.0729675l1.4944916-.5162048c13.1720428-9.3919067,23.3757324-21.5007935,31.8295746-35.1337891l1.2775879-.5200958,1.6224365.8145142c6.5879211,20.4593201,32.106781,6.4028473,40.6269226-5.7939911l13.3171692-15.8579559c5.2415466-5.8405762,11.2384338-10.7656097,18.7700806-13.0026855.0946655-1.9165039,2.2684326-2.3088684,6.5213013-1.1770935v-.0001221Z"/>
  <path class="st46" d="M210.6354828,180.4302216c-.1731567-.6219025-.6556091-.5220337-.5289307-2.0098877.871048-10.2312775,9.5374298-26.4827728,13.5599213-36.2115936,7.1898651-17.3894653,2.0437317-20.0620117-1.652832-35.8693161-6.2621307-26.7782364,12.5332336-62.857048,38.2955322-72.6502151,15.2124939-5.7828102,38.3171082-13.594408,50.2844849,1.8971405,1.1774292,1.5241623,2.7176208,5.4336929,3.85672,6.3301125,3.9633789,3.1189919,13.2562561,5.6213036,17.73526,9.005146,11.5249634,8.7070007,14.6749878,33.8541794,18.8401794,47.3741837,2.8719177,9.3221741,7.2244263,17.3857956,7.3183899,27.6974792l-1.2667236,4.773056c-.5473328-9.2980881-2.0839233-19.1659851-6.6945801-27.3708496-.5968018,1.5670624,1.0435486,3.0510254,1.01651,4.813118-.0184631,1.2046814-1.324707.8376694-1.3439331,1.2764893-.0644226,1.4703445,1.2149353,4.8624573,1.3100891,6.9345856.3467407,7.5524216-1.4925537,18.1943436-.6071167,24.8008499.5509949,4.1110229,3.5420532,10.0292053,4.7175293,14.3827057,1.8063965,6.6902466,2.6785889,13.6888885,5.4033203,20.0669861-.0342712,2.3885498-1.6632385-1.0428619-1.815155-1.3715363l-3.2599792-9.1454926c-.10495,3.9905548.5037842,8.9786835,1.9035645,12.7303162-.8047791.8984985-1.3952332.7815704-2.184082.0746307,1.6448975,12.5122223-5.7444458,2.6897888-6.9071045-3.9276276l-2.7013855-13.1434326c-.7774658-4.3776093-2.3777161-7.8841248-5.2277527-11.1338654,1.6389465-7.5554352,3.9130859-16.1738586,7.6080017-22.8150024,1.2413635-9.3104706-1.3304443-19.6764526-7.3114014-27.0040817l.1701355-1.6351929c-1.6378784-1.3708115-2.4867859-2.644165-2.5466919-3.8200607-2.6588745-2.7109833-5.3999634-5.0673676-8.9109802-6.6304626.0376892-.8442154.3734436-1.616272,1.0072327-2.3161697-8.2973938-2.2477951-5.4193726-6.7710724,2.7202759-3.6002579-8.604187-5.4573975-16.3649597-12.046524-23.2823181-19.7673721-2.5926819-2.0981522-5.5458984-3.7125053-8.7000732-4.8325958l-1.034729-1.6904144c-2.230835,1.5927658-10.3630676-1.0184174-4.4567261-2.5467072,3.6223755-3.7096405,9.0562134-3.7103119,14.0744019-1.7067375l-.0675049-.8399658c-3.9882812-1.8667297-4.624939-2.9278564-1.9100342-3.1833839.7644348-1.6838837,1.7377014-1.6805992,2.5466919,0,2.2998047.1371155,4.1965027.7978439,5.690094,1.9821815-.9114075-.8445129-1.3961182-1.4562378-.5966797-2.6188583-1.3676453.243782-3.1418762.3102341-2.5445862-1.3714294-1.5109863.190567-2.5728455-.2011909-3.1855164-1.1752739-.5636902-.0033493-.8112793-.0208206-.6366882-.6366768-.3956299-.5535202.0508423-1.0360374,1.339447-1.4475517-1.4423523.8926697-6.8066406,3.008873-6.4563293.5864029,1.8425598-2.1215286,3.4974365-4.3181305,1.3769836-6.9280434.630127,6.6006203-5.4633789,12.8629875-5.9773254,2.7447929.1278076,1.6315269-.4531555,2.4640923-1.7429504,2.4976959-1.0466309.9606552-1.6716309,1.6803246-1.9100342,3.1833839,1.84552,2.2117386-2.4793091,7.0593834-4.4335632,3.9399567.6926575-2.7703209-1.4324951-10.4341774-.7203674-3.5198631l-1.2128601.85326c-.0011597,1.8635368-2.1272888,1.7845078-2.5466919,0l-.8908691-.4304352c-1.0951233-4.7391281-2.81427-7.1701393-7.6706848-8.2274971-2.0474243-.4457703-6.9277954-1.3874855-7.4294128.6695175-3.802063.6954613-7.6127014,1.3434982-11.4383545,1.8516045l.3705444.4067268c2.4207458-1.1882057,9.0764771-2.4945946,10.8234863,0,.872406-2.2863274,7.9205322,2.3462753,7.3217773,4.4567337.8437805.8947411.4880371,1.2224579-.6366882.6366768-.7083435.8679161-2.7033691-.3497963-3.1833801-1.2733536-4.9485779-2.2626457-9.9259949-1.8705902-15.2802429,0-4.6382904,3.3332443-9.6657104,6.2667351-15.0822296,8.8004761l-3.8926849,2.4081306c-2.1228638,1.0089149-2.5722046,2.2145081-1.3480377,3.6167679-13.3503265,14.0738449-17.4720612,32.4072647-12.1221619,51.228569,1.0733185-7.6872025,3.0089722-15.0616302,5.8069611-22.1232758,1.8266754.2694473,3.6475067.4522247,5.4624786.5483398,1.0328064-4.620079,1.0879211-9.2595901.1653595-13.9185333-.7923126-2.5697021,9.29776-16.1279602,10.2896423-15.2443657l.7254791,2.1107063c-2.9660645,5.7413177-5.1825104,11.4729309-5.7020264,18.1236191,2.6612396,1.1174316,3.2246857,3.9108505,1.6903534,8.380249.3084717.3513184.5666656.7130127.6488953,1.1110687.803833,3.8908691,1.2389679,7.9098206.5406799,11.5557861,1.7026215,3.4356918,2.367218,7.2779694,1.9938049,11.5268478,1.4403229,4.8149109,2.410553,10.6372604,2.9322815,15.9706345-1.0351257.3496323-1.375885,1.1806183-1.0222473,2.492981.8544922,4.798645,1.5110779,9.6898041,1.9697571,14.6734619l-1.3330688,1.243454c-1.1422424,1.385376-2.0053101.4530334-2.3791046-1.1675262.6483002-3.7758484.578949-7.4471588-.6253204-11.1164703-1.9585114,25.041275-17.9132385,41.8823547-35.8620605,57.5939941-2.1945801,3.0357971.6920166,2.1160583,3.5249176,1.022644,12.694519-4.8996887,23.5022888-13.5723877,29.685318-25.7584839,1.0406799-.8815308,1.6064911-.2649689,1.1995087,1.0728302l.8346558,2.180954c-1.040741,5.3772888-2.7788239,10.5209045-4.6547089,15.6459961l.6332245,2.1979218c-2.243515,6.8957214-5.5043945,13.4289093-9.8799591,19.2090607,6.7741241-6.8604584,10.8969879-15.5273743,12.3685608-26.0007477.1844025-.6405487.6530609-.9991608,1.3348999-1.136322l-.5450897-3.2938538c2.0152283-9.1886139,3.6849213-18.442215,5.0090942-27.7608337,2.8630066-1.028244,3.7769165,2.9427185,1.2660828,3.677597.2029724,2.1075745.4151917,4.2298279.636673,6.3667603,1.2159576.1935577,1.143631.6951752,0,1.2733459,1.1873016,4.9217834,2.0361938,9.590744,2.5467072,14.0068817,1.53862-4.9693756,2.7826385.3048553,2.7624969,4.0031891-.4342651,3.3583069-.0296936,5.5261841,1.190979,8.4926605l.5032654,12.3345337c1.7443237,2.8689575.6537476,9.3024139-1.9100342,11.4601746-3.7575531,7.5361176-8.4766388,13.8793182-15.5684967,18.9728851,2.189682-1.9073639,3.9798737-2.0835876,5.3706207-.5286865,3.9611816-2.1549683,7.0329285-5.0577393,9.2152405-8.7082977l1.6192932-.1857452c-.2537537-2.4202271,7.1755371-15.300766,8.2103271-15.4253693,1.9468994-.2344666,1.8009644.3170166,1.3398132,2.0551758.1592407.5354004.2928467,1.0728455.3366394,1.6175232.383728,4.7724152-10.5294495,21.4899902-13.916748,26.276123-6.8297272,9.650116-14.9404602,16.7315826-23.9837952,23.6771545-.5250549.8918457-.4592133,4.2051086-1.1531982,6.1739197-4.291626,12.1750793-13.0603485,23.1785583-24.313858,29.4799805-4.1000366,2.2958374-8.4295044,3.8953552-12.7335358,5.7301025-1.0680695.409729-1.2238617.3927002-.636673-.6366882,7.3745728-5.3644104,10.2722015-19.5330505,10.8482513-28.3078308.1765747-2.6896667,1.0092163-8.7371521-2.2537537-8.677887-6.0966797.1107788-13.3309937,16.6677856-13.0575867,22.3390808-.9635773-.046875-1.2858734-2.9202881-1.2900543-3.5335999-.1079559-15.8502502,11.9267273-20.6722412,13.3248901-32.5041046,2.089386-17.6812134-10.2951508-29.2132721,1.0013428-48.6592255,3.4584045-5.9533386,6.9709167-10.7230835,10.5271912-17.1682281.6353912-2.9547119.4231567-3.5913849-.636673-1.9100342h.0001068Z"/>
  <path class="st39" d="M341.1541443,98.2989655c6.4701233,6.0705109,10.2474365,20.9534607,8.2554626,29.4751053-.1054993.4513626-1.0604858.4492264-1.199646.939949-.8409119,2.9650421-6.5982056,19.6606598-6.3282776,20.709198.2278442.8850861,1.7903748,1.7461395,2.3552246,2.7752838,5.1013489,9.2942657,2.9909058,22.765686,10.6087952,31.4120483l-.9545898-8.2706299,3.8166199,2.5436096c1.1642761,3.1204834,3.9552917,6.2647858,5.0934143,9.5501404-4.2806702.091507-7.8751526.0976715-12.0968628,0-4.3236389-.4150238-9.1928406-1.5058441-14.607605-3.2724609l-.6726379-1.8209381c-2.0177002-1.5711975,1.034729-2.1811523,2.6095581-1.3251801-1.2672729-1.1710358-1.5004272-2.2148895-.6995239-3.131546-6.2084351-12.4567566-10.4291077-26.1138306-8.8844604-40.7344818l-.6656799-.0128174c-.2586975-1.0696869-.2586975-2.5552673,0-4.4567413l-.7034607-.6421204c1.0562439-3.3109436,1.9273987-6.7047424,2.6134949-10.1813812l-.1801453-1.2268143c4.6575623-5.9601822,8.6862793-13.1170425,7.820282-20.4201813-.4507141-1.2592392.1859436-2.3203659,1.9100342-3.1833801.7115173-.324707,1.3482056.0997467,1.9100342,1.2733536l-.0000305-.0000153Z"/>
  <path class="st1" d="M195.9919281,375.8898926c4.0200195.90979,8.1665802,1.4582825,12.4396515,1.6454468l.2938843.9012451c-3.2537537,6.5306396-5.352417,11.1016235-9.9228363,17.1359253-7.7697296,10.2583313-18.6120758,17.8684998-24.4576874,29.3414612-.434845-9.3485718-.7114716-11.9286804,3.473114-21.0389404,3.8553162-8.3934021,12.3369446-20.4698486,14.990509-28.6218262,1.2619476-.572998,2.5131531.532074,3.1833801.6366882h-.0000153Z"/>
  <path class="st71" d="M436.6556091,372.7065125c-21.3495178,17.1100769-41.9605408,35.4673767-64.4816895,51.0751038-8.1591492,5.6545105-17.9082947,10.5436096-25.5951843,16.4254761-1.7098389,1.3083191-11.2660828,9.9241943-11.7859192,11.1376953-1.0098877,2.3575134,2.7736511-.7025757,3.1726379-.3275452.1315918,1.5310974.734314,3.0477295,1.278656,4.4572144-.8819885-.8037415-3.5422058-.0743713-3.8595276-.2960815-.7646179-.5342407-3.0983276-6.6139221-3.7806091-7.9807129-.0202637-1.7749939,1.0010376-3.1868286,3.0639343-4.2355652,32.5494385-20.6961365,63.4630127-43.4177551,92.7406921-68.1648254-1.5622253-.2325745-2.512207-.9295044-2.849884-2.0907593,3.7674866-.6072998,8.2624512-.4772034,12.0968628,0h.0000305Z"/>
  <path class="st47" d="M346.2475586,477.7581177l-7.9701233-1.8989868c-.6600037,1.3882751,2.4403687,9.6357117,3.1416016,10.229248,1.4806824,1.2532959,8.2574463,1.164093,8.6463013,2.8199768.6340637,2.7002563-4.8753357,2.0072937-5.0954895,2.2171326-.1574402.1500854-.2043152,3.6031189.6112976,4.1731567,1.9066467,1.3843689,5.440918-3.3235168,7.026825-4.1702576.0401001,1.8291931-1.3209534,4.7886353-2.9241943,5.6622009-1.4501343.7901611-2.5708923.3816223-3.6082458.7484131-13.2012634,4.6678467-29.6964417,5.5419617-44.0826721,7.5900879l-5.4029846-.6242676,47.3353577-7.743042c1.5929871-.4256592.1745605-3.5818481.1345825-5.038269-19.4334412-4.661438-39.310791-6.6575317-59.2445374-8.2418518l-4.7788391-1.260376,38.5073242,1.2752686,21.3386536,2.5354309c.9465027-.9669189-3.0264587-7.9795532-3.162323-9.9407043-.1864624-2.6913452,1.3352966-6.3294983,1.3007812-9.4848328-.0333252-3.047699-1.2641296-6.1582031-1.316925-9.2188416l2.3742065,8.7557373-1.1029968,7.79245,8.9091187-2.5444641c-.2881775,1.8060608-1.1723938,4.591217-.6366882,6.3667603l-.0000305.0000305Z"/>
  <path class="st68" d="M211.2721558,182.3402557c-.8443604-.4428406-.4730682-1.322403-.636673-1.9100342,3.6450958-8.4916687,9.3466034-15.654129,15.1624603-22.7197876l7.1148987-11.6573792c-1.7940826,8.067337-8.3236694,13.9827271-12.7449646,20.6708832-3.3111877,5.0088806-6.0030212,10.3738098-8.8957214,15.6163177Z"/>
  <path class="st25" d="M393.3616028,369.5231323c10.5733337-.2369995,21.6356506,1.7836304,32.4704895,1.9100342,3.3524475.5740356,6.8356628.64328,10.1868286,0,.4186096-.0278625.8602905.0502014,1.2733459,0l-.6366882,1.2733459c-4.0202942-.085083-8.0785522.1177368-12.0968628,0-.5302124.3083801-1.0689392.5923157-1.6375122.7907715-.5630493.1965027-1.1030273.3804321-1.6227112.3471375-10.734436-.6882019-21.585968-1.7564697-32.1843262-3.0356445-1.9803772-.9737244,3.2861633-1.9851074,4.247406-1.2856445h.0000305Z"/>
  <path class="st3" d="M192.8085327,299.4887085c-1.2116241.5164795-2.7092133,2.1578064-4.4564514,1.9038086.600296-1.5542908,2.6709747-1.704834,3.8197784-2.5404968l.636673.6366882Z"/>
  <path class="st57" d="M379.9914246,368.2497864l13.3702087,1.2733459c-.9190674.0205994-3.685791-.547821-3.816864.6302185,11.6994324.1427612,23.2961121,2.2098694,35.0140076,2.5531616l6.9996643,1.2662964c-4.0933228,1.3563232-7.6982727,6.0038147-11.155365,8.9031982-22.543457,18.9066467-47.786438,35.3139038-71.6638184,52.4880981-5.6453552,4.0605164-12.1483459,6.9606018-17.1352234,11.8335571-3.588623-7.18927-7.2488708-14.34552-10.1016846-21.8826294,4.9719543-4.1071472,10.5273743-7.5012817,15.8317566-11.2245483.7187195-1.3312073,1.6399536-2.5009155,2.7698059-3.504303,4.3213806-1.241394,47.4329834-36.7536621,46.5426331-39.8432922l-7.3507385-.5692749c-1.2372742-1.2827454-.9718933-2.3101807.6956177-1.9238281Z"/>
  <path class="st56" d="M346.8842468,378.436615c.8718262-.2607727,2.4389038.3643494,3.2259216-.9116516,7.1879578-17.8608398,12.4330444-36.4523315,17.6767273-54.9798279.0659485-1.4505005-4.8522644-7.4563599-5.4727783-10.7908325-.3256226-1.7497253-.7590942-8.2567749-.6993408-10.0657654.1835327-5.5559692,6.0591736-3.0734863,9.1585083-6.0062256.9376526-.8872375,5.0016785-7.8345947,2.5560608-8.1939697-1.5578308-.2289124-3.5602112,2.457489-5.144989,1.2325439-.9527588-.7364197-3.5715332-7.3106079-3.9297791-8.8247986-.5522766-2.3343811-.1507263-4.0421143-.3419495-6.035675-.0506897-.5284424-2.1341553-2.2850952.6112976-2.9132385,1.1330261-.2592468,2.3140259,1.1131897,3.4143372-.3673096,1.4802551-1.9917297-.4534912-5.0143738,1.5512085-6.7418518,3.4289551,6.5798035,5.6900024,13.9669495,11.0315552,19.4089661-8.0541382,11.6026001-10.7636414,27.9857178-9.3656921,41.9497375.4534912,4.5299072,2.5422668,8.7129517,3.4464111,13.1071777,1.9354858,9.4068298,1.7314758,19.3074951,3.4495239,28.3666077.2792664,1.4725037,1.0554199.7878113,1.940155,1.5792542l-.9492493.6358032,9.2228699.6408997c1.5341492,1.3660583-10.809021,13.1322937-12.0847778,14.3307495-11.9946289,11.2677612-25.4098816,20.8020325-38.8461609,30.2332458-2.473175-8.085907-4.460144-18.1864319-4.4567261-26.7404175l-.3570862-6.6209717,8.724884-1.4025574c1.9333496-1.6234436,3.8130493-1.9200745,5.6390991-.8899231l-.0000305.0000305Z"/>
  <path class="st64" d="M333.5140381,364.429718c.9813232.9777222,1.1792297,2.6664124.5937805,5.0660706.5656433,1.5780945.5799561,2.8605652.0429077,3.8473816,1.4268799,2.4056091-.5190125,3.3633118-1.2733459.6366882-.2123108.5514832-.42453.5515137-.6366882,0-21.3534546-8.2442017-45.1668091-8.8396606-67.6211548-12.2817383-12.7672424-1.9571228-26.3606873-6.1282043-38.7038116-7.4552307-.3041382-2.0128784.8144379-1.2007141,2.0370789-1.0924072,3.1215668.2764893,6.3032074.5847778,9.3943024,1.0782776.6176605-1.1840515.4062042-2.7138367.6654663-3.8059082.4438629-.3973999.9009399-.7723389,1.4042816-1.0687256.5023346-.2958069.9809113-.5751343,1.4762115-.6274414,16.6532898-1.7587585,33.9570618-1.4866028,50.2795715,1.2509766,13.1985168,5.4057312,25.8233337,8.8904114,39.7052307,12.5794373.4805603.1277161.9214478.4139709,1.3634338.7279358.4620972.3282471.8745117.7264709,1.2727356,1.1446838Z"/>
  <path class="st87" d="M258.3862,502.588501c-8.8813782-8.352478-20.0557098-18.5588379-30.7697296-24.3027954-11.9333038-6.3976135-25.5649414-5.8315125-37.3499298-12.6324463.012146-1.2180786,2.652298-.6206665,3.4143677-.5458069,3.8057861.3737793,8.8397522,1.6890259,12.630722,2.6492615,18.46521,4.6772461,36.3384094,14.3568726,49.2126312,28.461853.8321228-.4051514.0523682-1.7389526-.1914673-2.3553772-4.34729-10.9895325-18.4269104-20.0079041-28.3516541-25.7656555-9.3285217-5.4118958-19.3061523-9.7154846-28.4394684-15.4911499l15.0707703,5.9395142c13.8699341,5.783844,26.358551,13.5370789,37.4549866,23.6659241l.307312-4.4489441,5.5992889,18.9160156c8.4866028,10.9384766,13.7540588,22.6741943,19.2391052,35.1967163.486084,2.2171021-.2321472,1.6089478-1.2733459,0-1.3153381-3.2613525-3.0291443-5.9191284-4.4567261-8.9134521l-1.7460327-.7141724c-3.122467-6.7258301-6.5727539-13.2789612-10.3508301-19.6594849Z"/>
  <path class="st36" d="M334.787384,359.9729919c3.1081543,2.7823486,12.1846008,9.756897,13.9256897,13.1313171.5235901,1.01474,1.0420532,2.5946655.7632751,3.6783142-.2087097.8112488-4.2826538.5323486-2.5921021,1.6539917-4.5370178,1.3571472-9.2401733,2.4187012-14.0101318,2.5445862.0010071,2.1169128.0040894,4.2515259.0032349,6.368866-1.453949-4.0805664-.2544861-9.072998-.6366882-13.3702087.1847839.0713501.4516296-.0708008.6366882,0,.8609924.8128967,1.8000488.3175659,1.2733459-.6366882-2.0229187-2.4988708-1.2940674-6.0116577-.6366882-8.9134827-1.8751221-.6893005.0090637-3.6625671,1.2733459-4.4567261l.0000305.0000305Z"/>
  <path class="st58" d="M276.2131653,531.8756104c3.0026245,6.8551025,6.0231323,13.782959,8.7541199,20.8513184,5.9501038,15.4002686,11.8303528,30.8192749,14.1662292,47.2730103-7.6387329-22.1605835-15.4883728-46.539917-24.1936951-68.1243896l.9580994.6189575.3152466-.6189575v.000061Z"/>
  <path class="st83" d="M363.4313049,553.5194702l-2.5014343-6.0839844-8.3430481-33.3575439-16.5227661.6040649c-.3205566-1.4871216.187561-1.0222778.8175049-1.4251709,2.379364-1.521698,6.8122864-4.0606689,9.333313-5.2892761,2.9868164-1.4556274,7.7457581-.9844971,4.4243164-6.2698059-1.4631042-2.328186-4.4463196-.5117188-4.3870239-2.9272461,4.6480408.4395142,5.8070374,1.4092102,6.300293,6.1103821.0882568.8412476-.5214233,1.7873535-.440033,2.4778442,1.7973633,15.2505798,8.4565125,30.9650574,11.3189087,46.1607361h-.0000305Z"/>
  <path class="st84" d="M232.282486,374.6165466c5.4748535-.1496887,13.2327576,4.9791565,18.1454926,4.9797974,3.6208954.0004883,7.3711853-3.285553,11.1384888-3.0632629l-9.543869,4.4436646,10.8182526-.6256714-.6324463,2.5377502c1.7018127.4275513,3.9569702-.4560242,5.4135132-.31427,3.0812073.2998657,11.4849243,1.9468079,14.6706848,2.8344116.8720703.242981,1.975769.0822449,2.1972961,1.2979126-17.9485779-2.5348816-35.953949-4.1676941-53.4807587-8.9070129-.4316559-1.3894958-.01474-2.4986877,1.2733459-3.1833801v.000061Z"/>
  <path class="st62" d="M255.1965485,504.4983215c-9.270401-5.3849487-18.630661-10.5991821-28.7898865-14.1792908l-17.6780853-5.5509338c13.3752441.8646851,29.2096252,5.0866699,40.3076782,12.8451233,2.4785919,1.7327576,5.2459412,3.8275452,6.1602936,6.8850708v.0000305Z"/>
  <path class="st12" d="M270.4830627,522.9621582c-2.2517395,2.5559082-1.1012878,7.1591187-1.2799072,10.4985962-.4058228,7.5875854-1.1011047,15.8086548-1.2667847,23.2452393-.13797-4.1294556.1788635-8.3092041.0262451-12.4414673-.199707-5.4078979-.3972473-13.1265259-1.475769-18.2611694-1.6374817-7.7957153-5.8915405-15.7419739-8.1006165-23.414856,5.2599182,4.9466858,8.9681702,13.8112793,12.0968628,20.3736572h-.0000305Z"/>
  <path class="st90" d="M283.8532715,388.6234131c1.5368347-.4248962,2.1735229-.2126465,1.9100342.6366882l-.37146.5776062c-11.4217529-1.9640198-23.0916748-2.8963013-34.6411438-4.3999023l-3.1815033,26.1027222c.1849365-8.7029419,1.2091827-17.4816589,2.5447235-26.0934143-4.4165039-1.2721558-8.9667206-2.1758423-13.3694-3.5133667-1.0336151-.3139954-3.458374-.610321-3.8221741-1.580658,6.3558044.3962097,12.6940155,3.3699036,18.8294983,4.3995361,10.516983,1.7648926,21.7291412,1.0193787,32.1014252,3.8707886Z"/>
  <path class="st77" d="M262.6711731,366.4515686c5.3018494-1.1186523,6.5089722,6.4599609,1.9182129,8.3153992-6.6502991,2.6878357-8.1958313-6.9908752-1.9182129-8.3153992Z"/>
  <path class="st67" d="M283.8532715,388.6234131c1.5924683.3559265,1.3540955-.8060303,1.591217-1.8787537,1.394165-6.3070374,3.1933289-13.3667603,2.8639832-19.7626038,10.3508606,1.6984863,21.0020752,2.2172241,31.2051392,4.7694092-.0010376,1.3835449-25.2929382-3.5918274-27.3791504-3.4994812.0632324,6.6779785-.4631042,13.9743347-2.5510864,20.3714294-.2216187-7.0085754,2.1115112-13.4064026,1.9073486-20.3772278l-1.9031067.0006104-3.8242798,21.0133057c-.8439331.3021545-1.4960632-.5228882-1.9100342-.6366882h-.0000305Z"/>
  <path class="st67" d="M260.9265137,500.041687l-1.4414673-2.053772c-2.0085449-9.0489502-6.7324982-17.8035889-8.0931549-26.9240112-.2862091-1.9184265.1215973-4.05896-.174118-6.192627-.8970947-6.4726868-5.6213379-13.6311646-4.2852631-20.8537903l2.5914307,12.3608093c3.118866,5.9021301,2.368927,11.7801514,3.2849274,17.7254028,1.230545,7.9866333,7.3872375,17.4171448,8.1176758,25.9380188l-.0000305-.0000305Z"/>
  <path class="st67" d="M332.8726501,394.9981689c.1482544,1.186676-1.2773438.4697571-1.9369812.3469849-5.2350159-.9741821-10.5236816-2.8477478-15.8718567-3.8700867-7.0973816-1.35672-14.1524658-1.8781433-21.2662964-2.9277954-.7150574-.1054993-2.9685669-.2284546-2.9376526-1.1906738,14.2187805,1.1596375,28.3684387,3.5478516,42.0127869,7.641571Z"/>
  <path class="st14" d="M244.3728638,440.8276978l-1.2604675-6.0516052c-.4126129-7.6860046.4982147-15.2233582,1.3538513-22.8266296l1.1799774-4.8591919c-.4785919,11.256012-1.7259674,22.4444275-1.2733612,33.7374268Z"/>
  <path class="st30" d="M232.282486,374.6165466c-.4243317,1.0577393-.8617401,2.1213684-1.2733459,3.1833801-.4812469,1.2416382-1.2761993,2.389801-1.2814789,3.824707-1.0176239-.639801-3.4224854-.4978943-3.7761383-1.6680298-.6173706-2.0427246,2.5125122-2.3643799-1.3091431-4.0666809-.2025146-.5549011.2219238-.7671204,1.2733459-.6366882,2.5386353-1.0641479,1.267807-1.6485596,3.1771698-3.1831055.0473938,1.2559509-2.7903137,7.3091431-2.5460663,7.6326904.0791779.1048889,2.4341888.7496033,2.5479584.6459351,1.5817871-7.2382812,5.8819885-13.4302979,8.2891083-20.3710327,1.1987-.1289673.5272827,1.2920532.3245087,1.915802-1.2341766,3.7967224-3.5788116,7.1755676-5.1238708,10.8210144-.2871704.6775513-.1394501,1.4966736-.3020477,1.9020081Z"/>
  <path class="st74" d="M289.5833435,388.6234131c.0201416.6368103-.0294189,1.2774353-.0038452,1.9114075,8.7133789-.5635376,17.0762939,1.5319519,25.4709167,3.1820068.592865.4205017.3806458.6327209-.6366882.6366882-2.6798706-.527832-5.3189087-1.43927-8.0444641-1.8240051-2.0406799-.2880859-14.2446594-1.4906311-14.8684692-1.077179-.6176758.4093933-.7651367,1.9289246-1.6921387,2.2024536-.9964905.2940369-3.3082275-1.0180969-4.6849976-.5773315-.5062256-2.5890198,3.0174561.0729065,4.456543-.6374817.7186584-1.6092224-1.3213806-1.2009583-1.2760925-1.5684204.0549622-.4458313,1.109375-1.7276917,1.2792358-2.2481384Z"/>
  <path class="st89" d="M317.5906677,418.5440063l-1.2608948-5.4146423-1.2728577-17.4992981c.8348999-.1697388,1.0132141,1.1707458,1.1062927,1.7431946,1.1008301,6.7715454,1.2764893,14.2917786,1.4274902,21.1707458h-.0000305Z"/>
  <path class="st80" d="M249.466217,473.2982483c-.9834595.0085449-.891922-2.240448-1.0544586-3.0735168-1.1141663-5.7106018-1.6709442-11.5771484-2.7525787-17.2938232.9151459-.1500244.8889923,1.1221619,1.071167,1.777832,1.5997925,5.7583313,2.2548981,12.6152954,2.7358704,18.5894775v.0000305Z"/>
  <path class="st29" d="M315.050415,393.7168274c2.9207764.5740967,5.9030151.9598389,8.7982178,1.7070007l9.0255432,2.7432556c-6.2535095-.7576294-12.3023682-2.600708-18.4604187-3.8135681l.6366882-.6366882h-.0000305Z"/>
  <path class="st43" d="M195.9919281,375.8898926c4.3772888.6831665,8.9410553.6735229,13.3702087.6366882-.2291565.4543457-.2996063,1.23349-.636673,1.9100342l-13.0519562-1.9194031.3184204-.6273193Z"/>
  <path class="st5" d="M225.9157104,375.2532043c-.3479156.1458435-.7294922.6604309-1.2733459.6366882-3.9038239-1.7388916-8.2976074-2.4251709-12.0968475-4.4567261.0838165-.1713257-.0833893-.4650879,0-.6366882l13.3702087,4.4567261h-.0000153Z"/>
  <path class="st0" d="M220.8222961,354.2428894c-1.2649994,2.5437927-2.5399628,5.1039734-3.8200531,7.6401062.1072388-2.4375-.0949097-7.8970032,2.9819183-8.1261292.4864044-.0362244.7889709.4895935.83815.4860229h-.0000153Z"/>
  <path class="st88" d="M316.9604492,135.2261963l1.0842285,1.397583c-2.5057983,20.3541565,1.291687,48.2373199,26.6896973,49.8397522l.2398682.9701385c-1.9039307-.0053101-3.8234253-.0026245-5.7268677.0064697-.1356506,1.3357544,2.0821533.2971191,2.5433655.6365662.842926.6203766-7.7078552,3.4841919-8.4961548,3.9125519-19.0982971,10.3777771-28.1297913,39.776062-51.1018982,42.4899902-10.6005249,1.2523499-14.8816528-2.227829-18.0763245-12.0283813l-.8017273-1.0783386c5.3463745-9.1576843,9.5614319-18.6821442,12.6451721-28.5733643l1.5267639-1.5454407,1.4851379,2.1364441c1.0598145,10.4726562,1.4118042,10.9564667,1.0559692,1.451416-2.3496704-13.9979553-3.1546631-20.1464691,7.5856323-30.4365997l14.2144165-11.949295c6.534729-4.9043427,10.8505859-11.6088867,14.5999756-18.4774323l.5327759,1.2479553-.0000305-.0000153Z"/>
  <path class="st38" d="M254.5661469,142.2296448l1.6152496.3496094c2.4003906,5.5441895,6.1144104,9.1826019,12.5293884,8.6326599l1.1355896,1.2045593c.6704102.2986908,1.3110046.6838074,1.749115,1.2862091,3.1740723,4.3643494,6.2191162,20.4947968,6.8283386,26.4441223.3317566,3.2399139.795105,8.6641388-.9373474,11.1069336-1.355896,10.4595947-7.0139465,18.5096436-11.8059387,27.3469543-.6665955,1.2293243-.9168701,2.7147522-1.56427,3.8501892-7.9179688,13.887146-18.6212769,28.3040009-33.1071777,35.6538849,1.8276215-3.1043549,11.6726379-10.9506989,14.9707642-14.6346893,9.6405487-10.7684479,17.9533691-23.1978149,22.5931396-36.9361115.3356934-.7478638.027832-1.3320007-.7488708-1.7968292l2.0696411-8.0316162c-3.1282043,6.9649506-6.9595032,13.6407623-11.1002502,20.0723419l-2.3173828,1.2162781c-1.6472168-2.1611023.1372681-5.8058777,1.9100342-7.6401215.8545532-3.9775848,1.4592896-7.359375,1.9100342-11.4601746-.5557556-11.9663544-1.8291016-23.8509827-3.8200684-35.6538849-2.604599.8204956-3.3974457-.9678497-3.1833801-3.1833801-.0133972-.4237061.0142365-.8497162,0-1.2733459-.1806335-2.1634521-.3928528-4.2857056-.636673-6.3667603-.1251221-.8762207.5972137-3.1757812-.6302338-3.180191-.579071,10.2888031-2.7571411,20.5442657-5.0998688,30.5572815l-1.1284485.3081512c.129837,1.3253021-2.3778229,9.0900269-3.4270935,6.2496796-.0857391-.2320709-.0157166-.5216827.0988159-.8277435,1.7184448-5.5705719,2.5359497-12.1437378,3.8200531-17.8269348-1.0163879-1.2458038-.5919495-2.9436188,1.2733459-5.0934143l-.6531525-1.0366211c1.1724854-4.0848999,2.2391052-8.1960907,3.1998596-12.3335876-.9480591-2.2151489-.7358398-3.2762756.636673-3.1833801.1450958-2.2889404.093277-5.0032043-.0082703-7.3138885-.1424103-3.2405396-1.2519073-4.948288-.6284027-8.6030273-.3585358-2.1730728.1603394-4.1804504,1.8340759-1.6153259.0219574,4.7136688,1.2823181,9.5285492,2.6226501,13.7121735h.000061Z"/>
  <path class="st76" d="M334.787384,359.9729919c.5383301,1.7651062-.9890442,3.2017822-1.2733459,4.4567261-6.7711182-1.4766235-13.6035156-2.8326721-20.2251587-4.9235535-8.7710876-2.7695923-16.9188843-7.6601562-26.0108643-9.0063477-5.4933472-.8133545-12.7411804-1.1747742-18.3563232-1.3806458-10.2550354-.3760071-20.8118591-.2871094-30.9091492,1.3036804.3031616-1.2770386,1.604538-7.54953,2.3121185-7.6914368,7.3955536,1.4945068,15.2727661,2.8027649,22.8629303,2.624115,21.5730286-.5077515,35.519928-9.5782776,56.7471619,2.4113159,6.2210999,3.5137939,9.8139954,7.6956787,14.8526001,12.2061462h.0000305Z"/>
  <path class="st9" d="M337.3340759,100.2089996c1.6168823,3.8614807,1.1821594,3.9875259-.1504211,7.8091736-1.7163696,4.9223709-4.5247803,9.6223526-7.4897156,13.8378296.0057678.539299-.0856323.7795715-.6366882.636673-7.7610779,13.4944458-10.098999,27.3465424-7.6401062,42.6573181,1.1650696.382431,1.5895081,1.8680115,1.2733459,4.4567413l1.5245972.3352203c2.1834412,4.6653595,5.6333008,9.1667175,10.6481018,10.9323883l.5608215,1.4659119c4.7268677,2.7984161,10.2546082,3.6336365,15.6013489,4.4634705l-.321106.6299438c-1.9030457-.0440216-3.8256226.0053101-5.7301025,0-1.7928772-1.1560974-4.1741333-.5044861-6.3939514-.9276733-21.5209351-4.102829-24.3237915-33.7643127-21.619812-51.2798004-.2993774-.1355743-.5766296-.290863-.7764587-.515152-.2387085-.2679443,1.4709167-5.1011353,2.0498047-5.8516235-1.7037659-.8731079-.1890259-6.7714462.7928772-7.562027l6.847229.5585861.4490967-1.6363373c5.7450256-4.2030182,12.8574219-16.3949356,6.5224609-22.373436l.0318909-1.4572906c-5.9449158.9388123-10.3135376-.5862503-13.1058655-4.5751877-4.6470642-8.5436935,3.7193298-3.0175934,6.9489441-.1959l6.7685242,2.7795258c2.2468262,1.161377,5.66922,3.2364273,3.8451233,5.8116226l.000061.0000229Z"/>
  <path class="st50" d="M358.3444214,293.7586365c.1051941,1.5108948-.1070251,2.5720215-.6366882,3.1833801-.7853394,6.2135925-.3017578,12.9812012-1.4459534,19.8826904-1.6546326,9.9804382-4.82547,20.3672485-6.5014954,30.425293l-1.5962219,4.4429932c1.7848206-14.0374146,5.9219055-28.4292603,7.5595093-42.4099426.6676025-5.6994629,1.3125916-11.8923645-.2323608-17.4463196-.8608093-3.0946045-2.8029175-5.7720947-3.691864-9.0416565-3.6463318-13.4112244,1.3872681-28.9220276,2.094635-42.5142212,1.1112366-.1486359.5982971,1.4442749.630249,2.2187805.3844604,9.3130341-.4689636,18.743866-.0261536,28.0465393.4024658,8.4543457,2.0100098,15.1269836,3.846283,23.2124634h.000061Z"/>
  <path class="st82" d="M358.3444214,293.7586365c.7103577,3.1277466,3.1622925,9.9134216,3.188324,12.4020386.0516663,4.9428406-3.3036804,12.7349854-3.1954956,18.154541-1.0895996.1615601-.6792297-1.5123901-.6237793-2.2133484.6628113-8.3786926,3.1862183-17.101593-.0057373-25.1598206.1246643-.9862671-.4580078-2.6348572.6366882-3.1833801v-.0000305Z"/>
  <path class="st91" d="M237.3695374,349.149292c-1.6505585-.9068909-1.9829407-3.8635254-2.3512726-5.600647-1.2693787-5.9865723-1.6073761-12.4858398-2.0925751-18.5897522l4.3718414,18.22052.0720062,5.9698792Z"/>
  <path class="st22" d="M436.0189514,371.4331665c-2.7140503,1.0753784-7.6054993,1.0600586-10.1868286,0,3.2819519.038269,6.9581909.2149353,10.1868286,0Z"/>
  <path class="st65" d="M287.6733398,92.2378082c-3.2597961,0-9.7793579,4.3463745-5.4329834,5.4329758,4.3463745,2.1731873,14.1257324,3.2597809,10.8659363-5.4329758h-5.4329834.0000305Z"/>
  <path class="st4" d="M332.8773499,96.3889389c-1.5722046-.414505-3.2098389-.2451859-4.7916565-.0558395-5.0887146,2.4448395-7.8841858,3.3118439-9.0575256-3.2640915-.6853638-5.0627747-2.0112915-9.6861725-3.9777832-13.8703308,3.6055908-2.3070221-.1496277-8.9041824-1.972168-11.8838272-3.3372498-5.4559174-6.8334656-7.7992859-12.4815063-10.4156265l-.1898804-1.2575684c-2.1130981-.6636696-4.0477295-1.524971-6.3637085-1.2797203l1.9069824-1.2669868c-1.0463257-.4425583-2.3708801-.759304-3.9736023-.9503059-1.2932434-1.1781845-2.3032532-1.4980469-3.0298462-.9597244-.227417-.5374603-.4396973-.5415077-.6366882,0-.3322144-1.3207054-.8813477-1.5902328-1.9100342-.6366768.5202026-2.8641815.0957642-4.561985-1.2733459-5.0934105-.840332-.3242416-1.0525818.1002121-.6366882,1.2733536-.7006226.7592354-.7006226,1.8203621,0,3.1833839-1.4291382-1.1218109-5.6001587-.03442-5.7301025,1.9100304-2.533844-.160099-4.0194092.2643547-4.4567261,1.2733536-10.6656494-2.5506172-19.5977631,1.8411217-23.6309052,12.1231804-1.1334229,2.8894501-2.4287872,6.9870605-1.1994781,9.523819-1.7846832-.1431198-2.0696564,8.699852-1.7374573,9.1105118.3898926.4820862,9.1341858,2.8119888,10.0142517,1.7129898,1.2701111,3.8638306,3.2607117,7.2664032,5.9718323,10.2077789,1.1369934,1.6715393,3.1140137,5.1729965-.2417297,4.4357758-.7900085-1.5427475-2.1456604-2.2977371-3.589386-1.0837402-2.1594543.0277863-6.3373871.3880386-7.2341003,2.3570938-.5478668.2432632-.5559692.4559555,0,.636673-.7902069,1.4090424-1.849884,1.531601-3.1790009.3677444l-.6410522,1.5422821v.636673c-1.6522369.5808334-.8483734,4.5031586,0,5.7300873.3657532,3.8155518,4.2083588,28.9007339,5.335083,29.933403.2910156.2667389,5.2374215,20.3960511,37.6606598,5.4641571,13.4292297-5.237793,21.0952148-11.1163025,26.9657593-24.1088791,2.1665039-.1537323,4.5252991-.0965652,7.0763245.1715012,6.7024231-2.5631561,16.0405884-20.745575,7.0034485-25.4670563l.0000305-.0000076ZM282.2403564,97.6707764c-4.3463745-1.0865936,2.1731873-5.4329758,5.4329834-5.4329758h5.4329834c3.2597961,8.6927567-6.5195618,7.606163-10.8659363,5.4329758h-.0000305Z"/>
  <path class="st31" d="M259.0228882,44.181469c.8812866,1.6150093-1.0180664,2.1260109-2.3309631,2.4220695l-.2157288.7613144c-.2145996,1.6891174-1.7357635,3.0891876-4.5634918,4.2002106,1.4189148,2.1366234.1141663,3.984581-3.9142456,5.5438614l.4334717.7616234c-4.3829193,5.0131912-8.8310242,10.5367012-11.3352509,16.7583351-.0196991.0489349.3871613-.1954422.9158936-.5236206,2.499527,3.1329269,2.2315826,7.714859,1.628006,11.493866-.464859,2.9105835-.6033783,4.5860825-3.5334778,3.1484146l-1.2860107,8.2732468c-1.1025696.1537323-.6048431-1.4498901-.6300964-2.2154083-.0680389-2.062851.8171539-5.6017227-1.2641602-6.6917419-2.4813232,9.377327-5.3903351,18.9020767-5.7441254,28.6487732-2.0564117-.8530884-.9646759-3.5237808-1.4116669-5.2669067-4.8021545-18.7270966-3.8986359-33.3702621,8.1565399-49.4336815.7963104-1.0610847,3.1327057-2.838562,3.4428406-3.563858,1.1245575-2.6300201-3.9428711,1.4000816-4.1360321,2.2339478-.4720001.1010628-.4344482-.6648865-.3100128-.9434052.1998291-.4472389,4.3601837-4.5302544,5.08078-5.1092987,4.2073975-3.3809471,15.7706757-9.0207367,21.0177307-11.1344223.5183411.1822891.5100708.3949928,0,.6366806Z"/>
  <path class="st66" d="M250.7460938,146.0496979c-.0969086,1.5286865-.5421143,2.384491-.636673,3.1833801-.7095032,4.4550629-2.034729,8.7408447-3.9756927,12.8573608l1.4289856.5128326c-.3903809,1.9231567-.8970795,3.4281311-1.2733459,5.0934143-.4488373-1.357132-1.5691681.764389-1.7491302,1.1168823-6.7197418,13.1621857-20.4819794,23.036499-35.0137787,26.1074829-.6368713.1345825-2.8244019.712677-2.7064514-.4759521,2.4342194.1078033,2.5311432-1.7236023,3.7845154-2.8847504,12.5392761-11.6165314,26.7510071-24.4544373,32.0332336-41.2038269,2.0646362-6.5467682,3.7066498-14.02771,4.2945251-20.8603668,1.0440521.8272247,2.2235565,4.2477264,2.4848175,5.467453.304306,1.4207611.654892,4.187851.7509308,5.6760712.1244202,1.927887-1.7228546,4.451004.5780792,5.4100189h-.0000153Z"/>
  <path class="st6" d="M300.4068604,55.6416473c12.591095,3.954258,15.3421021,11.6156616,24.5259399,19.08638,4.9694519,4.04245,11.6712341,7.2502899,16.8724976,11.1419754,1.7322693,2.3299179-2.5767517-.6347504-3.0184937-.8022614-3.9317322-1.4909286-8.1031799-2.7572784-12.2760315-3.31604.1672974.9416962,1.1517029,1.2546692,1.9153137,1.5799408,4.9412537,2.104744,11.4504395,2.8904877,15.9083862,6.3751984-2.5176086.1343918-5.0290527-1.4856796-7.4947205-2.0554581-1.8101807-.4183044-4.000946-.6070099-5.8692017-.8091888-.3460693,1.687767.4171143,1.0958176,1.250824,1.5799103,2.7410889,1.5915985,5.3522949,2.4151611,6.3860474,6.0568008l-.5577698.6401062c-4.4631348-2.7634354-9.1581421-5.4810028-14.0849915-8.1527023l-.5986633-1.5371094c-2.7703857-1.8170013-5.3300171-3.8938446-7.678894-6.2305374-.1807251.5559464-.3934021.5478516-.6366882,0-.1748962-1.0078049.4512024-2.1991882.2814026-3.2480316-.6998901-4.3235397-4.7658386-11.1359329-8.240448-13.941658-1.9512939-1.5756607-5.6170044-2.8428116-7.2843323-4.1756668-1.3844604-1.1067123-.4685364-1.6952057.5997925-2.1916733l.0000305.0000153Z"/>
  <path class="st16" d="M271.119751,46.0914993c3.1324158-.7474899,6.5114441,3.0633049,7.6401062,5.7300873-1.5606079.4196892-2.5150146.9718208-4.4567261,1.2733536-2.0704651-.3752861-14.3600159-1.7462311-15.0037842-.6733932.4365845.4977417.3767395,1.0748405-.1344299,1.6153221-6.6353455,3.8137054-10.1098938,10.1756325-10.4236145,19.0857735l-1.1785889.9826202c.8928833,1.6094513.6218109,7.1889648.277771,9.3662033-.2940369,1.8608551-.7432861,3.7088013-2.8244781,4.0040054-.0354614-1.2525253-.3367004-10.632431-1.7971954-5.9354935-1.6815033,5.4077454-.4939117,14.3905563-1.3850098,20.2685089l-.6313934,2.2173615c.0046082-11.3583603-.3677368-24.0172577,2.85495-35.0176239,1.0558929-3.6042175,3.0979309-6.0705719,4.1357727-9.5462761-4.5375671,3.9440193-7.6242371,9.2787209-10.1805725,14.6433144-1.8536377,3.8899536-3.572998,7.8182449-4.4638367,12.0930252-1.2481079.1017914-.5047455-1.937439-.3443146-2.5748291,2.4063721-9.5605774,7.9255829-18.3979034,14.3562164-25.7564926-3.7385406-.9284592,3.3531647-3.6223793,3.8173523-4.1473389.3436584-.388649.2759094-1.5334129-.8887634-1.2088852-2.1934509.6111946-4.7856293,3.1458664-7.3800354,2.8157425l13.3669891-7.9616356c2.8821106-3.2560577,8.4070435-2.458046,12.2602844-.9841156,0,0,2.3833008-.289238,2.3833008-.2892342Z"/>
  <path class="st59" d="M258.3862,210.3540192c-.5846863,2.7215271-1.117157,4.97052-1.9100342,7.6401215l.4000549.4185333c2.2398682-3.0000763,3.5988159-1.8228607,2.146637,1.4914856-1.2726746,1.9913177-2.3833618,4.0835724-4.1421967,5.7263031l-27.0486603,19.1038666c-.7700806-.8512115,4.5937042-5.0717468,5.417923-5.7174225,4.3192139-3.3835602,9.4478912-5.7160034,13.6718445-9.2517853.2001495-1.2660217-.2529449-1.1628723-1.2674713-.6286469-3.1164246,1.6410217-5.9043274,3.9778748-9.1317749,5.5129089-1.8529816.8813171-4.726181,2.2382812-6.7838593,2.1295776,8.6669159-5.4593201,17.3794098-11.3812714,23.5543213-19.7396393,1.6689758-2.2591248,2.0736237-6.114151,5.0931854-6.685318l.0000305.0000153Z"/>
  <path class="st20" d="M297.8601379,40.9980888c1.0591431-3.5045166.0924988-5.4942589-.6306763-8.9129639,3.6138,2.432869,3.8398743,6.9000969,4.1387024,10.8292542,1.5218506-.032341,2.1989136-2.5098953,2.7122498-3.6533203l.4584961-7.1733627c3.6405945,4.3684273,5.0187073,7.2376785.3249207,11.4508629l6.042511-1.9093971c.7689209.371666-1.4702759,1.8702393-1.5860596,1.9156265-5.0614929,2.8696938-10.4440918,5.4675446-16.1478577,7.7935448l-1.6791077-.1534309h-2.5466919c-.1440125.0596924-.4105225-.0228882-.6366882,0-1.8119507-.764843-.3255005-4.5755806,1.2733459-5.7300873-.0072021-1.139679-.8146667-4.9041252.3312988-5.0949287,3.5655518-.5936775,2.9041138,6.2381821,2.858429,8.2781143,1.5684509-.9240799,2.2993774-2.9637794,3.1770325-4.4565353-.3647156-2.11903.2719421-3.1801567,1.9100342-3.1833839l.000061.0000076Z"/>
  <path class="st35" d="M287.0366516,45.4548225c2.3964233-.2276764.848938,5.4861298-.6366882,5.0934105-.4313354-.6570702-.7483521-3.6049461-1.2733459-5.0934105-.3453064.0360413-.6335449.0343246-.7221375-.0995255-2.6939697-4.0706291-2.1042175-5.6049957.1322937.2446938.1490173.3897629.15802.752018-.0468445,1.1281853.0655518,1.2873611,1.2854004,2.083519,0,3.1833839-1.571106.6453972-2.6641541-.2687912-1.9100342-1.9100304-1.827179-1.0097008-3.3127747-2.2830544-4.4567261-3.8200569-1.1617126-.8166924-6.4673767-4.4567337-7.3217773-4.4567337h-10.8234863c-.4085693,0-3.2963867,1.7632332-3.4970093.0079765,9.3920593-2.7983818,29.4354553-9.3690681,30.5557556,5.7221069Z"/>
  <path class="st54" d="M246.9260406,179.7935486c-2.7219238,11.633728-4.7158966,23.750351-15.9691467,30.1898956-.9229584.5281525-2.7174683,2.0497284-3.764679,1.3286896,7.6367493-6.6752319,12.3192596-16.2002869,15.2770844-25.7884979l.7111816.4023743,2.4802094-9.3111115,1.2653503,3.1786499Z"/>
  <path class="st69" d="M260.2962341,198.8938446c-.3912354-1.9922943-1.0628662-4.0309296-1.2638855-6.058075-.2392273-2.4125824.8629761-6.3336945-1.2762146-7.9454651-1.2004395,8.6849518-2.8753815,18.421463-8.2771912,25.4634399,4.7170563-11.931839,8.9730835-24.5031281,7.6274109-37.5604248-.6382446-.1461182-.9893494.7826538-1.2668762,1.2701569-.5380249-1.4619141-1.3400269-8.9904633-.6869659-10.0060425.2984161-.4640656.8085327-.6853027,1.3236542-.8174591,3.5543213,11.9970551,5.1775513,23.3032074,3.8200684,35.6538849v-.0000153Z"/>
  <path class="st10" d="M256.4761963,217.9941406c4.5577698-6.8760681,9.3548889-15.0891266,12.643219-22.692337.9815979-2.2696533,1.9806213-4.7124634,2.0041504-7.2346191,1.0775146-.0140991,1.3851624-.3579559,1.2260132.9021759-.8561707,6.7785797-1.5839844,11.0725555-3.7764893,17.5645905.3196716-2.4438934-1.2648621-.5206451-1.5657349.0261688-2.344574,4.2610168-5.3349609,9.1985168-7.9844055,13.3440399l-.005188-2.5455627-2.2318726,1.9034271c-2.1289825.1890106-.3846436-1.0152588-.3096313-1.2678986l-.000061.0000153Z"/>
  <path class="st53" d="M249.4727478,74.7419357c-.2315063,1.3063431-1.3115692,7.8675842-1.0029755,8.2955704,3.4765015.8303528,5.9980927.8066025,9.2797699,2.5279312,1.8400574,2.3552704,2.8802185,5.6583557-1.2733459,3.8200607l-.9675903.9960556c-3.2344971-1.3425064-6.3075714-1.6745224-9.2192383-.9960556,1.2576294,2.1718826,2.3169708,4.3123245,3.1780243,6.4213333l-.6313171,1.2187881.5628052.5789337c-.7777557,2.2340698-.9653625,4.5877991-.5628052,7.0611801-.0686188,1.7607651-.1694641,4.0256882,0,5.7300873.0362854.8197632-.1759491,1.2442169-.636673,1.2733536-1.8432312-8.579155-2.9342957-15.3951263-3.1833801-24.1937027,2.4234772-4.0909882,1.8255005-8.7520828,2.5467072-13.3702011,1.7954865-1.8990479,2.4321594-1.6868286,1.9100342.636673l-.0000153-.0000076Z"/>
  <path class="st26" d="M255.2028351,140.9562836c1.4396515,1.097702,1.1613007,1.5473633-.636673,1.2733459-.0884247-.1716003-1.2001801-.4971466-1.5528259-1.2853546-1.5796814-3.5307465-2.3105469-8.8368378-2.2736816-12.7183533-1.130661-.1579285-.5088043,1.1951141-.6302338,1.9068451l-1.9100342-18.4636154.636673-1.2733536c.5547028,5.5789185,3.0109406,11.0422897,4.1604462,16.5315323.9700165,4.632103.9871216,9.4439163,2.2063141,14.0289383l.0000153.0000153Z"/>
  <path class="st60" d="M315.6871033,79.1986771c.1460266-.3961716.1963806-.5842285.6113892-.3592682,2.8890991,1.5660782,5.9772949,5.8525925,10.2073364,6.0973969l-1.9051208.6349869c-.9022217.6741714,8.6070862,4.7283249,9.2024841,5.1727524,1.1385803.8498611.3475952,1.5360718.4998779,1.7123184.3834839.4438705,3.3501282,1.2837143,4.3043823,2.022049.7331238.5672302,2.4295349,2.7291107,2.5466919,3.8200607-.4996948-.4688339-1.3284607-.8269958-1.9100342-1.2733536-1.6229858.2934341-3.3817749-.5031128-5.2763977-2.3896332-7.2662659-2.6972046-16.772522-7.1928635-18.2806396-15.4373016l.0000305-.0000076Z"/>
  <path class="st17" d="M277.4865112,44.8181458c1.6325684.6278267,3.3303528,1.6889534,5.0934143,3.1833839.6036072.6569595,1.4972839,1.0558014,1.9100342,1.9100304-1.0141296.8677444-4.3074951,1.5274544-5.7301025,1.9100304-3.9446106.3994446-6.9563293-2.9008141-10.8196716-3.1904793-.1190491-1.1887474,2.0935059-.633316,2.7096252-.4790497,2.0874939.5226746,4.0180054,2.1039085,6.1997681,2.3899231-1.4794312-2.6028023-3.2337036-3.3726425-5.7298279-4.4504852-.8757629.9185486-5.0325012.0077286-5.2261353-.7601318-.9549255-3.7866096,5.8566284-1.4915581,7.7984314-.3808784l-.0256042-.7690201c-.8437805-.8947411-.4880371-1.2224541.6366882-.6366768.9546814.4498215,2.585083.923027,3.1833801,1.2733536Z"/>
  <path class="st19" d="M309.3203125,43.5447922l.6366882.6366768-.414978,1.3778801c-1.6156921.2350044-2.1140442.8368378-1.4950562,1.8055-1.4911499,1.650074,1.1938477,1.618,1.9100342,3.1833839l-.2978821.7164497c-5.0351868-1.8185921-8.5922241-1.8060646-13.2613525.9915047-1.6700134.4037323-4.7203064.7457314-4.9043884-1.0712776,2.598175-.4278603,4.8069153-2.6852684,6.8288269-3.6763611,1.5705566-.7698441,3.99646-.3891144,4.6312256-2.0473709l-1.9068298-.6366882c2.4889832-.2950096,5.9920959-.3852005,8.2737122-1.2796974Z"/>
  <path class="st51" d="M230.3721924,228.8238678c-5.7882996,4.5817261-11.8006897,9.0580292-14.7523499,16.1199493l-3.7045135,9.97435c-.5540466-11.7120514,8.0989685-21.7897644,18.4568634-26.0943146v.0000153Z"/>
  <path class="st34" d="M309.9570007,50.548233c2.6914062.9466858,6.7945862,3.196167,8.913208,5.0871773-5.6298218-2.015152-11.1949158-5.3889084-17.4706421-4.4083405-1.7789307.2779541-3.4279175,1.6445427-5.4494629,1.8678665-3.0357361.3353653-4.5612488-.2763977-7.0034485-1.9100304.1896057-.0785828.319519-1.2978096,1.5795898-1.2855301.5211182.0050774.4370117.9313393.9671326,1.2855301,4.0081787,2.6780663,8.204895-2.4210815,11.2027283-2.558506.3751526-.0171967,6.5152588,1.6595573,7.2608948,1.921833Z"/>
  <path class="st11" d="M315.6871033,46.7281761c.5947266.47686.9638672,1.348053,1.6847534,1.7999573,4.1690369,2.6135063,9.7030029,3.8671341,12.9581299,7.7443657-1.5356445-.9736443-4.0986328.082489-5.0717773-.2977028-1.0909729-.4262276-4.9992065-3.3602524-6.5987854-4.2600937-1.0736389-.6039619-4.5940857-1.7719536-4.7626648-1.9667931-.2974548-.3438187.0389099-1.4403305-.1793213-1.6473618-.4864197-.4613838-2.6789856.4250984-3.1237183-.7356987.6514587-1.3407974,2.3492432-1.5530205,5.0934143-.6366768l-.0000305.0000038Z"/>
  <path class="st2" d="M224.0087433,223.0809326l8.8551636-4.8237c3.3920135-3.036377,6.5834961-6.2658691,8.8448792-10.2554169l5.2110748-9.7411499c-2.8780365,10.2456665-11.0970917,24.20961-22.9111328,24.8202667h.0000153Z"/>
  <path class="st7" d="M219.5486908,210.996933c-1.8497467,2.0058441-4.3343353,2.7542114-6.385849,4.7494965-6.2827301,6.1105347-6.7066345,16.333847-8.6893921,24.417038-.2536926,1.0342407-.4463959,3.5842896-1.4714661,3.931366,2.1768341-12.4147034,2.1408386-28.6531219,16.5467224-33.0978851l-.0000153-.0000153Z"/>
  <path class="st73" d="M295.9501343,44.181469c-1.2432251-5.1714668-4.7971497-8.3739281-9.5561829-10.4991417l-6.9943237-2.2277985c4.4940796-.1311703,13.6101379,2.590889,16.2800598,6.3117752,1.1077881,1.5438347.2878113,3.5170135,2.180481,3.231781-.5605774,1.8548508-1.197876,1.9721451-1.9100342,3.1833839Z"/>
  <path class="st41" d="M253.2928009,160.0565796l1.5947418,2.5436707.9438934-1.9023132c.1845245.8451843.39888,1.7121124.6447601,2.542038l-.636673,10.8235016c-.2180786.3831024.4975739,1.5028381-.6303253,1.2702789-.0846863-4.6658325-2.4183502-8.9992371-2.5126038-13.663147-.0142517-.7050934.6027679-1.4068298.5962219-1.6139984l-.0000153-.0000305Z"/>
  <path class="st72" d="M309.9570007,44.181469c3.0895081-.4511375,8.2462463-.3605042,10.186554,2.5404854-1.7597351.0288429-5.1115723-2.5853615-6.3616028-.6384926.5686951.0866547,1.4891968.3112106,1.9051208.6447105-1.0135193,1.0767136-3.554718.6990433-5.0934143.6366768-.8142395-.0330009-1.8164368.1280899-2.5466919,0-4.2211609-.7403831-.6534119-2.8090668,1.9100342-3.1833801Z"/>
  <path class="st45" d="M274.3031311,43.5447922l-.6366882.6366768c-4.3405457-.8008232-8.4889526-1.2981758-12.9415283.64151l-1.7020569-.64151v-.6366768c4.1843872-1.6856041,8.1610718-2.7871017,12.7606506-1.6128616,1.1787109.3009186,1.815918,1.2813187,2.5195618,1.6128616h.000061Z"/>
  <path class="st34" d="M289.5833435,45.4548225c.0067139,1.0608253.0019226,2.1288834-.0050659,3.1876373l-1.2632141-.6451874-.0050659,3.1876373c-.8384399.0848656-1.3804932.1699905-1.9100342-.6366768,1.0392456-.9742165.7467957-3.6099358.6366882-5.0934105h2.5466919Z"/>
  <path class="st4" d="M282.5799255,48.0015297c-2.067749-.2833557-3.5101318-2.256321-5.0934143-3.1833839l.6366882-.6366768c2.2250977,1.5642433,2.5610046,1.7567749,4.4567261,3.8200607Z"/>
  <path class="st41" d="M253.2928009,158.7832336c-1.3568115-1.5112915-.3625336-4.366333-.636673-6.3667603.0079651.0557709.5228119-.0833588.6179504.9421692.1665955,1.7958374-.0416718,3.6281738.0187378,5.4246063l-.0000153-.0000153Z"/>
  <path class="st44" d="M327.7839355,137.1362305l.5300903,1.0713043c-1.0570984,14.2000427,2.7028503,27.2701111,9.02005,39.6759796.5047607.7856293,3.6141357,4.6734772,3.1795044,5.0907745-1.494751-.0828094-2.8270264-.8683929-4.2827454-1.1292114-.9858398-.1766357-.7605591.5053558-.8067932.4951782-5.8682251-1.2914886-10.6431274-7.5100708-12.7335205-12.7335358-.3948364-7.41745-.559082-31.8254852,4.0106201-36.1740112.3147888-.2995605.6901245-.5354767,1.0827942-.7532196,1.072113.8108978.0620422,2.9170532,0,4.4567413Z"/>
  <path class="st40" d="M339.2441101,97.0256119l.630188,3.8168869-1.5664368-1.9251938-.9737854,1.291687c-2.7913513-6.6664276-5.2842102-4.9435883-10.6204834-7.5247955-2.0494385-.991333-4.9284973-3.9875336-6.2598877-4.5668564-2.5335388-1.1023941,1.2091675,4.4603653,1.911438,5.0952377,2.9755249,2.689949,7.0967712,1.3919601,10.5121765,3.1763611-3.8451843-.1968689-9.521759,5.0453568-12.7924194,2.2826385-2.4480896-2.0679169-4.3808289-15.7059631-5.0345459-19.472908h.6366882c2.5348511,4.0832291,5.5704041,7.737648,9.6079102,10.4474106,4.9220276,3.3034286,8.7462769,3.386322,13.9491272,7.3795319h.0000305Z"/>
  <path class="st18" d="M327.7839355,132.6794891c-2.0233154,7.5266876-4.0129395,13.9748383-4.4833069,21.9387665-.2872314,4.8631592.8011169,10.3403778-.6101074,14.9884644-.6817322-1.703537-.8553162-2.765686-1.2733459-4.4567413-2.1502686-15.0337982-.2924194-29.1460114,7.6401062-42.6573181.1672974-.2394714.477478-.4103317.6366882-.636673.6901245,3.4798813-1.0020142,7.4457245-1.9100342,10.8235016Z"/>
  <path class="st49" d="M337.3340759,177.8835144c-8.6716003-13.4965363-10.1909485-24.84552-9.5501404-40.7472839l1.2668762-1.9068298c-1.0646667,14.8222351,1.3336487,26.9641266,8.0459595,40.023468.3846741.7483826,1.7252197,1.9941254.2373047,2.6306458Z"/>
  <path class="st56" d="M334.1506958,373.3432007c1.6702881,2.0632629,5.4393921,4.7240295,8.2766418,4.4630737,1.3307495,1.017395-8.9138184,2.5445251-9.5527649,1.9064636l.0027771-5.7328796c1.1875916.4543457,1.3661194,1.4307556,1.2733459-.6366882v.0000305Z"/>
  <path class="st86" d="M316.9604492,135.2261963l-.7102966-.4014435c-3.0210571,16.5240173-31.8360901,28.0917664-35.7221375,41.3252258-1.8125305,6.1724091.3878174,12.575882.7703857,18.6135712.3958435,6.2471466-.4134521,12.0157623-1.2679749,18.1398468-2.2747498.5248871-.4638672-2.4428558-.5766907-4.1365051-.3866882-5.8044586-1.4970703-11.8927917-1.9672546-17.5131683-.4465027-5.3373718.1294861-9.7861176-.8244019-15.4108429-1.2586365-7.4217834-3.9799805-16.5001526-6.8157043-23.4264221.197052-1.2055817.6976929-1.1322784,1.2733459,0,9.328064,1.1412811,20.3670044-3.2409058,28.6504517-7.0034332l.9875488-1.6487274c7.4670715-2.3577728,12.7381287-7.9048767,15.7302856-14.9918365l1.7457581.0869751c-.3813477,1.9991913-.9959412,4.569809-1.2733459,6.3667603h.0000305Z"/>
  <path class="st27" d="M263.3061523,136.0318604c1.081543-.3342285,2.3705444-.3988037,3.8760986-.1819458,2.9278564-.763855,5.5136719-.7595215,7.7575073.0129395,1.0292969-.2484131,2.1664429-.2459717,3.1787109-.6447754l-2.5387573-.9436646c.9443359-1.6781616,7.5044556-3.6570435,6.9998779-5.7112427-.1245728-.5073242-7.5562356-6.1696417-8.239502-6.4246826-4.184967-1.5621109-6.0572136,2.3889838-10.2345948,1.3010717-4.0955275-1.2289395-5.2119994,4.406692-5.0826049,7.3299098.9160767.5980835,1.1282959,1.022583.6366577,1.2733765-.0749512.0558472-.1480103.1361084-.2213135.2133179,1.5568237.9417725,2.6661377,2.4707031,3.8679199,3.7756958Z"/>
  <path class="st27" d="M325.8738403,121.8560181c-2.1107178-.2966919-5.7439575-2.1308594-7.6490479-.963623-.6851196.4197998-6.6640015,11.0480957-8.9083252,13.375-7.8034058,8.0904541-33.2245483,17.2423096-44.2043457,15.5615234-2.5827026-.3953857-4.1773071-2.128418-4.892395-4.2819214-2.2147827-.7996216-3.4991455-2.5750732-4.717041-4.5858765-.1427612-.0197144-.2592773-.0350342-.2998657-.0048218-.1122437.0834961-.2029419,1.0457153-.6366577,1.2733154,3.984436,7.732666,5.6358643,10.1791382,15.2802124,10.1868286.4225464.0003662.8522949.0220947,1.2733765,0,9.3654175.9715576,20.3413086-3.1210327,28.6504517-7.003418,6.9069824-2.0444946,11.55896-5.4869995,15.5559692-11.5029907,1.1434937-1.7210693,1.2454834-3.9088745,2.9076538-5.0505981.444397-2.3297119,1.1359253-4.6242065,1.2778931-7.005188,2.6142578.7774048,3.8103027.9776611,6.3621826.00177h-.000061Z"/>
  <path class="st78" d="M250.1094208,149.233078c-.5712738,4.8261719-1.6051788,8.7318878-2.5467072,13.3702087-3.1239929,2.1546631-4.0453644,5.9978027-6.1043091,8.8575897-5.3318024,7.4056702-12.3119507,13.4591064-20.632843,17.2429199-.2760315-1.1981812.6768951-1.5087738,1.2690582-2.2263489,3.2072601-3.8865509,7.2574158-6.9161682,10.4979401-11.1486816.3844604-.5021362,1.719162-1.2192841.6480408-1.8988342-5.5386353,4.7563019-9.9359436,11.7325439-15.5940247,16.2397614-1.3973694,1.1131439-3.8800659,3.3770294-5.7348328,2.5419312,7.9740753-5.5074158,13.8937073-14.787735,21.3179169-20.7026825,1.2968292-1.0331879,2.8019409-1.1453552,4.1751099-2.1916656,1.2664642-.9650116,8.8370056-9.0258942,9.5394135-10.1975555,1.6080627-2.6824188,2.0196381-8.2947693,2.5293732-11.4725952l.6358643,1.585968v-.0000153Z"/>
  <path class="st21" d="M321.4171753,165.1499939c-4.1776733-16.8997955-2.0184937-28.8318481,7.6401062-42.6573181-.8695984,4.7185516-3.4451599,8.7786407-4.7704773,13.3748016-1.6174927,5.609375-2.8261414,13.6033936-2.9246826,19.416748-.0543518,3.2068939,1.6734619,6.4961853.0550537,9.8657684Z"/>
  <path class="st61" d="M274.3031311,53.0949402c-3.2113342.4986839-6.5424194.1279716-10.0925903,1.0492744-10.0603638,2.6107712-13.0944061,11.324131-14.737793,20.5977287-.4337921-3.2045746-.1448364,1.149559-1.9100342-.636673,1.4563599-9.3255692,1.6445618-16.944294,11.4570923-21.3316956l-5.0856018-.3073006c6.9197083-2.2963676,13.6295166-2.4267311,20.3688965.6286774l.0000305-.0000114Z"/>
  <path class="st85" d="M280.0332031,79.1986771c8.303009-3.1689148,18.9328003-5.345108,25.4638672,2.2315063-2.0626526.0780106-3.8979797-1.2589798-6.115509-1.5227585-5.6162415-.6680603-13.4838257,2.1293182-18.7117004,4.3846664-1.4080811-.4776535-1.4726257-1.7007523-.193634-3.6692963l-.4430542-1.424118h.0000305Z"/>
  <path class="st13" d="M257.7495422,85.5654373c3.332489,1.7479782,1.5707703,2.0085526,2.9084778,4.4130478,1.9164734,3.4448624,6.1043091,5.0182877,5.3440552,10.4988632-.1516418,1.093071-1.3936768,4.7317429-2.5307922,3.2263641.9227905-1.5634232.3725281-2.1948242.0083313-3.4947205v-.636673c1.9171448.1113129-1.8141479-2.60215-3.0691833-3.3043137-1.7262878-.9658203-8.8932037-3.4829865-8.390976-.5157471.7506866,1.7397537-2.3543396,2.2718048-3.1833801,1.2733536-1.356308-2.72715-2.358963-4.2878418-2.5467072-7.6401138.8368835-1.1898804,2.0553741-.5383453,3.6555023,1.9546051,2.312561-.5094528,4.5979156-.6958771,6.8560638-.5592804l-.3247375-1.3953247c3.4022827.5425262,1.0097656-1.4263763,1.2733459-3.8200607Z"/>
  <path class="st63" d="M269.8463745,114.8525543c-.2186279.2436523-2.2203979.1348419-1.90271,1.575882.1730652.7850037,4.5663757,3.137886,2.2114563,4.1479416-1.5715942.6740723-.2657776-1.2671585-.8998718-1.5995026-2.9896851-1.5670013-5.5719299,3.6075821-8.6064453-.9759521-1.5710449-2.3730469-.4009094-7.2361984,1.2422791-9.5120087,1.1450806,4.3647003,3.8791504,3.8289413,7.3170471,2.5484695-.307312,1.5576935-1.4373474,2.1265793.6382141,1.9051514.9536133.4351959,1.0432434,1.4807434,0,1.9100266l.0000305-.0000076Z"/>
  <path class="st55" d="M290.85672,96.3889389c-.7434082.0401764-2.0218201.1487885-2.5778198-.2734375-1.2188721-.9255981.2570801-3.1954346-1.5671997-2.921257-2.0218201.3038712-4.54776,3.4530258-6.6752319,3.8281174-1.2182922-1.1967545,5.5162659-5.4817276,6.5412292-5.8674622,3.4634094-1.3034134,7.1647034-.3720474,10.0030212-2.4057693-1.722168,5.5235672,3.9654846,2.3699493,7.0092163,1.9158936-1.0224304,2.0789948-4.234375,2.7080078-6.3664246,3.1772079-.3451843.4562225-4.6552429,3.8075638-5.0119934,3.6347198l-1.3547668-1.0880127h-.0000305Z"/>
  <path class="st8" d="M263.4796143,99.572319c.0777588.1460724-.0601501.4219208,0,.636673-2.3337402-1.857338-2.6622314.5662308-2.8257141.5597992-.4222717-.0166168-1.144043-.6478958-1.8735046-.5143814-2.0518799.3755264-3.9768066,1.3445435-6.1242676,1.2279434-1.0676727.3116455-1.644104-.3750687-1.7292786-2.0601425.1810608.979744-.3813171,1.4003372-1.4541016,1.4234695,1.4016418,1.2376709,1.2196503,2.621994-.636673,3.1833801-.0182343.2096786.0082397.4252777,0,.636673l-1.2799683-5.0900574-1.2698364.9497757.3142395-2.8517685c1.7422638,1.5607452,1.7028046-.4301682,2.2355652-.6480637.6592865-.2696457,2.8187256-1.2197952,3.1833801-1.2733536,1.861084-3.323082,11.267868.6990585,11.4601898,3.8200607l-.0000305-.0000076Z"/>
  <path class="st32" d="M297.2234802,93.8422318l2.5341187,1.5915298c-4.4345093,5.3801422-10.5035706,3.8132019-16.5377197,3.498558-.8136902-1.7532501,4.198761-1.6274261,5.1917114-1.5746231.7078857.0376434,1.4833069.6546249,2.1716919.9048462l.2734375-1.8736038c3.3626404-.1817398,2.6661682-2.294014,3.6518555-2.5604248.804657-.2174759,1.9512329.181778,2.7149048.0137177Z"/>
  <path class="st52" d="M334.1446533,104.0258636c-.9588318.7175369-3.1757202-2.8518677-4.8587646-3.0262299-1.2578125-.1303101-2.7153931,1.127861-4.0471191,1.1270599-.2952576.3768692,6.2609558,5.8036728,4.1401062,8.265892-1.5474854-2.2408447-5.2654724-4.9964828-4.8114624-7.9377975.3962097-2.5668564,9.0940857-5.5208282,10.1253662-1.154686.1216736.5151749-.4367981,2.6424637-.5480957,2.7257614h-.0000305Z"/>
  <path class="st75" d="M280.0332031,79.1986771l2.5487671.6399536c.8175354.7758026-2.8019714,3.324173-1.9121094,4.4534607-1.655304.7141037-3.3330078,3.186882-5.7271729,2.5482407-.6569824-4.7772675,1.1111755-6.1229095,5.0905151-7.641655Z"/>
  <path class="st15" d="M262.2062683,136.4995575c-.2019043-.3312683-.7425842-2.438385-.6340942-2.5428467,4.1321106,1.4445038,7.8691101.1329956,11.7772217-.028656,2.0783386-.085968,1.6314087.0821838,1.5903931,1.9348145-2.3679504.5715027-11.5767212,2.5347137-12.7335205.636673v.0000153Z"/>
  <path class="st33" d="M285.1266174,45.4548225c.0737915.4505386-.6411438,1.1854095-.6366882,1.2733536-2.0348206-3.4076729-3.7590942-6.3384285-7.6408997-7.9576683-1.9562988-.81604-4.5618591-.4852676-5.7291565-2.2227631,3.0432739-.1347122,8.6342163.7401199,11.0574951,2.6245461,1.9299927,1.5008278,2.1997986,4.1576843,2.9492493,6.2825317Z"/>
  <path class="st42" d="M259.0228882,130.7694702c3.3935242,1.1447601,4.960144-2.3856659,6.8340149-3.0344391,4.2156677-1.4595413,9.3694763-.7206802,13.5357666.4948578.1517639,1.14534-1.388092.5824585-2.063385.4728394-2.0323181-.329895-3.5093994-1.2925262-5.8154602-1.0896759-4.0223694.3538208-7.8450317,3.9544067-11.8542786,4.4297791-.3049316-.3334503-.6170044-.8286896-.6366882-1.2733459l.0000305-.0000153Z"/>
  <path class="st53" d="M252.6561279,102.1190262c.7717438.3508148-.1105499,1.1950455-.0009613,1.2680664.7667999.5109024,4.3072662-2.7383957,5.0896149-.6394272-1.9000549.4368439-3.537323,1.5613327-5.4934235,1.8766022-2.9610596.4772339-1.5150757-1.9133606-3.4152832-.5952148.1249542-1.4363174.276123-1.8845825.636673-3.1833801,1.4008179-.8472443,2.850296-.4615173,3.1833801,1.2733536Z"/>
  <path class="st65" d="M249.4727478,100.8456726c.448822-1.6167755-.2236023-2.9111633,2.5367889-2.5445251l.6465912,3.1812057v.636673c-.7558899-.343605-2.364502-.1153183-3.1833801-1.2733536Z"/>
  <path class="st81" d="M322.0541077,114.2096176c1.5064392-1.8379517,3.2569275-2.3996506,3.498291-5.0840073,2.7237244,2.3085403-1.5379333,4.6389618-3.498291,5.0840073Z"/>
  <path class="st37" d="M269.8463745,114.8525543c.0637817-.0710831-.6669922-1.3378143,0-1.9100266l4.4440613,2.2282867s-4.4440613-.3182526-4.4440613-.3182602Z"/>
  <path class="st46" d="M273.6664429,44.181469c2.2435913,1.1292152,5.049408,2.9094543,6.3665466,5.0871391-3.0619202-1.3927917-5.7209778-3.7112617-9.0300598-4.6514206-.8695984-.2470665-4.0774841-1.2155647-4.3352356.1929932,1.3441467.4810181,3.2130127.746315,4.4520264,1.2813225-1.4312439,2.6977463-5.1547546.3208389-7.4199524.23703-2.196991-.0812836-4.9723816.8592491-7.2236023,1.0363235l-.6304016-.3248253c-.3273926-.5916138,2.4833069-2.5306358,3.1770935-2.8585587,5.1459351-2.432148,9.6773682-2.4995041,14.6435547,0l.0000305-.0000038Z"/>
  <path class="st48" d="M256.4761963,89.385498c2.0348206.9146271,2.8072815,1.0326309,1.9073181,3.1868515-2.8486938-1.6813583-6.3907928.2027054-8.5979004.0192032-1.6983185-.1412048-1.8587646-2.7362137-3.4962463-3.2060547-.0354919-.6337128.0062866-1.2782669-.0027161-1.9107513.7427368-.6574173,8.7605438,1.2684326,10.1895447,1.9107513Z"/>
  <path class="st28" d="M299.7701721,145.4130249c1.4518127.5912781-1.0652771,1.3153076-1.3797302,1.4856873-4.936554,2.6747894-11.0224304,4.5738831-16.5632935,5.7199554-3.4362488.7107391-7.5997009,2.2156372-10.7073975-.2022095,7.0790405-.3715668,21.3173218-4.8328552,28.6504517-7.0034332h-.0000305Z"/>
  <path class="st23" d="M252.019455,95.7522583l-2.225174-.637825c2.4848633-4.914444,12.5307922.5855942,14.6495361,3.8130798,1.0315552,1.5713577-.1068115,1.4208145-.9642029.6448135-1.7542725-3.2959671-8.0680084-4.3182678-11.4601746-3.8200607l.0000153-.0000076Z"/>
  <path class="st79" d="M265.3890991,114.8593292l-1.6000671,1.8975754-.9427185.0025482c-.1646423-2.4219437.4833984-2.6408997,2.5427856-1.9001236Z"/>
  <path class="st65" d="M292.2572021,93.3562088c1.0350952.9696808-2.1391602.875412-2.3739624.7845535-.9321899-1.7118759,2.0427551-1.0948181,2.3739624-.7845535Z"/>
</svg>