<?xml version="1.0" encoding="UTF-8"?>
<svg id="Layer_1" xmlns="http://www.w3.org/2000/svg" version="1.1" viewBox="0 0 600 600">
  <!-- Generator: Adobe Illustrator 29.2.1, SVG Export Plug-In . SVG Version: 2.1.0 Build 116)  -->
  <defs>
    <style>
      .st0 {
        fill: #f4d5bc;
      }

      .st1 {
        fill: #af3e48;
      }

      .st2 {
        fill: #a24952;
      }

      .st3 {
        fill: #f5eee6;
      }

      .st4 {
        fill: #e4ac95;
      }

      .st5 {
        fill: #9e4c51;
      }

      .st6 {
        fill: #fbf6f5;
      }

      .st7 {
        fill: #821627;
      }

      .st8 {
        fill: #a12f36;
      }

      .st9 {
        fill: #9c4550;
      }

      .st10 {
        fill: #eeb59b;
      }

      .st11 {
        fill: #fcf7e7;
      }

      .st12 {
        fill: #c77c78;
      }

      .st13 {
        fill: #e5d2c6;
      }

      .st14 {
        fill: #570e1a;
      }

      .st15 {
        fill: #fdf9ea;
      }

      .st16 {
        fill: #df7a81;
      }

      .st17 {
        fill: #9a3b3f;
      }

      .st18 {
        fill: #f1b29c;
      }

      .st19 {
        fill: #f0d0c7;
      }

      .st20 {
        fill: #6f1627;
      }

      .st21 {
        fill: #f09d95;
      }

      .st22 {
        fill: #84202b;
      }

      .st23 {
        fill: #bf5c67;
      }

      .st24 {
        fill: #e18281;
      }

      .st25 {
        fill: #faedd5;
      }

      .st26 {
        fill: #b2595c;
      }

      .st27 {
        fill: #dea78e;
      }

      .st28 {
        fill: #fdf5e9;
      }

      .st29 {
        fill: #daa48c;
      }

      .st30 {
        fill: #8f1227;
      }

      .st31 {
        fill: #f1a29e;
      }

      .st32 {
        fill: #ebccb4;
      }

      .st33 {
        fill: #bd4d5a;
      }

      .st34 {
        fill: #f0cdb3;
      }

      .st35 {
        fill: #f6e5d7;
      }

      .st36 {
        fill: #e97e86;
      }

      .st37 {
        fill: #be7067;
      }

      .st38 {
        fill: #f2dbda;
      }

      .st39 {
        fill: #dd7681;
      }

      .st40 {
        fill: #fcf4e1;
      }

      .st41 {
        fill: #efb49b;
      }

      .st42 {
        fill: #e2c9b5;
      }

      .st43 {
        fill: #c35c67;
      }

      .st44 {
        fill: #dfa390;
      }

      .st45 {
        fill: #a83d48;
      }

      .st46 {
        fill: #95313e;
      }

      .st47 {
        fill: #eab5a9;
      }

      .st48 {
        fill: #e8b8a1;
      }

      .st49 {
        fill: #ebc9ae;
      }

      .st50 {
        fill: #f0a29b;
      }

      .st51 {
        fill: #f5c4c3;
      }

      .st52 {
        fill: #e0a390;
      }

      .st53 {
        fill: #6e1222;
      }

      .st54 {
        fill: #fdf4e2;
      }

      .st55 {
        fill: #c36664;
      }

      .st56 {
        fill: #f4c2c4;
      }

      .st57 {
        fill: #f6d7bb;
      }

      .st58 {
        fill: #c4907c;
      }

      .st59 {
        fill: #e0a692;
      }

      .st60 {
        fill: #c45360;
      }

      .st61 {
        fill: #f1b19c;
      }

      .st62 {
        fill: #520c18;
      }

      .st63 {
        fill: #dea690;
      }

      .st64 {
        fill: #c46f66;
      }

      .st65 {
        fill: #611723;
      }

      .st66 {
        fill: #8a363e;
      }

      .st67 {
        fill: #f5e0c1;
      }

      .st68 {
        fill: #f4c6aa;
      }

      .st69 {
        fill: #791624;
      }

      .st70 {
        fill: #fcf5e7;
      }

      .st71 {
        fill: #faedd4;
      }

      .st72 {
        fill: #faecd5;
      }

      .st73 {
        fill: #dc727d;
      }

      .st74 {
        fill: #83293e;
      }

      .st75 {
        fill: #e2b69d;
      }

      .st76 {
        fill: #e6c9be;
      }

      .st77 {
        fill: #a0856e;
      }

      .st78 {
        fill: #f1c8ac;
      }

      .st79 {
        fill: #fbefd8;
      }

      .st80 {
        fill: #f3c2a8;
      }

      .st81 {
        fill: #dfa492;
      }

      .st82 {
        fill: #f0c7ab;
      }

      .st83 {
        fill: #eb968f;
      }

      .st84 {
        fill: #8e4240;
      }

      .st85 {
        fill: #ecc6c1;
      }

      .st86 {
        fill: #e3aa93;
      }

      .st87 {
        fill: #691923;
      }

      .st88 {
        fill: #f6e7d3;
      }

      .st89 {
        fill: #c17270;
      }

      .st90 {
        fill: #faf3e8;
      }
    </style>
  </defs>
  <path class="st51" d="M173.4375,600H0V0h600v600h-165.8203125c-.8957333-1.3153705-1.765914-2.6813841-2.2315926-4.214125-6.9595734-22.9068318-13.7728127-44.5947906-25.9839951-65.4718476l-.4953497-2.3843398c-1.390332-13.8405139-3.035368-27.8546762-4.935108-42.0424868,2.5866697-42.8738064,18.0373512-85.6395762,34.1585718-125.3141295,5.1206415-13.1097522,9.4870576-26.6331817,10.9454321-40.6939882l1.4326667-2.8868954c.2434362-.8756982-.1633873-1.4596134-1.0770015-1.8161225.9976554-18.2101433-13.3937598-30.0650342-28.908603-36.310701l-1.0690829-1.7169265-1.5001017-1.5905633c-.8936963-8.8394306-2.9327249-17.4889303-6.1170858-25.9484992-.3253747-.0752933-.6394224-.1698013-.9138258-.3315607-.8997769-.5304138-6.4161806-17.3561229-6.9594314-19.6327772-1.3233331-5.5458217-1.4317676-11.545799,1.46673-16.5999089,10.7275994-12.3277195,5.138437-23.9475378-.9970784-36.6722621-1.4686428-3.9227697-2.255374-8.1102989-1.9120065-12.3272773l1.8249727-17.6832654c.4117137-13.8648146-7.9476449-28.3127789-20.9900487-33.5403343l-.816187-1.4938641-1.4911128-1.2008882c-9.2417493-17.6906749-18.1493042-34.4827569-29.9365711-50.695461-7.2579873-9.9829419-17.2794795-18.3006655-28.3379411-23.6895883l-1.6531636.7623668c-4.4942548-1.2392181-9.1893419-1.3116228-13.7589103-.4469076l-1.5801136-.9013967c-1.085287-.4564648-1.6866126-1.4297165-1.803977-2.9197552-1.3770829-3.7117248-5.9763152-9.3200426-1.6909611-2.1065247,1.1995648,1.7281408,1.783588,11.60309-1.0951701,9.8772586-1.1287356-8.2128851-7.4771602-12.4347994-15.4400498-13.0614726-.0300624-.0023659.0267059.257945.108283.5933064-.0619034.4185859-.1361834.7477706-.2537816.7640508-5.8657073.8120437.6177546-1.5167681,2.5339419.5267225.5579762.5950458.6265889,1.0591922.6950133,1.8423301,2.7829128.9255567,8.2719094,5.3584324,3.8441744,6.9352207-1.4221283-1.6394521-3.035037-3.096824-4.9038303-4.199302-1.0819488-.6382861-4.3004929-2.4077421-4.2592677-1.1815221.7138376.4859393.5185251.6812518-.5859375.5859375l-1.0895179.961488c-2.6295556-.444933-5.3196987-.3728904-7.9737551-.153891,4.5638373.9779793,11.8075278,2.6401269,13.1648355,7.3955279.7765252.8234352.4491381,1.1250342-.5859375.5859375l-1.2372455.412494c-5.4881777-4.0037183-11.8990082-5.9243361-19.2324917-5.7618534l-.4486905,1.1938054c-17.1630859,5.4745928-29.1435694,21.8081274-38.2612598,36.968054l-.1099012,2.3543222c-5.5344336,10.9837949-9.5046904,22.6519848-11.9107704,35.0045696-.9688928,4.8054448-2.7078299,9.074117-5.2168111,12.8060166,1.2019821-.4720015,1.7462278-.2131466,1.8046848,1.2241993l-.9026659,10.4303581c.9177271,17.3707248-.2532666,34.5468592-3.5129811,51.5284033l-1.8312426,3.2536934c-2.0120434,3.5837817-5.1405472,6.5141384-9.3855115,8.7910702-10.9270101,6.7052454-21.9816006,13.2010648-33.1637714,19.4874584-11.6476836,7.321018-19.3099262,16.6328029-16.0444671,30.9011589-.7639531-3.2936908-1.0672744-7.8108237,0-10.8398438.4161737-6.8346599,6.0076188-12.7916928,11.6328672-17.0753432,1.7694113-1.3474142,11.2129289-7.5665243,12.5961119-7.483537,1.2675396.076049,1.5243023.7350865,1.4189763,1.9594979-9.5051945,10.480076-13.4785161,24.4573558-11.6166487,38.4865667l-.5547442.8120344c2.0540621,1.0752207,1.8807064,1.9257457.3066135,3.5576066l-4.225205,3.7995715c.5650015.0929214.803887.6251181.604434,1.3188084-1.9137152,6.6558299-3.3688685,12.2887227-2.334869,19.3817166-.1002054-5.582864.8288116-10.7088019,2.4868766-15.9629137,2.2425788-7.1063315,7.9287777-9.0519549,3.8154622.6834238-1.2445546,9.1492574-1.2895256,18.4407387-.1349131,27.8744441.1491781,6.0266405-.5590376,12.1593968-3.2775651,17.62474,3.4811341-.5407549,9.3941098-1.7734396,8.7834627-6.3912244l1.0069533-.9096104c.6746233,2.9161327,1.3044812,5.8597047,1.4784611,8.8547258,1.6192054,27.8742327,3.2582236,55.1261452,5.8387916,82.8802101,5.137458,25.0713043,4.7401752,49.0910371.6004055,74.2718157-.4541063,5.2433511-.8693406,10.5056091-.8958335,15.7856334-.1713592,34.1518335,1.2742621,67.6927787,2.8565576,101.9793055.1418734,3.0742336-.1522222,6.1457069-.5033823,9.1970595Z"/>
  <path class="st90" d="M250.78125,238.4765625l1.1613749,1.488167c-1.2448129,6.446998-1.6753924,12.6667643-1.2917386,18.6592989,8.8673043,12.9873546,16.3951227,28.0659269,21.2264732,43.5594001,7.749936,26.2448196,17.3206001,52.0002043,28.6353647,77.1685563l5.1307018,13.268295c3.4066035,12.3082773,7.3664121,24.3576675,11.8794258,36.1481704l5.6914825-8.6226991,1.3950407-.0285636c.6936324-2.7532432,2.1176002-6.9814151,4.6875-8.203125,10.1043221-18.6138315,18.0742697-38.3152412,25.78125-58.0078125l-.2288972-1.5866611c6.191248-16.3273511,12.099846-32.7756874,16.0913561-49.8248041.9850063-3.8177137,2.5334575-7.1883711,4.6453536-10.1119723.2713195-1.4280655,1.0670292-2.963527,2.387129-4.6063847,1.1725686-14.1093753-7.1117557-27.8426582-17.0355665-37.5811153l1.1304371-.8109003c6.8770499,3.4174121,13.2814663,8.4877474,17.6874218,14.8149917l-.6537964,1.2302836c2.5567023,2.3626128,4.084384,5.711323,4.5830451,10.0461305,5.0231103,25.9260262,9.5108921,52.3421487,13.4633454,79.2483676l.117672,5.0414393c2.2102322,1.0966975,2.7374326,6.8614415,1.171875,8.7890625l1.3099197,1.5852798c.6083849,8.4360564.8059307,16.9992948-.3351604,25.4178863-1.9359575,14.2828523-6.7885415,21.8761888-15.3418667,32.3987595-.3042504,1.5249112-.9839646,2.4273944-2.0391426,2.7074494l.9606233,5.2394229c10.0998174,12.778472-7.562511,20.6909633-17.9528108,22.8855771.2936451,1.7069731-1.6687117,2.1496591-2.34375.5859375-6.7205218,1.5071708-6.7205218,1.7024833,0,.5859375l1.7418047,1.6345109c6.3771284,10.329466,12.6353654,20.726402,18.7747111,31.1908081l.5772342,2.3309309c.6216782.4031911,1.2284937.8235456,1.7832896,1.3039722.5446912.4716763,1.0716194.9458039,1.466013,1.5097674,5.9340616,8.4854147,11.6512971,17.1449408,17.2725816,25.8407262.6349341,1.3150332,1.0185931,2.7016933,1.1578032,4.1580342,13.4101435,22.5689935,22.6980106,46.4677076,28.7109375,72.0703125h-235.546875c-.4093192-.4864157-.730774-.9752917-.7447036-1.4727783-.2436338-8.7012225-.3799724-18.5572172,1.3306411-26.6522217.6400133-5.8022179,4.8227863-12.5464744,8.2471029-17.356584l1.7138346-.8074785c4.4535441-16.0301439,8.381202-32.1991178,11.7829738-48.5069216,3.639815-14.0164958,1.8452169-27.7940633-1.5033725-41.6419617l.8532112-1.8433042c-5.5739354-22.9715919-9.5400839-46.1841053-11.8984454-69.6375405l.1796954-2.432772c-1.7763532-7.7351413-1.8245575-16.8356074,0-24.609375.5677669-6.4102616,1.462146-12.8044739,2.6831373-19.1826368l.8324877-.7392382.9072527-7.7976459c9.0258419-26.0169684,18.607832-51.5010035,28.7459701-76.4521056,2.0750045-6.2338752,2.2418014-12.8823824,1.9538444-19.4654659l1.2054327-1.7535327c-.5675698-2.737727,4.8042611-3.4456189,5.859375-1.171875Z"/>
  <path class="st10" d="M244.921875,239.6484375c-.1307629,3.2128455.1718654,6.4785267.0241475,9.6921479-.5212439,11.3397204-4.1982286,16.9431595-8.0806085,27.0756097-6.4830304,16.9197719-13.3736569,33.8783649-19.3361222,50.9763778-2.0431464,5.8589429-3.9833723,11.6787563-5.4199168,17.7246145l-.7386669-.9901615c-.3626064-10.0416803-1.8383237-19.9709488-4.427152-29.7878055-.4206186-1.8654708-.4564914-3.7155235-.1076186-5.550158-.3855419-1.9385594-.7259797-.866592-1.0213133,3.2159021-8.789175,1.8282364-9.5316713,9.8584989-9.1176791,17.8391899.109919,2.1189524.2540181,4.2194393.4592319,6.3323411,4.1303181,25.3476951,7.1225524,50.8864251,5.4338246,76.70821-.8019436,12.2622575-3.4565224,19.8034473-10.8659203,29.3726628-5.296631,7.1600318-3.89958,14.7211589-1.7422467,22.8453605,4.3973185,13.4786628,8.9700913,26.8987872,13.7183185,40.2603733,6.9368523,21.700932,2.1086736,44.5838511-5.0673405,65.3400228.1293461.3741966.2255435.7465985.2057204,1.1127185-.4742352,8.7588237-.7902422,17.3781176-.9523705,26.1609698-.0162132.8783036-.1312787,1.5486921-1.0111624,2.0231867h-23.4375c-1.4146927-18.2223869-2.3174185-36.5184454-2.9356658-54.7791779-.5850036-17.2788374-.4591272-34.8332757-.6041247-52.1302503-.1506231-17.9680541,2.4080724-31.3565433,4.118651-48.664055,1.594769-16.1357586-2.3707961-32.0473037-4.0888578-48.0454257-3.1831827-29.6409285-4.9220692-59.7325283-5.8650027-89.349841l-1.2236163-1.5306515c-1.3801739-15.2665118-2.1199148-41.2010735,4.7242711-54.9038795,11.0875063-22.1983957,38.8290206-18.4481174,58.5772793-12.1654851,6.1248947,1.9805443,11.9795315,2.1812389,17.5639102.6020838l1.2175306.6151198Z"/>
  <path class="st26" d="M199.21875,571.875c.1450846,2.3500913-.5309633,4.0438147-.6101023,6.1281509-.2774346,7.3069763.2550473,14.6901412.0241648,21.9968491h-1.7578125c1.1942924-9.7878766.0301702-19.4200989,1.7578125-29.296875.959896-1.123956.8216185-.0035937.5859375,1.171875Z"/>
  <path class="st25" d="M375,110.7421875c1.2512399-1.701657,2.8832373-.9385029,4.1015625.5859375,12.3654097,3.6002824,21.9507813,18.2953732,22.8741731,30.7391143.6165143,8.3082224-1.3903927,15.1247466-1.7701482,22.8792559-.7793618,15.9143679,14.6531734,25.1066211,7.1246059,41.7001044-1.4869654,3.2773746-4.1940357,5.9557438-5.4053398,9.2431022-3.9143827,10.6232433,3.4814868,23.4545849,6.473584,33.7196733,2.1344405,6.6815806,4.2515799,13.359757,5.6579405,20.1319534,1.06625,4.642813-1.4128512,5.8260265-7.4373033,3.5496404l-1.1503247.3418437c-.8029038,1.5924045-5.4335095.7766933-5.2734375-1.171875-1.8926117-2.4981207-3.6836549-5.0699536-5.3731295-7.7154986l.6856295-.4876264c-.050111-.7635467.1452015-1.1541717.5859375-1.171875.7419928-6.1415535-1.6218398-15.8838721-6.4453125-19.921875l-1.2602566-.0654011c-1.8610584-1.7801978-5.0047779-5.4040655-6.6221708-7.4745452-.0737368-.094393.0653484-.3550359.2652399-.6631786-.5761851-1.5148238-2.9677943-3.5189801-3.515625-3.515625-8.3382903-6.2142471-15.3633218-15.0423245-21.09375-24.0234375-1.4131528-.2817161-2.5577302-3.2947192-2.34375-4.6875-2.6869887-3.2625582-3.7380665-8.0475852-4.4415105-12.6461121l-.831927-15.4788879c-.5155907-.3274045-.8811119-.7696589-1.1101124-1.331575-.8287957-2.0336804,2.7019317-16.4579181,4.5285315-16.9097289,2.6398865-.6529779,2.6852479,1.4153845,2.3363118,3.5475093-4.3935258,15.9744411,4.1799615,33.6177833,11.8233941,47.5062946l1.0419221.3739199c2.6527487,5.8383523,6.1967884,11.1234039,10.1756384,16.1307595l.5011895,1.6593831c.9632575-.2082176.9632575-.9894676,0-2.34375-1.1016753.6237916-2.0940802-.86413-1.171875-1.7578125-2.6030659-3.0559583-3.7762323-6.0662968-3.5194994-9.0310152-1.0805408-1.1481115-3.7721944-6.3037997-1.0130708-6.3808046,1.1783715-.0328874,8.0724186,13.7017316,8.8111045,15.5328966.2411031.5976823.6163225,1.1206555.9949033,1.6367357l.9177121.200513c4.595048,8.1755981,9.7824876,16.0943422,15.709044,23.3933557l-.2205061,1.6014438.8730099.0700818c2.3356666,2.5012324,3.6923285,1.9583924,4.9863651-1.2419568l-1.9683314-2.6317864c-2.9304124-9.8087778-7.0007922-19.2567187-12.121283-28.1210277l-.5588231-3.2315608c.1364451-1.1245741-.4078422-2.3937066-1.6328617-3.8073976-1.9747288-1.9681146,1.1534103-5.6801118,1.4093398-3.2119312l.2235219-.5978587c-5.0381911-11.3847592-9.3953629-22.6786875-12.7216614-34.6986355-2.5834061-14.2732689-6.5012688-27.7456806-11.753588-40.4172351-.0068953-5.5792998,5.2157004,1.3817863,5.7252494,4.2174331,1.2998046,1.7904725,1.4951171,1.59516.5859375-.5859375-3.5661966-4.5274648-7.5146515-8.705464-12.707533-11.6111451-6.2368169-2.635398-12.0871075-5.920431-17.5508716-9.8550989-6.5974765-4.3720912-6.5912221-17.7536332.5355294-5.6116376,3.3577052,4.2555252,8.2316346,6.9009833,13.2198796,8.8537146,7.9666377,2.4400592,15.507705,5.6330105,22.6232018,9.5788541.5436592-1.3155879-15.8768235-10.3577854-18.2655789-11.0910209-.5561493-.4902589-.8294931-1.0719441-.7317417-1.7735984-7.1663233-3.1943034-13.4054589-7.3442031-18.717407-12.4496991-3.0214836-4.8270062-5.575914-9.9133791-7.6632911-15.2591187-2.018826-.1327793-1.4031908-2.5336078.5859375-1.7578125l1.9349103.5290266c8.2801267,12.4072795,17.6413516,22.6859788,33.1657147,24.4849044l5.915,2.5251315Z"/>
  <path class="st71" d="M194.53125,221.484375l.5814076-1.0907669c17.7128287-7.862366,28.9466006-23.058783,36.1119526-40.6988873.653092-1.4568047,1.4700544-1.2428379,2.7825616-.7978061.8383568.2842616,7.3540523,13.0881017,8.1464723,14.8430651.2742631-4.1125889.5202276-8.2917427.7378935-12.5374613l1.4444-.147831c1.2411628-1.0915583,3.5822448,3.8823977,1.7578125,4.3945312,1.3041424.3575344,1.6173781.771614.2929688,1.0120146.1568675,2.8860616.0592112,5.6737234-.2929688,8.3629854.1767728,2.9910598.3720853,3.7723098.5859375,2.34375-.5063597-3.1700427-.4405896-7.4783344,0-10.8398438.3064159-.4487323.9371303-.8003298,1.1524876-.5024627,4.4814915,6.1984843,1.5558297,24.805542-1.3428142,31.8589546,4.1804471-7.0362613,6.1391263-14.88812,5.1595614-23.0103418.3682735-.464227.8681554-.69317,1.4760777-.7289626,3.0726755,2.4571754,3.2001067,8.6268728,3.1822387,12.6148475-.0382358,8.5338688-3.282386,18.0021628-9.6275512,23.7132775-2.0985849,2.4784407-1.9032724,2.6737532.5859375.5859375,9.4413914-11.9439972,11.5025623-26.4276745,5.9804518-40.6730487l.4648607-2.1003888c-1.7101149.1630953-1.4269025-1.7904982.0589902-2.0887366,2.7675356-.5554812,3.4767843,8.2846641,3.4566348,10.2918616.5151192-.4033323,1.1010567-.5986448,1.7578125-.5859375l1.509631.7875653c3.5293475,9.5538344,6.3392186,19.2852861,8.4296134,29.194355l-1.1501819,1.0727673,1.0685554.7390317c.6242556,1.6765457-16.0090076,12.121557-17.0262717,11.8570597-.4559154-.1185418-.7669327-.5178594-1.0344712-.8773414-2.6813087.3697616-2.6093538-1.1495249-5.859375,1.171875-7.5124796,5.3659555-29.6252016-3.8389862-38.4544664-4.6119399-48.7896409-4.2712657-43.5279104,36.7215393-42.4049086,71.9947524,1.7998506,7.1435951-7.286557,7.7844239-12.30462,9.3690879,10.6592179-16.6560526-1.6616426-36.733177,7.0254504-53.9000927-1.9176967,1.6192748-3.6514431,5.258457-4.3734532,7.6322883-3.8913905,12.7941481-.0715325,26.1480278-2.0691862,39.2394385-.7142506.9592355-1.0608473-.010163-1.1700046-.8654176-.4766241-3.734381.2455163-8.4359937.0253324-12.339292-.6273194-11.1207703-3.1243716-21.7765152,1.7279319-32.4951467l-1.7463149,1.171418c-1.068926-1.3854538,5.5268832-5.636648,6.1221558-7.017151.2810844-.6518658-.2515642-1.2552651-.2685416-1.7716951.3037659-.5346081.6943909-.9252331,1.171875-1.171875-.0081074-2.3590255.3825176-4.3121505,1.171875-5.859375l.9532877-.1843209c.6233871-3.5147734,3.3228178-5.4596573,6.4772376-3.3104205,2.4410034-8.3207312,7.2441952-14.0578649,13.2729924-20.2416408,1.4766201-1.5145787,17.0392199-14.3711995,18.3004685-13.1531255,1.1198473,1.081513,1.5502315,1.7237504.2023558,2.8875784-9.5575975,7.7014294-18.5870978,15.499175-26.1644608,25.1684222-.0411133.0524635.6035705-.8827302,1.0206187.0444446,8.0855153-9.3917493,18.2067427-15.0065619,29.6593921-19.2907996l-7.8771271,2.5659744c-2.1954964.2621476-2.6867334-2.1613137-.688515-2.0251747Z"/>
  <path class="st82" d="M398.4375,271.2890625c.8886041-.3473673,1.7054941.2609568,1.7578125,1.171875,1.9650539.7276969,3.5284123.6537915,5.2734375,1.171875,3.0734319-.1719085,8.8296219.4519727,10.546875,3.515625,17.9417892,7.3394087,32.6129112,18.8106278,31.0546875,39.84375-14.2821504-.7093115-31.0153874,4.4910514-35.084763,19.7819999-1.3426855,5.7088222-6.4873588,22.4618476-13.0762502,23.4708662-.5917592.0906216-1.1522308-.1819184-1.6436744-.4794286-2.6715097-14.7227064-5.2387153-29.3209557-7.7011156-44.1543531-1.9607897-11.8117156-5.6223982-40.7715468-10.4629469-50.1815844l1.7088531-.7082205c5.7824491,2.7009754,11.6581439,4.8901739,17.6270844,6.5675955Z"/>
  <path class="st41" d="M397.265625,359.765625c13.04182-6.0917744,10.360026-22.6910209,18.1766962-32.5068975,6.5512117-8.226762,19.4125991-11.8059616,29.6049827-11.4373369,1.1263607.0407367,2.3496017-.6028186,2.0230086,1.170797-1.9040047,25.7005228-13.301502,47.8008891-22.1283189,71.3287124-9.5669727,25.5007039-17.5633267,55.284456-22.1237315,82.1731435-3.4786656,20.5106251,1.9224752,30.5641417,3.2309653,49.5311851.1596931,2.3148105.3934555,5.7817392-.5804774,7.904459-6.7056645-11.2854944-14.5499201-21.8020743-21.6796875-32.8125-.3573712-4.786039.8018071-9.5638405,3.477535-14.3334046,7.6980448-12.8603881,11.5546704-27.6354069,14.3905194-42.4079872l6.0632386-34.1330063c2.7209751-13.9396069,6.4562718-26.0239558,11.4060493-39.0412739,2.0757914-1.9677929,3.8891338-19.9222027-1.7663768-16.5523817-3.1121006,8.7206986-9.3083077,14.9086209-17.0329717,19.9852464l-1.8895563-.0796927c-.2323406-2.5943791-.7062099-6.2227794-1.171875-8.7890625Z"/>
  <path class="st28" d="M247.8515625,53.3203125c1.7255974-.9881851,3.046296-.3555942,2.9231674,1.842007-11.2363288,10.4984936-18.512333,25.4396513-20.8377847,40.7333817-.3466523,2.2798181-.3521585,5.9752197.9224298,7.8152363.4894747-2.1595827.6613285-4.35555.5155615-6.5879018l.6563135-.4433482c-.9198107-4.9938702,5.3745902-23.7402198,10.1352568-24.2157819,1.8657551-.1863778,2.2529846,3.9066921-.1743193,3.7079694.4721838,4.7626301.2560789,9.3377641-2.34375,13.4765625-.1835726,4.6170209-.7491157,9.2487639-1.6966293,13.8952289-.5973537,5.0992371.3501727,10.3526275,1.7498269,15.6633.3420485,6.9437796.316728,13.9050225-.0759615,20.8837287l-1.1491112,1.7061799c-.0350394,10.7471542-3.2763251,24.1980606-7.4472763,34.6991729-4.5295311,11.4039011-10.3148529,20.1765058-18.8222108,28.9596951-5.4250892,5.6009852-11.9645406,12.1922832-18.8477004,15.4426945l-.7600589,2.1714268c-6.7006889,5.3805931-13.0879609,11.1020967-19.1618161,17.1645107-.4195223.1225396-1.446738,1.1022316-1.7539939.2967669,6.7570635-11.0306914,17.2844459-18.7108143,26.9463821-26.9598119.0925267-.4368096-.5972791-.3927056-.8661694-.2832586-1.4005988.5700889-10.5268717,7.3730086-12.3015828,8.7951584-5.0490187,4.0459886-11.1587773,10.4621238-14.3719606,16.0967901-.9514596,1.6684878-3.1587281,8.2182378-3.5321109,8.4862203-.7864222.5644273-2.4978512-.947782-3.2023719-.9548224-2.4455561-.0244387-3.5267331,4.3007635-3.817167,6.2400919l-1.1635256-2.9280722c-.585877-2.5321423-.5621025-5.2501867.0713236-8.1541331-.1294968.7619542-.5562213,1.3232401-1.2431986,1.7088206-.6366079,3.6562235-.4392756,7.459093,0,11.1328125v1.171875c-.1170322.489694.0847357,1.2032076-.0058397,1.7575035l-1.1660353-.5856285c-.4202321-12.7828801-.8486595-20.8740753,5.9733516-32.4055546l5.7423886-8.0211655c-7.4617847,3.337251-17.1601497,8.5032028-21.5726918,15.6283623-.6924859,1.1181927-3.6196109,7.2801317-3.6196109,8.0991391v10.8398438c-.8789114-.2533295-1.1089979-3.0406631-1.163513-3.8154642-.8354149-11.873407,4.629232-19.0168044,13.6314578-25.6111222,15.0104906-10.9954968,31.9365712-16.9155793,46.1258052-29.753101l1.6426459-3.1911978c14.2374775-14.2699886,18.9662014-34.3516095,20.5955377-53.8484108l2.4605816-43.6854446c1.4163264-12.0909609,6.1823911-21.8613831,14.8993196-30.5288846,1.1750323-2.3876742,2.6241082-4.1441741,4.3472277-5.2694998.5679393-1.0900276,1.1538768-1.4806526,1.7578125-1.171875Z"/>
  <path class="st25" d="M247.265625,51.5625c.7780376.6553998.3874126,1.6319623-1.171875,2.9296875-2.7607021,7.2739058-9.3514015,11.4897362-13.011048,18.3366082-2.1232089,3.9723343-4.7617679,13.8033893-5.143549,18.293951-2.9096401,34.2235805,1.8818091,74.8565279-25.7907154,99.8928783,1.3362629-6.831974,2.8904374-14.4895417,3.5059227-21.3964211.2686719-3.0149944.4913886-6.894204.6198084-9.9270666.4964445-11.7244244-.9106666-23.5482271,1.1529118-35.1761305l-2.6364858,4.9815962-3.2340162,11.1284828c-1.512055.206041-1.2201303-.1751983-1.1158065-1.4077337.5882692-6.9501189,6.0018334-14.7620925,8.1903648-21.1145592,4.9344792-14.3228996,6.3656046-30.4307951,15.1969883-43.6897304,3.2355265-5.67134,18.6482528-28.56297,24.3571853-28.9089925,2.1828715-.1323054.6604163,3.5509853-.5709341,4.4534301l-.3487512,1.6039999Z"/>
  <path class="st40" d="M319.3359375,35.7421875c11.3042042,3.2661314,23.0587283,14.8927332,30.1257589,24.0734596,12.1346052,15.7639744,20.6164214,33.9000948,29.6398661,51.5124779-1.0271854-.2990728-2.7166284-.2439609-4.1015625-.5859375-5.4324941-2.3835057-10.9076114-4.8384571-16.0957982-7.7370633-5.0509581-2.8219374-8.4847068-4.8492305-12.7736876-8.8197369-2.4919405-2.3069037-6.4760146-6.1087095-6.8727017-9.2244498-2.1904199-2.3624719-3.9362947-4.864809-5.2376244-7.5070112l-7.6530006-12.4148638-1.370469-.0265913c-1.7214667-2.9389854-5.9611922-4.8679822-8.8088798-5.8463396l-.5354422-1.079221c-4.3229591-.8023652-8.6901789-1.3228257-13.1016593-1.5613816l-.7929246-.8614665c-.8148248.7574088-1.5834505-.4347703-1.0564488-1.1453328.8039908-1.0840303,6.1289039-2.9338378,7.5017613-1.7843547,3.3197082-.8789407,6.7256667-.5934694,10.2178757.8564139-1.155573-.9975521-1.0105884-2.0160849.1770126-2.977466,1.2067235-.976861,7.6066804,2.9200223,9.2223975,3.9544763,1.3747524-2.9877275,3.332413-1.6693644,5.2373098-.0415776-.561579-1.5349747-.2277776-2.4350441,1.3964574-2.9739174,3.055621-1.0137649,20.4218705,23.8583146,22.7869992,27.6456994-9.1121268-17.2163832-21.0259346-32.4446651-37.9857936-41.8942051l.0805538-1.5616111Z"/>
  <path class="st72" d="M319.3359375,35.7421875c2.4784505,2.6601684,6.23344,3.976357,9.32755,6.1997937,15.566576,11.1861881,26.1097644,29.4454264,34.6230658,46.2362724-.5774299.5525163-1.7151767-1.1321473-2.0071698-1.5085149-7.0390041-9.0730025-13.3683326-19.9106924-20.867258-28.3513955-.7936342-.8933054-4.970154-5.3274458-5.556856-5.5789485-.6932949-.2971961-1.1667779.1756642-.8661343.8661366.7076015,1.6251111,5.456171,6.8332714,6.9192615,8.9040396,1.0372927,1.4681202,2.495734,3.1970676,3.0311427,4.8730374-3.6570054-2.7627155-5.6874724-6.903779-9.0940105-9.9429808-.6353225-.566814-4.2151394-3.3498618-4.6801682-3.5260527-1.0121534-.3834864-1.1773357.8032564-.8640536,1.1533497.0814991.0910754,1.2178112.2176994,1.7803933.8390824,10.9650998,12.1111699,17.6577092,27.6213404,29.8529092,38.7257538.0925225.4347959-.611962.3994547-.8682017.2852909-.3413621-.1520889-5.0192256-4.3441798-5.6018989-4.9479669-12.6193482-13.0766252-15.5854745-30.8511802-34.501964-38.155453-.9308958-.3594492-1.3965258-.613201-1.2072827.6194871,2.4722459,1.7095986,5.0648089,2.2733061,7.5612933,4.1604817,8.7712755,6.630499,13.8094764,20.0401097,21.1619639,28.6427236,6.3669794,7.4495422,13.6726485,11.8881426,21.6620121,17.2968545-1.0821696.2672604-1.6230663-.3990556-2.4207525-.796127-5.8651057-2.9195258-14.2918576-8.7202707-18.6881701-13.5381919-8.4834695-9.2970387-14.2355739-25.9639898-25.7426053-31.6792697-4.4844927-2.2273452-9.1592044-3.2757989-14.0858788-3.7852149l.1458375-1.3947884c3.6880958-1.7179329,2.6017073-1.9058427-3.2591655-.5637293-5.8832049,2.6317704-8.0472766,2.3999155-6.492215-.6955647-3.743137.130737-5.0917905-2.2394662-1.2175222-3.7089075,2.3593733-2.8759771,3.5298832-6.7044899,3.8249167-10.3795313l1.1387734-.8356038c6.3589906-1.2343415,10.7336543-1.2223447,16.9921875.5859375Z"/>
  <path class="st44" d="M302.34375,35.15625c.3340708,3.2069208-1.8783817,9.9878333-4.2601073,12.1384045-.7350044.6636698-2.2011873.3172813-2.1823347,1.3322691l5.855876.5981184-3.5147687,2.9176461c6.6045449-3.0900763,12.1270881-4.4288579,19.3326257-2.3319094l-6.1074049,1.2051203c-1.1943744.190351-2.2992746,1.3632954-3.2645111,1.7184761-2.2376822.8234059-4.486371,1.7031805-6.8163034,2.274521l.3709909.6551665c.8833228,1.0227054.4926978,1.4133304-1.171875,1.171875-3.4601532.3125857-7.0840469-.0358362-10.8716811-1.0452659-3.9802403.0477179-7.5829091-.5804227-10.8080064-1.8844216-1.5390381-.2754987-1.653315-.6056115-.5859375-1.7578125-8.8274891-5.9217884-20.3354286-6.7148306-28.5274924,1.0172281l-1.9412576.1546469c-.4797115.442185-1.2319221.7479133-1.7578125,1.171875.3815783-1.0053835.8792753-1.890154,1.171875-2.9296875,5.5891753-13.3952262,26.3244784-16.4001021,36.582191-6.2694733-1.0406946-1.4545913-1.3206958-2.6850794-.8400035-3.6914642l.5859375-.5859375c1.5698965-.1945768,3.0910631.7441867,4.5634999,2.8162906-.7662075-4.4635928-3.7740645-8.1828645-8.0872309-9.6295583l-.5778315-1.3898573.5859375-.5859375c4.5973411-.086175,10.1764072,4.8173641,10.922394,9.6280224-.0189154,4.0842393.8117833,8.740113,3.7462365,3.0360903,4.3884952-8.5304054-3.9816255-15.0141984-11.813554-16.5303135l-.5113265-.8212992-4.0986047-1.1659338c7.2459698-.3553479,13.7966054,1.1847033,18.0828127,7.3965964l1.8295152,6.0704324c2.8201045-13.3335467-8.1968706-20.2806213-20.498421-16.9946921-.1417185-.9013223,1.0940499-.685316,1.7608511-.8604671,9.9180742-2.6052172,21.6700957,1.8858012,22.8457217,13.1712518Z"/>
  <path class="st11" d="M283.0078125,41.6015625c1.7826565,1.9618729,3.1106894,5.5399732,2.9235952,8.200318l-3.4969165-4.4043065c-11.4735359-9.001365-26.9980052-5.2291552-35.1688662,6.1649259.0188158-.0668478-.6307541-.45222-.5009284-1.2954291.1999751-1.2988248,2.0947123-2.6376416,1.3836465-3.9741601-10.1616359,7.0664334-16.3236165,16.7879524-22.9026582,26.9280371-.4211205.6490607-1.2683032.9690292-1.4175598,1.1931146,5.5634538-12.098883,15.1868373-23.8489426,25.8319202-31.8829236,1.565177-1.1812592,4.6667532-3.4310581,6.3103344-4.2367807,1.4830571-.7270299,5.09534-1.2911258,5.2813368-1.4928887.2580449-.279918-.0735884-1.3590735.1233365-1.5619083.6441171-.6634477,11.1682742.9376382,12.8365719,1.3886575,2.6641693.7202501,6.9463746,2.9375627,8.7961877,4.9733438Z"/>
  <path class="st88" d="M282.421875,27.5390625c4.9767979.2934376,9.4592105,2.5513237,12.57599,6.466983,3.4961413,4.3922574,2.2899072,11.530475-2.0256399,14.9230211-2.0001274,1.5723439-2.3901803,1.0025999-.5994469-.5891991l-2.3311412-.2900451c.7680636-8.777935-2.2410631-12.6935648-9.9635121-15.8232599-.5733368-.2323576-1.878123-.498754-1.7549637-1.1658251,4.7608761-.4457292,8.4674806,2.9216814,11.7101514,5.8530977-.3439085-3.2504688-4.2598219-4.9946306-7.0211478-5.8665068l1.749076-1.1571246-5.8514321-1.7717691c.0665144-1.0332403,2.7791226-.6225872,3.5120662-.5793721Z"/>
  <path class="st70" d="M279.4921875,32.8125c6.6157674,1.683942,10.6029698,7.9894882,9.955098,14.6482582-2.0359102-2.497929-3.4042077-4.2999437-5.8535355-6.4451332-5.8868323-5.1558517-12.0892914-6.8029363-19.9217042-6.4511667.4121811-1.2102288,2.193011-1.5303115,3.2730314-1.7014154,3.6193256-.5733974,9.0426203-.942557,12.5471103-.0505429Z"/>
  <path class="st79" d="M416.015625,277.1484375c-3.0960908-1.2665111-7.2897817-2.5486211-10.546875-3.515625-.256172-1.9130371.6696939-1.010734,1.7608499-.8919792,1.2512842.1361823,4.141885.8814687,5.1293819.4972359,3.36818-1.3105513-1.3672908-11.4366564-1.9207937-13.6567285-.7827098-3.1394095-1.1553998-6.9379935-2.0397507-9.9719657,4.5366355,8.4766462,5.7824119,18.216089,7.6171875,27.5390625Z"/>
  <path class="st78" d="M341.015625,149.4140625c1.5390233-.7707662,6.1890763,1.9290688,5.2734375,4.1015625.286923.5006281.5019362.9957127.4652656,1.4713947-.4170897,5.41038-1.0882871,11.7991958-2.8090156,16.6926678-.1067762.7294373-.2707911,1.3980924-.658413.7324997l-1.0993995,27.3925003c.5417361.094126.8314882.3463754.8592574.8254879,1.0054882,17.3481025,6.5716886,36.5328386,17.3048051,50.1510746,10.2218175,7.0931621,14.4415544,17.680065,17.3135524,29.2864462,1.26919,5.1290783,1.0227393,8.8072639-3.2510524,12.3151163-4.7165245,13.9003676-9.0904218,27.9830109-13.1216918,42.2479298-.4350927,1.7085776-1.0512673,3.2156914-2.6986207,4.0411327-2.5799636,3.6043756-6.2499043,5.2808774-10.4022581,6.5250307-13.024329,3.0658609-22.5121905,6.4436564-28.2589111,19.7513487-6.1143445,14.1589996.0531796,30.5628571,9.3642942,41.6923706-.7240291,4.3699592-2.2490113,8.42941-4.5749467,12.1783524l-.1125533,1.2982101c-1.143008,1.8467737-5.5379221,9.0338484-6.7295631,9.9715109-1.1462676.9019596-1.3204144-.178462-1.7719718-1.177255-4.4554775-9.8550016-7.6602415-25.0345876-11.5668448-35.893845-6.6595343-18.5116308-15.5161421-36.312566-22.1293622-54.6284503-9.4090081-26.0590605-12.9031284-47.2127554-27.8713408-71.7380342-2.995466-4.9080436-5.7689515-5.8726601-5.508348-12.0582361.2183476-5.1826078,1.8653788-10.8271362,1.7493057-16.1163154,1.5083061-.2080005,15.4171077-8.889769,16.4488597-10.2380892.4036717-.5275286.4729963-.8443671.5433278-1.4806608,4.7236288-4.6234416,7.5007297-11.0242056,8.6965399-17.5095932l1.2643976-.6544693c.5628583-.9603206,1.6418599-1.6619714,3.2370048-2.1049522,9.2363105-7.2728449,18.4710125-14.6402953,27.7041062-22.102351l5.0870747-2.6333846c6.2237181-1.031516,11.3118097-3.3389624,15.2642748-6.9223392-5.2072584,2.5040018-12.8103357,3.0903475-18.5459266,2.6371484l-1.105909-1.1006838c-4.8150251-1.9223728,2.7262191-4.5078888,5.4526722-4.9325279,13.6147459-.8452022,23.7241033-6.197917,24.8580221-21.0023656l1.3299307-1.0182315Z"/>
  <path class="st39" d="M206.8359375,308.7890625c.2016232,7.3029589,1.3857826,14.6942531,3.5524783,22.1738828,2.1622655,11.1640545-.0143341,22.5930329-2.3806033,33.4901797.1534456,1.8145491.0688394,5.1473424-1.171875,6.1523438.3562377.0831637.6343987.1701361.6392916.2704387.2016799,4.1343846.2399891,9.8661002.0564943,13.9929923-.0061526.1383742-.3086362.2635726-.6957859.3850064,1.6386246-.0591892,1.1548786,3.7320781.8591214,5.2608598l.3127536,1.4774215c2.4658048,20.38153,5.872244,40.6605692,10.2193175,60.8371176l-.25838,1.2722574,1.1814481,8.0234246c-.2023587,26.2124515-3.5320138,55.4247491-7.7403843,82.1984297l-2.2301263,9.3875207c-3.0473679,6.4003062-7.6386807,11.3166522-9.9609375,18.1640625-.030663-.4966807-.0236165-1.0136262-.5859375-1.171875,3.9778826-22.7411985,10.5473124-33.631159,5.5719006-58.5992443-3.3105109-16.6131208-18.4817566-46.3915549-17.3129501-60.6661071.7850568-9.5878434,11.6061569-17.1039495,13.4300439-28.7526855,2.7994405-17.8793666,1.4121233-42.6944016-.5899885-60.7958127-1.3979544-12.6391284-5.2050587-26.6572057-4.0187829-39.3207718.3956851-4.2239624,2.1465224-8.2554519,6.0202912-10.3839375,1.3435899-.7382505,3.7616762-.9329951,3.9045218-1.076542.3716397-.3734645-.1504479-8.8658233.6179866-10.5192588,1.0224493-.1369573.5507596,1.3279926.5800129,2.0403554.083895,2.0429678-.138228,4.1307828.0000895,6.1599419Z"/>
  <path class="st39" d="M383.7890625,495.1171875c-7.4026799-11.4318817-14.8356912-23.1093882-21.09375-35.15625-.5116404-.1663153-.5041927-.3620499,0-.5859375.5418498-.0870755,1.6758337-.4173879,2.34375-.5859375,6.4097673-.48772,22.7501009-8.4504101,21.0585932-16.183686-2.18736-3.8363631-3.5428286-7.8168011-4.0664057-11.941314.5387375-5.3870616,7.2786874-10.7190474,10.0743498-15.4139314,7.5207091-12.6298711,7.6161771-32.3548532,6.3319002-46.6954436,6.266467-4.5427032,11.7420021-8.2441396,15.5538041-15.207915.7688985-1.4046996,1.6476696-5.3614126,3.003615-5.8114277,2.8520135-.9465346,5.0283891,1.8389923,5.428371,4.3576738,1.3794708,8.6865116-7.9082575,27.8757588-10.3372844,37.6343934-6.3449472,25.4908759-7.983973,54.0565362-17.3011178,78.7926322-1.9653137,5.2177131-5.0168943,9.5717393-7.1681796,14.5115079-1.7424287,4.0009543-2.7947959,8.0703206-3.8276458,12.2856355Z"/>
  <path class="st4" d="M398.4375,271.2890625c-1.2526844,1.0734708-4.2853559-.0013726-5.7302177-.4215764-4.8092539-1.3986574-8.8465035-4.1544732-13.6057198-5.4377986-2.6321546-5.1169145-12.74945-13.2490523-18.1640625-15.234375-.1663153.5116404-.3620499.5041927-.5859375,0-.4264741-.1104787-.8232296-.2543327-1.1159699-.5150001-1.9465814-1.7333121-6.7684315-12.2459523-8.1382782-15.388626-3.6760172-8.4334418-8.0058439-20.788471-7.9404501-29.9744928.0023787-.3341477.3465815-.665862.7884483-.9968811.0106882-1.6116011.5066789-8.6443836,2.4547181-5.0676105,4.1918899,25.2924381,22.2256303,43.984903,41.5300254,59.5006129,1.4347786.6759988,10.9063277,11.8044136,10.7949048,12.6975231-.0357928.2868971-.1503717.5639649-.2874608.8382245Z"/>
  <path class="st56" d="M217.96875,454.1015625c1.1068627,2.101612,1.8881127,4.6406745,2.34375,7.6171875.9795848,5.5693609,2.6839754,12.4502687,3.440517,18.5321385,1.3518897,10.8678972-.3684868,19.4789308-2.6685561,29.9937288-2.6182746,11.9694778-6.9619734,33.0850881-11.9047735,43.4663203,2.8189164-26.4703668,6.9715765-52.7800062,8.8132083-79.3703854l-.0241458-20.2389896Z"/>
  <path class="st16" d="M375.5859375,292.3828125c-4.1869166,9.4706146-6.0870365,21.0451396-9.0834356,31.0532832-3.2996394,11.0209835-7.4341175,19.9752468-11.4243769,30.4701543-7.4226545,19.1625741-15.9216641,39.7367904-25.78125,58.0078125-1.6062338,2.6823522-3.1169767,5.6656089-4.6875,8.203125-1.1993427-.5488225-.2492036-1.8119969.073789-2.5623026,1.5672453-3.6406816,3.0924557-7.2576475,4.613711-10.9142599l-.0050657-1.994215c7.2234882-15.7558603,13.668799-31.784284,19.3359323-48.0852712,2.4140492-5.9507304,6.1258286-12.8910151,9.9660084-17.8892638,5.7128871-14.8223117,8.2226118-32.5903142,15.8203125-46.2890625.7929988-.844755,1.1836238-.844755,1.171875,0Z"/>
  <path class="st47" d="M362.6953125,459.375v.5859375c-4.4870814.4242001-8.8156718,5.4359407-13.1623455,5.2992648-3.5410146-.1113429-9.2994744-5.2943091-13.532245-6.4368171-3.3767332-.9114466-6.2569735-.8044388-9.6333721-.0401545,6.5855155-6.5739992,12.9889295-4.8706951,20.966906-2.5042054,6.4448985,1.9117361,7.8526792,4.3025745,15.3610565,3.0959747Z"/>
  <path class="st13" d="M357.4189531,471.099728l-9.9515441,3.2231498-15.5388213,2.6252411-77.3447654,5.2724724-6.1433755.0000188,14.3588181-1.7455641c14.1123079-.3124582,28.1601431-1.821505,42.1860389-2.9311486,17.7228622-1.402125,35.1646882-1.6583453,52.4336494-6.4441695Z"/>
  <path class="st30" d="M220.3125,461.71875l-2.34375-7.6171875c-3.2105006-18.9270921-10.115751-43.0637529-9.9609375-62.109375-.4071427-1.0443614-.7491438-2.7017247.5859375-2.34375,2.1596587,23.887098,7.5625261,48.4403916,11.71875,72.0703125Z"/>
  <path class="st76" d="M408.6914062,549.609375c.6185866.0698422,1.6434793.921295,2.6337006.5917993l.0030182.5800757h-12.0117188c-.7652746,0-7.3203066,2.0449719-8.6475094,2.4853031-11.1681765,3.7053091-20.5374369,10.1517306-28.5537501,18.6082415-.2557748-1.0983886.6106513-1.3946268,1.1647172-2.052146,5.4195342-6.4314522,15.3998353-14.7665693,23.2860574-17.7293835,1.9035285-.7151461,7.5152652-2.4838901,9.2348599-2.4838901,3.9708441,0,9.1113163-.4267072,12.890625,0Z"/>
  <path class="st7" d="M212.109375,345.1171875c-.3520029,6.4662916-2.7723027,13.271158-3.515625,19.921875-.3541812.5096308-.5494937.3143183-.5859375-.5859375.9639288-9.2419894,2.9562229-19.8324906,2.3677266-29.0279499-.4656803-7.2764164-3.2106247-14.6515091-4.0517245-21.7243251-.1665566-1.4005761-.5252801-3.7933677.5121229-4.9117875.8401078,12.3246291,5.9821954,23.3082463,5.2734375,36.328125Z"/>
  <path class="st19" d="M348.0526253,449.4138355l2.5023275-5.9877898,2.7595709-11.0013897c-1.873908,3.7522707,6.7757353,6.2657436,6.4054393,8.4112307-.3247143,1.8813876-10.222981,6.0920843-11.6673376,8.5779488Z"/>
  <path class="st22" d="M355.078125,353.90625c-8.226286,21.6362144-13.7412687,37.9014803-25.78125,58.0078125-1.1422404-.3227719-.03531-1.8031012.2764865-2.3614959,10.5059371-18.8150285,17.764525-35.6142262,24.779108-56.0876832l.7256556.4413666Z"/>
  <path class="st1" d="M375.5859375,292.3828125h-1.171875c.9430581-1.7003454,3.3783795-4.3152255,3.4905753-6.1830016.1054818-1.7560056-.990917-6.4702184-1.4337748-8.4714522-2.3445143-10.5946455-7.9618001-19.8405158-16.1193005-26.9471087-.5116404-.1663153-.5041927-.3620499,0-.5859375h.5859375c6.7702323,6.0090866,12.2813496,12.6622227,15.2424393,21.3786544,1.1515886,3.3898816,3.6036741,12.9767886,2.4671769,15.9571196-.536614,1.4072076-2.2895408,3.1063162-3.0611787,4.851726Z"/>
  <path class="st8" d="M365.0390625,458.7890625c5.3320782-1.3455574,19.184073-7.5460478,20.3711779-13.3163374,1.141536-5.5487878-4.0647124-7.9518411-3.3789904-14.8086626.8911163,1.898497.6152165,3.7205684,1.46793,5.8562358,1.3668823,3.4234314,3.7743461,3.6536145,3.2355733,8.5090828-.6459108,5.8210054-13.6467184,12.5331121-18.887785,13.9375449-.8551381.2291488-2.227366.9511178-2.8079058-.1778635Z"/>
  <path class="st45" d="M208.59375,365.0390625c-.9326042,8.3442759-.7531974,16.2785683,0,24.609375-.869781.4027891-.5796714,1.5728806-.5859375,2.34375-1.1681768-1.1140327-.4189291-3.3912555-.561817-5.0047102-.0659723-.7449437-.610058-1.5412409-.610058-1.733571v-14.6484375c0-1.237067,1.0267518-4.7609263,1.171875-6.1523438l.5859375.5859375Z"/>
  <path class="st57" d="M278.90625,53.90625c7.5148239.1203205,14.4744775.828446,21.6796875,2.9296875,7.7614506-.4457726,16.132281,6.0565866,21.7140075,11.3429816,3.5571938,3.3689811,7.8740881,7.5018954,9.34068,12.0945184,1.8817169-.2770596,3.0259339,1.1513939,2.34375,2.9296875-.7051276.2697298-.6424365,1.1312818-.5859375,1.7578125l3.2018361,6.2556275c.6669683.8971141.4203744,1.7224317-.7397817,2.4759529.6391096,5.2891151,1.7001825,10.4259798,3.1832187,15.410594l-.9577731,1.0531381c1.1841095,3.0185038,2.3676629,6.0076069,4.1015625,8.7890625,1.7210351-.1442298,2.4578582,1.0723044,1.171875,2.34375l1.4236721,2.2013935c-.2999183,2.0218566.3973993,3.0458713,2.0919529,3.072044l1.223717,1.0348694c-.6589527,3.7680913,1.4547496,3.7340522,4.5596071,3.3590445,2.5330304,1.7753677,4.1208807,4.2169798,4.7635509,7.3248361.1663153-.5116404.3620499-.5041927.5859375,0,1.9198242.9860439.9336017,5.3288151.2197389,7.1151495-.6670893,1.669291-3.7199346,6.0654132-5.4931764,5.7754755-1.3526205,1.0467578-4.1692483,2.1849572-4.6875,0-.8007272,1.2757745-1.1913522,1.080462-1.171875-.5859375-1.3711926.7365924-2.9818675.1624758-4.8320245-1.7223496l-1.0273505.5504746c-.9807368,7.0502733-2.1651324,12.2732533-7.60439,17.2979537-6.6791285,6.1700736-16.109801,3.8178411-23.8790928,7.7672612-1.370499.6966756-.663582.8331811-.1571421,1.88791l-1.3571825,1.2757917-10.5709195.8516108-1.5484605-.9555275-10.3048924,1.3807218c-4.0566701.3079977-13.305527.9520612-16.3061015-1.6020994-2.3494983-1.9999491-5.0255099-6.2130521-2.6858811-8.5676849l-.2558776-1.3199077c2.7770242-2.7118959,5.0697701-4.4643177,9.0449401-4.5394673l.4833405-.8055056c3.5511098-.0649648,6.3196837-.9683379,8.305722-2.7101194.4824462-1.0587206,2.3299229-1.2642676,3.515625-1.171875.1605549-1.3563735,3.9894351-4.2451316,5.2985141-4.9470435l2.3186734-.326394c.2112588-.5564207.9925088-.9470457,2.34375-1.171875-3.765337-1.6451319-7.2734658-3.9672287-10.5243864-6.9662905-4.7077423-3.1201183-7.8783378-4.9064598-13.3038181-2.1754977l-1.3671079-.8191493c-2.1943955-.2388302-6.0475736-1.5805595-5.2734375-4.1015625,1.4358119-1.1104636,2.2170619-2.2823386,2.34375-3.515625.791075-1.1780427.4928145-2.3348346-.8947817-3.4703758l.3088442-1.2171242c-.276226.0898374-.5504365.1548842-.8175927.1331639-.3203537-.0260453-3.9420825-4.8862684-2.1120948-4.8206639l-1.042825-.8759555c-.1311675-.8455044,3.1737589-7.0449447,4.55845-6.1552945l-.6875543-1.3859208c2.5700203-5.8998824-4.1139565-10.8904748-9.274375-12.0682061l-.2034898-.8784665c3.3526699-1.8924892-.9276208-5.1197036-3.3111434-6.1752191-1.593944,2.3752672-4.7517937,1.6955413-6.7327987.5755662l-4.4000138.5963088c-.2394979,1.5833601-.5466422,1.4303467-1.171875,0-1.5919426.6364873-2.4983749.6601669-2.719297.0710386.5224988-7.2527656,1.3634355-14.5647796,3.9511617-21.1846057.0872271-.2231412.2900708-.4010873.5259479-.5661205-1.358004-4.4613868,3.3651103-10.6757283,6.569294-13.9456333,2.8412236-2.8995002,6.2899394-5.1726859,9.9944305-6.8107627,4.6482186-2.0553805,12.3918246-4.461483,16.834713-2.0951665Z"/>
  <path class="st79" d="M358.0078125,138.28125c-.2653972-.6496756-.5777641-2.6994523-.3605309-3.1770715.0781341-.1717894,3.1908763-.6832868,3.4412574-.6408612,1.8935811.3208561,4.2812034,10.8306584,2.7786485,12.6069952l.2688692,8.0987207c.775382,1.6469861.6996752,4.1872102-.8548067,5.3778418-1.1091956-2.4087821-1.6725187-1.3379133-1.6899695,3.2126066-1.3438861,26.1686585,20.1341744,55.132367,37.513504,72.99479,1.8963024,3.8031103,4.0176242,7.3068947,6.3639655,10.5113534.0637506.2343631.6498444.5247196.6491836,1.4597083-.0008522,1.2057014-2.0924006.5262769-.6512376,3.2239086-.1741661.1723552-4.3725998-1.3140229-4.670155-1.485162-1.1984202-.6892727-.8905318-1.657586-1.187166-2.0265798-.2442427-1.1521046.219848-1.385513,1.218561-1.5090111-6.3062042-7.8599684-12.4901276-16.955977-17.843865-25.7063793-.0610526-.0997872,1.1638953,1.8353178.219054,2.0200779-5.75409-4.1821785-5.0092585-11.8410294-9.6708575-16.4033257-1.040988,1.9631744,1.8740261,4.0137131,2.0629426,5.6056176.140462,1.1836031-.6498792,2.2756695-.493681,3.3555793.2190372,1.5143604,2.8983881,3.6538503,2.8281584,5.6843163-.6307292.1927349-1.1067746.0604618-1.4735619-.4240991-3.5752944-4.7233051-6.5754629-9.6119751-8.7461581-15.1430222l-.327155,1.5046213c-4.4345765-5.9531872-8.119156-11.5966182-10.2628722-18.7410341-1.1627389-3.8750887-4.2098828-15.60666-4.3331719-19.1060316-.1314877-3.7320766,2.0469127-8.6096429,1.6995004-12.5434651-.8785232.1544978-1.1440703,1.0628428-1.4516379,1.7650611-2.499707,5.7071678-2.9544529,9.5055343-3.2299434,15.8129696-.2185008,21.3408688,5.2616617,42.4048486,21.8343371,56.9139452,9.0825526,6.595984,16.0622527,14.577794,20.9391004,23.9454298.7309478-.2519125.8195551.4831365.5859375,1.171875,1.8080664,1.1798682,2.304623,5.2668562,2.34375,7.6171875,1.0460573,4.3733362.9976185,1.8380613,2.9606239,3.7672579.2380259.2339264,2.7896236,3.8556862,1.7268761,4.4358671-.2306541-.0854156-.6271507.0638885-.9941588-.1839405-.3422156-.2310874-.4885875-.7023903-.7636537-.9879345-1.724864-1.7905687-3.2344846-4.5757537-4.9721232-6.4536545-8.6197839-9.3155732-19.3636385-16.3861999-27.8245793-26.0816743-9.9041132-11.3492197-18.549119-26.1494745-20.5294572-41.2899561l-1.1660279,5.8565349c-.3927887-.0329041-.7133744-.0953551-.78125-.2612204-.5195141-1.2695196-.1351545-6.3089908.78125-7.3559671.1863241-3.9089194.3816366-7.8151694.5859375-11.71875-.5987276-3.4191925-.7011177-8.8625842,1.171875-11.71875,1.0557623-7.1273043,2.8723644-13.9991301,5.4498065-20.6154773l1.5814435-.4782727c3.8231138-6.1951516,5.0231399-3.8211518,5.2734375-12.890625Z"/>
  <path class="st86" d="M333.3984375,84.9609375c3.9375122,5.4734484,5.9579112,12.6705149,11.1267447,17.291224,4.9820226,4.4537084,11.9089139,6.2952082,16.9991679,10.2426289l-1.168459.5838132c15.1385901,7.0717222,29.6113017,15.2117458,31.0399585,33.7108556.0499727.6470772.4753744,2.7211112-.5697184,2.6217905-.4128652-6.4326138-1.8508572-13.2800694-5.8792814-18.440131-1.3083686-1.6759065-4.0372776-4.4565172-5.8450819-4.9887845l1.7547158,2.0478635-.8663494.28344c-10.8269723-9.6642319-28.0745233-8.8593095-37.5170929-19.9077731-1.587275-1.8572222-2.4535144-4.3062639-4.3811838-5.8667262-.1212045,5.8187736,5.074767,9.6818541,9.5486997,12.4179604,11.7985202,7.2155769,16.9298738,5.4569536,25.0156926,19.2225887.3977534.9672706.3541506,1.1295703-.5859375.5859375-1.2073146-2.1377099-2.5992595-4.1794121-4.3974284-5.8564423-.4499032-.0852004-.3532067.5385199-.2962515.8791618.3991974,2.3875469,3.5764855,7.85168,4.5270027,11.2963014,3.213111,11.6441349,4.6418822,23.8932558,8.21368,35.7316325,2.9762192,9.8643892,7.7438136,19.0462114,10.7029972,28.847784-.5043269-.3135772-.9923312-.6450084-1.4232062-1.0389284-.4217687-.3855947-.8201253-.770022-1.0613862-1.2325669-4.2288696-8.1075839-7.3276775-16.8661665-9.9912402-25.5546389-3.0143087-13.5481969-7.0588228-26.5384438-12.1335424-38.9707407-1.094002-1.1803306-1.2780272-.4505932-.5520755,2.1892122.7680976,2.6074902.5614977,4.6121278-.6197995,6.0139128.2222036,1.303401.7719485,9.1342835-.103637,9.2802606-.2394991.0399291-.5058014-.0809098-.7797617-.2476825l-.2884764-9.0325781c-.1987221-3.7758792-.7479106-7.7622231-2.6324334-11.1371887-.4617783-.8269922-1.1142293-.8877148-.8899894.3011518.557062,2.9534113,2.9834448,6.3091711,2.3444929,9.6613177l-3.0097675-8.9929159-1.6658198-1.5510877c-.0316655.9722261.021021,1.9557146-.0058577,2.9296603h-.5859375l-.585217-.3421319c-.266213-8.5880634-3.6695501-13.2873865-10.2100112-14.0979692l-.9235218-.7942739c-.9048204,1.0317466-1.6860704.4458091-2.34375-1.7578125-.1932951-.7496855-.9380092-1.571862-1.171875-2.34375-1.7102218-2.7649931-3.0440653-5.7278459-4.1015625-8.7890625-.531218-2.2646792-3.8808008-16.7162413-3.408234-17.474422.1889549-.3031571,1.5177224-.4208313,1.5840839-.9547545.0957269-.7701888-2.6460497-4.3564439-2.8633499-6.7661361Z"/>
  <path class="st54" d="M366.2109375,138.8671875c.9911537,1.5179161,1.6049815,3.2303529,1.9833114,4.9963988l1.8290981,24.1180718c2.1537472,15.7418231,9.34437,26.8163981,18.4566992,39.4827685.9498963,1.6361587,2.1665856,4.1325289,2.3402662,5.8168234,6.4102502,10.4871295,11.4138683,22.0932963,14.6484375,33.984375-1.0865266.9025861-1.3496348.1766581-2.0045672-.6228992-2.9740667-3.6308123-3.0566347-7.1762315-6.4911792-10.5103192-5.6983262-5.5316563-9.9850832-10.8521026-14.599833-17.626671-11.6795134-17.1458183-25.7551863-38.5862454-21.1766815-60.3365503,1.0146599-4.8201678,2.818986-.3205548,2.0847609,2.3776897.5655599.4247549.9743785.9799048.9838683,1.6904741.137546,10.2990734.497542,14.5309888,3.3896512,24.5075084.1997459.6890364.1769499,1.3047274-.2719569,1.9270175l.965782.2806516c.6918369,2.1197564.7605346,1.2449558.206093-2.6244016-.6114941-.0505621-1.1366257-.2970101-1.3608608-.8627306-3.7170792-9.3777805-3.7980968-21.9763265-1.8074647-31.3993442l-.3472994-6.9957377c-.1105871-2.9581067-.0764287-5.9280737-.8534879-8.8145128-.7265947-2.6989849-2.6291496-4.8729573-3.2423289-7.5915056,2.1105146,1.8266505,4.7248221,5.4899333,5.2676919,8.2028934Z"/>
  <path class="st67" d="M390.8203125,205.6640625c.0118765.0393381.9211721.1920898.5870603.5751301-.279844.3208253-1.8251647-.2363602-1.8230418,2.0629554.0019796,2.1441242,3.7993197,3.6917527,1.2359816,4.9791019-6.8810536-11.257361-16.138531-21.9863539-19.9314694-34.8536868-3.7874098-12.8485772-2.0924568-26.639745-4.6779056-39.5603757,1.6551608,1.2496349,2.5841345,3.2671599,3.3760501,5.1199516,5.197686,12.1606781,7.6847273,28.3573843,12.4331798,41.4731623,2.4925731,6.8847767,5.3725248,13.7358305,8.8001451,20.2037611Z"/>
  <path class="st29" d="M355.078125,202.734375c-.636831.694887-1.4931824-2.0539809-1.4299647-1.9263278,5.0137529,10.1240746,7.9851897,15.3412569,15.5356604,23.9162617,6.761723,6.3883283,13.0621059,13.1937612,18.9011486,20.4162989,2.022183,2.9004771,4.788326,6.9622135,4.4931556,10.3281421-6.3406985-11.7982337-18.6845761-18.9051749-27.2544105-28.7026208-13.1207025-15.0002168-16.3716798-32.6350197-15.519027-52.1567542l1.3231788,15.3760399,3.9502587,12.7489601Z"/>
  <path class="st63" d="M333.3984375,79.1015625l.9425621-.230611,4.9168129,6.089986c3.5438098,3.6791853,7.2964198,8.6570395,11.7662033,11.9642655,7.4079276,5.4811806,16.6676407,8.1719276,23.9759842,13.8169845-9.0372452-2.2315334-16.3404635-2.6896558-24.2175638-8.3019675-7.1964753-5.127377-11.2920503-12.5760029-16.7980612-19.237095-.7881286-.9534665-1.5453312-1.9860914-2.34375-2.9296875-2.5059799-4.0722523.8074811-5.1898479,1.7578125-1.171875Z"/>
  <path class="st54" d="M383.203125,223.2421875c-.2803785-.7374521-.625146-1.5268687-.5802227-2.3435192.2017502-.2527044.8920291.615988,1.14904.8957954,5.6486847,6.1497146,11.0706946,15.6692408,16.1546197,22.5318455.7434605,1.0035701,2.5972109,1.7203236,3.1909397,3.2425006l-3.5081267.8686902c-5.0831254-6.3230813-13.5884045-17.7838084-16.40625-25.1953125Z"/>
  <path class="st29" d="M378.515625,231.4453125c1.3860804.7723514,2.8706791,2.0129294,3.515625,3.515625,1.9603889,2.0803174,6.1948823,6.1728842,7.6171875,8.203125,4.8277337,4.1817148,7.1596703,13.6783671,6.4453125,19.921875-.1731211.2337939-.1554973.9144457-.5859375,1.171875-.6918671-2.8925446-1.6353944-5.0608549-2.34375-7.6171875-.8861357-7.1509231-6.1408599-13.2052977-10.8417901-18.5070385-9.8481189-8.8255159-18.213113-18.6862542-25.0949825-29.5822148l.1945851-1.1294967c3.5741634,5.0783418,7.2399276,10.0412909,11.4175988,14.6566199,3.0034587,3.3181046,6.6215032,6.1445176,9.6761512,9.3668176Z"/>
  <path class="st35" d="M355.078125,202.734375c.964579,1.6560755,1.5008447,3.0577417,2.34375,4.6875,9.2975121,17.976749,31.3279552,30.7900807,36.231948,47.9116829.3640255,1.2709441-.5083971,1.2398109-.4897605,1.3070671-.4114268-.2968628-.4902447-.7092729-.5859375-1.171875-2.461679-11.9003495-17.9027829-23.0015809-25.7967143-31.9181295-5.8787784-6.6403431-10.8941771-14.2913972-13.4706519-22.8581495.3782583-.7710541,1.6064449,1.76562,1.7673661,2.0419039Z"/>
  <path class="st54" d="M377.9296875,221.484375c.2886744.3637768.5003623.9417262,1.171875,1.7578125,1.6873336,2.2861878,1.6873336,3.0674378,0,2.34375-5.4125863-5.9700423-8.3274285-10.971358-11.71875-18.1640625-2.9506062-6.2579848-5.1761818-11.2978279-5.2909724-18.4487019-.0199993-1.2458552.5229607-1.1417283.9029776-.30789,1.8639261,4.0898519,3.0072025,10.1266167,4.7085731,14.6274197,3.1266482,8.27123,4.7989977,11.3523907,10.2262966,18.1916722Z"/>
  <path class="st34" d="M397.8484929,207.4188365c-.7058307.9290237-1.0679971.0083082-1.1704681-.8648851-.6079986-5.1809798-.5583801-10.5918689-1.2422743-15.7592331-.9076108-6.8577221-2.5947568-13.5442298-4.0234807-20.2840256.9612816.2834862,1.4186833,2.3098063,1.7636237,3.2086394,4.1307866,10.7638527,4.957676,22.2334159,4.6725993,33.6995045Z"/>
  <path class="st49" d="M372.65625,134.1796875c5.5417245,9.4344628,8.5363411,22.4313742,12.298799,32.8124078l-4.1045343-8.4871412c-3.4923351-7.4577494-4.799756-16.6914236-8.7802022-23.7393291l.5859375-.5859375Z"/>
  <path class="st79" d="M396.09375,263.0859375c-1.3207238-6.5806817-2.499875-14.2900402-6.4453125-19.921875.1657032-1.0928618,1.814569.3357062,2.0557192.5820249,2.9073562,2.9696687,6.5418322,14.4537638,5.4407963,18.3693221-.2018361.7177795-.9055127.7737783-1.051203.970528Z"/>
  <path class="st67" d="M391.9831658,206.8380309c.8746091.8512868,3.9402841,9.8565793,4.1045139,11.7138271l-5.2190074-10.8936523c-.4632262-1.0112997.843401-1.0840384,1.1144935-.8201749Z"/>
  <path class="st79" d="M379.1015625,223.2421875c.9690198,1.1776453,3.213949,2.7479853,3.5258704,4.3872782.5631544,2.9596402-3.2348224-1.7225044-3.5258704-2.0435282l.4573837-.3594328-.4573837-1.9843172Z"/>
  <path class="st79" d="M358.0019179,197.4608548c-1.5540302-1.4339396-2.6324379-4.4099375-2.9179179-6.4451275,1.6782691,1.3372118,2.8685433,4.3766201,2.9179179,6.4451275Z"/>
  <path class="st79" d="M382.03125,234.9609375c-1.1041026-1.171647-2.3616895-2.2983567-3.515625-3.515625l.2901189-.5757077c1.0409498,1.2089408,2.5732127,2.2889485,3.5375676,3.5062187.4171589.5265646.3399346.5806233-.3120615.5851139Z"/>
  <path class="st74" d="M244.3359375,154.1015625c.4402373.0189133.8226072.0838602,1.0024416.3099244,2.4638993,3.0972908,5.2487746,7.6886557,6.0288084,11.4088256l1.5567284.643068c1.63806,5.4833049,3.9037255,10.5868489,6.7969965,15.3106321l-.1505999,1.6244249,5.2856452,2.174232c12.9931251-.0845267,14.2251506,11.8813057,14.1181388,22.2003826l-1.2397215.8206979c-.5372755,5.2051802-4.024382,13.9777475-7.9086401,17.5992648-.7069545.6591344-.9967555,1.4536412-2.0522974.5647977.0922056-.8341895-.1246067-1.5431693-.2667979-2.3433381-1.3701447-7.7103751-5.8674597-20.9957094-8.5222646-28.7113494-.6452553-.0087689-1.2311928.1865436-1.7578125.5859375l-2.9370305-9.3706695c-1.0414593-.2257449-.374162.8743499-.5785945,1.1675445.451648,1.9433145-.7086358,3.0277177-2.34375,1.7578125l-1.5046642-.3236989c-1.9122926-2.0386809-5.1149667-9.1360735-4.9406483-11.9809886-2.9003225-2.6061663-4.2442944-9.2471994-2.9296875-12.890625-.0217796-3.7062331-.3851944-7.397147-1.0902445-11.0727417-.6088172-4.8601792,1.5277229-3.5705858,2.6890965.0637111l.744898.4621556Z"/>
  <path class="st59" d="M241.9921875,164.6484375c.7717736,4.4320875,1.5045406,8.601642,2.9296875,12.890625.3022049,1.9084516.1068924,3.0803266-.5859375,3.515625-.0180049.1469582-.5610142.6440654-.6095024,1.4187262-.3154677,5.0399894.7784946,10.0989961-1.1556745,14.9831696l-3.407496-7.4206293c-.8074623-.7339833-5.860894-11.2664697-6.5390225-10.7376899-3.0169694,7.7621523-7.6447885,16.1098222-12.6553802,22.799504-6.9832279,9.3233643-14.6532655,14.9347856-25.4376118,19.3866069-.6947065,1.7570453-1.5837929,1.1276716-1.171875-.5859375,21.6790291-18.362822,32.7844203-28.8232462,40.7215273-57.423004l4.3956602-21.6785585c.2283926,2.5165008.4684037,2.3754187.7200331-.4232463l.8427855-.2736606c.8613284,7.8023294,1.5122639,15.6518192,1.9528065,23.5484694Z"/>
  <path class="st48" d="M251.3671875,189.84375c2.0354796.2013011,3.0081325,2.4480512,1.7578125,4.1015625-.9567593,1.7658041.0913371,3.9530294-.0018945,6.138495-.6093713,14.2844199-11.1035074,31.536862-26.3623699,33.1133407l6.4578951-2.6152396c14.3961602-6.7866324,16.5826614-25.6663768,15.211211-39.8515948-.124526-1.2880002-.3978256-3.8354778-1.7501542-4.4021889v10.8398438c0,2.4138442-2.2650131,10.0295951-3.248126,12.5721865-4.8219025,12.4707217-18.1014935,21.2377799-31.3193713,22.2850107l9.3623692-3.2263877c12.4672893-4.8329436,24.6191907-20.3561708,24.6191907-33.9745594v-9.375c0-.6869047-.9762912-3.9210342-1.7578125-4.3945312.1329779-1.0853815-.4870162-2.8582003.5859375-3.515625,1.8243777,5.4904689,4.0384762,7.7040929,6.4453125,12.3046875Z"/>
  <path class="st0" d="M194.53125,221.484375c.0318267.0718092-.734739,1.0737384-.5891248,1.1665343,8.0166696-2.1277392,15.634797-5.213684,22.4535936-10.0637842,1.4035613-.9983305,5.3573357-4.885165,5.9753769-5.1604264.2562845-.1141432.9607217-.1495096.8681955.2852847-4.2013428,5.2025112-8.2863159,9.0723407-14.4240669,11.9430847-13.2822807,6.2123778-18.6673197,6.8283842-30.6984868,16.7623674-1.8786662,1.551191-2.3443343,3.1349299-4.6792376,3.8169395,5.3222251-7.6033164,12.8963664-13.38511,19.921875-19.3359375.1952005.4834567,1.1453306.5260465,1.171875.5859375Z"/>
  <path class="st65" d="M247.265625,230.859375c-.8234352.7765252-1.1250342.4491381-.5859375-.5859375,9.0327932-10.65433,11.1449483-23.1153185,6.4453125-36.328125-.4961601-1.3949308-1.0766964-2.7996296-1.7578125-4.1015625.9931976-.5580772,1.6492618-.7617865,2.34375-1.7578125,5.8229571,14.76697,4.4102259,30.7866563-6.4453125,42.7734375Z"/>
  <path class="st85" d="M158.203125,242.578125c1.5043414-10.9981878,6.398289-20.9297893,14.939835-28.1263871.6575399-.5540039.9537151-1.4205176,2.0521471-1.1647161-4.6648746,4.8713059-8.4691202,8.5123628-11.2344699,14.8337717-3.2418359,7.4106253-3.5856277,13.132138-4.5856372,20.902644-.2281869,1.7731111-.7450939,4.0736088-1.171875,5.859375v-1.171875c-.483397-3.7067669-.5510521-7.4351527,0-11.1328125Z"/>
  <path class="st75" d="M258.984375,195.703125c-1.0962905.6109194-.5177462,2.1031965-.4179415,3.042927,1.1296434,10.6363749,2.5124916,17.8093242-3.2132775,27.6031977-.7909049,1.3528353-4.3173231,6.3452053-5.4586562,6.849022-.2585813.1141451-.9617193.1488484-.8681851-.2852745,8.1987178-8.6269098,9.9870386-19.4711915,9.3665254-31.0520927-.098015-1.8292962-.9920342-3.6014078-1.1662776-5.5718421-.0212678-.2405077.8984962-2.8007419.0058452-4.1013956,1.4312177.5158652,1.35061,2.3489966,1.7519673,3.5154581Z"/>
  <path class="st77" d="M247.265625,230.859375c-1.3956837,1.5411262-3.0816894,3.5715078-5.2732342,4.0957886,1.1918461-1.9349331,3.2393213-2.9738149,4.6872967-4.6817261l.5859375.5859375Z"/>
  <path class="st12" d="M278.3203125,52.1484375c.2520025.573506.525947,1.1188856.5859375,1.7578125-15.2066763-.2434755-29.3855873,7.5654218-33.3984375,22.8515625-1.1762908,4.7540114-4.78146,7.646733-3.32445.6900865l-.191175-1.276024c.1585632-.836171,1.0092006-2.2713387.2958585-2.9267609-6.1998368,6.3365582-8.9636901,14.8223967-10.256796,23.4345734-.8171891.0341806-1.0125016-.7470694-.5859375-2.34375-.4921053-.4237349-.9207294-.9791981-.7868606-1.5768692,3.0527108-13.6291381,9.200816-28.5311047,20.1266411-37.796009,1.5874233-1.3461065,3.8944203-3.2091021,5.8555319-2.2286843,6.2919611-1.6674806,12.8789099-1.9044431,19.3359375-1.171875.5266767-.8184464,1.3079267-.6231339,2.34375.5859375Z"/>
  <path class="st15" d="M278.3203125,52.1484375c-.9105777.158473-1.6106455-.379845-2.34375-.5859375-6.4659426-.7237872-13.0234498-.4826355-19.3359375,1.171875-14.1491504,6.6957119-23.3409406,26.7904258-25.1953125,41.6015625.104275,3.1599916-.0910375,6.2849916-.5859375,9.375-.6383633.7603665-.716222.3380337-1.0962236-.3681281-1.8871692-3.5069495-.5872046-8.5986079.3031012-12.4367068,2.3037-9.9312272,6.8903961-20.4271369,13.1153197-28.4862492,1.2377106-1.602405,5.8049278-5.7236377,6.3443771-7.1336742.7028486-1.8371369-.9225609-1.1681852-1.6743868-1.9658667,8.0792349-7.4472188,16.1967035-9.006501,26.519855-4.5469667,2.4227817,1.0466259,2.8708515.9216854,3.948895,3.3750917Z"/>
  <path class="st20" d="M238.4765625,103.7109375c-.0749589.3452337.1203536.7358587.5859375,1.171875,1.5560994.1867076,1.4887898.7258688,0,1.171875-.5567416,2.0208961-.5567416,4.1693336,0,6.4453125,1.8878161.4984451,3.4826901,5.2412299,1.7578125,6.4453125,1.716434.4448708,1.605967,2.4168026,0,2.9296875,1.5979428.5347917,1.591467,1.2283569,0,1.7578125.5252207.1081035.5040274.306935,0,.5859375.2125804,6.8208431.4078929,13.6567806.5859375,20.5078125,1.624024.1445613,2.7277384,3.2886359,1.171875,4.1015625,1.0757813,1.9291698,1.6617188,3.6869823,1.7578125,5.2734375-.0266605-.0314566-.3022137.5779298-.8238429.0374547-.824836-.8546364-1.006223-2.6329883-2.0998289-2.9642587-.4710404,4.3527321,2.1525582,9.3645558.5799218,13.473679-1.3180129-7.5689921-2.3613246-15.7763118-2.3497013-23.4345528l-.5859384,2.9238222c-1.0273061.1193871-.5564601-1.6533792-.5799853-2.3408318-.2040246-5.9619968.9977347-12.2478178.6104864-18.4815807-.2375641-3.8242086-1.5090762-8.0061845-1.7729185-11.7036493-.5997771-8.405229,1.032822-14.0072095,2.3343071-21.9632075.4794677-.2101937,1.1694563-.4541322,1.4159997-.1622754,1.5082971,1.7855143-1.1162432,12.0177617-2.5878747,14.2247754Z"/>
  <path class="st23" d="M241.9921875,76.171875c1.5294807.7250831-.2829055,3.8566847.0020201,4.0975464.3589904.3034722,1.5623575.0379614,2.0342264-.5961859.2958642-.3976135.5654795-4.3375453,1.4793784-2.915423-1.5158173,5.7741992-2.4215778,14.242938-3.3653068,20.3729795-.2932255,1.9046617.0344244,1.2602765,1.6074943,1.306708-.8601432,1.6778205-3.2788096,4.8860259-5.2734375,5.2734375.6514191-3.2773403,1.3067025-7.5916108,1.689318-10.9213294.1098834-.9562618.480714-2.5418424-.517443-3.1411706.7387783-4.5161628,1.4916712-8.9831883,2.34375-13.4765625Z"/>
  <path class="st42" d="M230.859375,120.1171875c.8645891,14.1658166,1.0799085,27.7652278-4.2388662,41.17129-1.2143569,3.0608071-2.9975242,6.0279745-4.5473289,8.9322355-1.3063578.613036-.3205792-.854871-.1197659-1.2944025,1.005146-2.2000211,2.4568849-4.4015976,3.3295103-6.6316675,5.0905872-13.0094371,5.6375654-27.7151569,4.9905133-41.591518-.4778933-.7279054-.2209478-1.0066469.5859375-.5859375Z"/>
  <path class="st25" d="M224.9925859,160.5424648c-.9869741.1596622-.6400118-1.419291-.5734529-2.0362803.5297914-4.9110706,1.8848719-10.1005416,2.334039-15.2491062.5046689-5.7847528.1366345-11.9455387.5872483-17.5767867.0545781-.6820534.1816938-2.6269103,1.1692459-2.6304762-.0641921,12.5442349-.8004892,25.2361282-3.5170803,37.4926494Z"/>
  <path class="st25" d="M230.2734375,120.703125c-.0024183-.0518617-.5235407.0591713-.5708579-.8673603-.2260767-4.4268699-.7269292-8.7708992-.5979467-13.192102.7229328-.951425,1.0609397.010549,1.1700066.8653938.3211274,2.5169312-.174162,5.6109158-.0255578,8.2352587.0837635,1.4792594.5156746,2.8225976.6102933,4.3728723l-.5859375.5859375Z"/>
  <path class="st25" d="M232.03125,96.6796875c-.3000778,1.9985393.2645588,5.3202869-1.171875,7.03125.1786908-2.5871994-.2465125-5.4068981-.023206-7.9554339.0674403-.7696777.5911203-1.2756126.6091435-1.4195661l.5859375,2.34375Z"/>
  <path class="st71" d="M158.203125,253.7109375c-.8767284-2.4884851-.8416929-6.5374367-.6286037-9.1513004.0872658-1.0704478.5889115-1.6913237.6286037-1.9815121v11.1328125Z"/>
  <path class="st89" d="M301.7578125,55.6640625c1.8734733-.4155012,14.4200976.6463289,15.2313236,1.7777496l-.585975,1.1478483c2.2279039-1.1713882,2.7256467.8224573,3.0687095.9748558,3.6190923,1.6077074,4.6994097,1.5794274,6.8953169,5.4745463l7.8529867,12.7783835c.6787178,1.1472133.5527083,1.5467387-.8217367,1.2841165-.334506-.2711049-2.2427348-1.8685853-2.3379805-1.7576052l1.1710142,2.6246537-.5908463.3048265c-9.5609322-11.2994062-16.3687333-19.1546635-31.0546875-23.4375.3328856-.2400803.9224893-1.1165659,1.171875-1.171875Z"/>
  <path class="st84" d="M339.2578125,84.9609375c-1.8351784-1.9052833-3.8678829-4.2453433-5.859375-5.859375.9097274-1.1021839.3198478-1.4738481-.1963332-2.4121811-2.1396197-3.8894796-4.666802-7.8044984-6.8349168-11.6503189l12.890625,19.921875Z"/>
  <path class="st18" d="M358.59375,338.671875c-2.6920743,6.9846933-6.0039421,11.7368355-8.8908496,18.3552442-3.2516872,7.4546882-5.2362103,15.6062451-8.4129822,23.2276428-3.7065972,8.8925021-8.2463808,17.3800824-11.9930432,26.385863-1.2968982.1206227-1.8391961-.1843891-2.5906693-1.2188627-10.9094383-15.0178689-15.3868861-33.8598767-2.6654274-49.4473903,8.6154979-10.5565088,18.7656068-8.9399139,29.2865904-14.0728038,1.8694626-.9120579,3.1132783-2.8029425,5.2663813-3.2296932Z"/>
  <path class="st73" d="M309.375,176.3671875c7.2624998-.5800517,15.1459443.9623804,21.3808608-4.1073831.5669384,7.4033239-11.4641764,8.5533611-16.8463094,10.6927157-9.1027816,3.6182825-20.2929499,16.2211247-29.2079033,22.3545864-2.0786923,1.4301342-4.3062073,3.5227387-6.9672731,3.2866434.5194764-5.032741-.588263-17.9525165-5.8587995-20.2154192-5.0213035-2.1558946-7.7358839-.0315962-12.305263-4.9798933l1.6830515-.8272076c8.2884002.8042865,16.4893473-.4348943,24.6028414-3.7175423l10.0422321-1.3146251c4.0647122-.6717689,9.2586148-.8349899,13.4765625-1.171875Z"/>
  <path class="st53" d="M343.9453125,195.703125v7.6171875c-.3160039,17.1285531,9.278108,32.0091399,16.40625,46.875v.5859375c-.1128157-.0982819-1.2401478.1957928-2.040773-.5749135-7.5912289-7.3075488-16.9119196-39.6989963-16.1232895-50.401649-.0477976-2.2124735.0863906-4.4441178.3642059-6.6340661l.8076691-.3971839c.1663153-.5116404.3620499-.5041927.5859375,0,.278493.9505096.278493,1.9270721,0,2.9296875Z"/>
  <path class="st37" d="M348.046875,151.171875l.6740692,3.1697713c-.5872105,6.0475777-1.5931502,12.0222372-3.0178192,17.9239787-.3633863,4.1007609-.9841589,7.4824281-1.171875,11.71875-.1945715,3.0032369-.389884,5.9329244-.5859375,8.7890625h-.5859375c-1.4507827-6.5013063-.5401526-14.4993456.5859375-21.09375.5230438-5.9364342,1.4243449-12.2651521,2.34375-18.1640625-.8804935-1.4383495-.685181-2.414912.5859375-2.9296875.3795006.1245576.8552656.5475946,1.171875.5859375Z"/>
  <path class="st52" d="M343.9453125,171.6796875c-.621118,7.0495552-.269605,14.0540571-.5859375,21.09375-.1136392,2.5289382-1.0204731,4.9765447-1.171875,7.03125-1.4874413-8.5018494.2701533-17.4338932.583385-26.1032036.0407744-1.1285121-.5934362-2.3489062,1.1744275-2.0217964Z"/>
  <path class="st81" d="M346.875,150.5859375c.5274968,1.1608865-.4898159,2.3129708-.5859375,2.9296875-.1403013-1.6315484-3.8321844-2.5926414-5.2734375-4.1015625.1210476-.8701808-.3565071-2.303617.2901008-2.9267876,1.7999795,1.9567329,2.9801674,3.24888,5.5692742,4.0986626Z"/>
  <path class="st80" d="M269.53125,117.7734375c-.9981991,2.3563922-3.2795503,4.5167471-3.515625,7.03125-2.0238957,4.8633168-1.5331404,8.702494,1.472266,11.5175315l-.300391,1.3730935c1.3653088,1.3676141,3.6762197,2.8685402,5.2734375,4.1015625-.1378175.9335039-.9346743,1.4488215-2.3905706,1.5459529-2.088353,2.4324391-4.0258711,5.0421215-5.8125544,7.8290471,1.6105804.947063.362869,4.4686805-1.171875,5.2734375,1.4430289.3542378,1.2828732,1.2479908.5859375,2.34375.9461851.237668,1.3368101.628293,1.171875,1.171875,3.05165,2.0208825,6.5667517,2.1892777,10.1006018,2.1679994l.4462732.7616881-2.7772384.7566487-6.0118241,5.1027263c-8.5604585-2.2017342-13.4028965-9.3106285-18.1211664-16.4243624-4.4719226-6.7423161-8.4021117-14.0731574-2.8619658-21.5469327,3.1340032-1.9382753,5.7993867-3.8415826,8.0925072-6.5599549l.0270335-.678538c1.8858517-.5017672,3.6664974-1.2479959,5.3419372-2.2386859.3105326-1.3029898,1.2552507-2.2837068,2.8341543-2.9421512,1.4767367-1.3229142-3.4285191-2.5227894-4.9183711-2.1462734l-.3550664-.7834141c-.7323468-.2777759-1.2492518-.9079853-1.550715-1.8906284-6.7135307,1.3110239-9.6227691-.5914192-7.3095326-7.6327318,5.2029426-1.5874357,10.3588726,1.1565574,14.5595518,4.0739378,2.4644719,1.7115808,7.0426003,5.0299581,7.1913208,7.7931724Z"/>
  <path class="st68" d="M308.5702952,128.6929693c.8300937-.9138313.8135679-1.4378948,2.1447905-2.2570848,3.5772994-2.2013507,18.0441545-8.4961259,22.076581-9.5562731,10.9855912-2.8881726,3.988469,14.2151255,1.087033,18.6592446-4.245384,6.5026394-10.8044828,8.0434182-18.2756567,7.3546162-6.0582217-.5585354-10.4107061-2.0284774-9.7429382-9.011585.2920366-3.0539397.9898803-3.2950676,2.7101904-5.1889178Z"/>
  <path class="st61" d="M243.1640625,123.6328125c1.1798294-.9345666,1.7657669-.9345666,1.7578125,0,1.5499849-.8205549,2.1623181-.4472523,3.4788065.5385932,2.1108027-.4737197,3.8808881-.4579383,5.310256.0473443-.3684653,5.470205-6.6075894,4.9944375-8.6556348,9.2154422-1.077303,2.2203127-.9687779,7.116977-.460528,9.5685741.7794687,3.7598497,12.0804074,19.371586,15.3663797,21.5478002,2.1529918,1.4258706,6.2725864,1.780895,6.640408,4.1994335.8230521,5.4118165,1.0510775,7.1413529,6.8708103,9.2430436l22.4260647-.4539811c-12.1652788,2.0105374-23.6109989,9.0469675-36.328125,5.859375-4.2623926-4.6158537-5.5925709-11.8248466-8.203125-17.578125-1.4161592-4.4923717-3.7290886-8.7456332-6.9387882-12.7597843l-1.8502743-4.2324032c-.3699685-1.2024265-.8981694-2.4469146-1.171875-4.1015625v-1.171875c.6987334-5.6708797.3954528-11.7783069,0-17.578125-.2417111-.5139901-.4370236-1.0999276-.5859375-1.7578125-.0059868-.1951324.00719-.3909164,0-.5859375.4191027-1.3090711,1.9841473-1.3931377,2.34375,0Z"/>
  <path class="st21" d="M256.0546875,97.265625c.1898895.0224422.7776183-.7701884,1.7278618-.316188.5251438.2508993,4.4961492,4.7961393,4.712698,5.3043991.7116296,1.6702599-2.5285208.1419369-2.3354391,1.4505364,4.1247591.3243517,7.3223852,2.7443993,9.2658992,6.2648637,1.9532912,3.5381747,1.5799809,4.3235779.1055426,7.8042013-5.9899395-5.4537314-12.1807761-11.9877483-21.0963844-11.135451-.9324906,9.4526044,1.8267665,4.9131301,7.8669738,5.8513084.7363789.114376.1784126,2.2377418.3387856,2.9403926-1.3074815,1.3672159-3.1970893,2.0962094-5.6688234,2.1869806-2.4914671,1.9145689-4.5081093,2.3574504-6.0499266,1.3286444-1.1420327,1.6576434-3.0699311,1.7822413-4.1015625,0-.3144913-2.0186415-1.2780202-4.2224795-1.7578125-6.4453125-.5301715-2.1888003-.5301715-4.3372378,0-6.4453125v-1.171875c1.2102501-4.7886788,9.1639855-3.0425494,12.890625-1.7578125l.9686253-1.1887432,5.5891005-.2354696c-2.2791086-1.6481269-3.0978297-3.1265143-2.4561633-4.4351621Z"/>
  <path class="st31" d="M295.3125,152.9296875c-2.8771107,2.0843272-3.7085458,3.5951049-7.6171875,5.2734375-8.12766,2.7691449-15.94016,2.9644574-23.4375.5859375-2.0498814-1.3948708,5.3454126-5.6743896,6.4722669-5.7274114.4412477,1.0331807,2.8843494.7479208,2.9027331-.1319636,3.0555303-2.480985,6.6494604-3.4794642,10.546875-2.9296875,3.237417.0704045,7.6256643,1.1528431,10.9288182,2.2073395.1314671.0419695.1796311.3448813.2039943.722348Z"/>
  <path class="st50" d="M297.65625,151.7578125c-2.5023157,1.0110665-6.8915602-.2246915-8.7890625-1.7578125-7.7760374-6.064438-16.4771746-3.9085052-23.4919246,1.9848477l-1.1174504-.8129727c.841044-2.8840725,2.7562913-8.0634864,5.8521325-9.113952.9065794-.3076161,1.739662-.1023644,2.3509925-.261048,1.7026008-.4419458,4.4474224-1.5661169,5.6114094-1.7334356,5.9169604-.8505403,15.1328767,8.1520637,19.5839031,11.6943731Z"/>
  <path class="st80" d="M285.7922456,122.319153c-4.8582148,4.770819-10.5813021-7.3662824-13.0410109-9.8184846-1.5726297-2.2599871,3.0552977-3.0555192,4.4258704-2.6818759,2.4537463.6689362,11.3839026,9.7814065,8.6151406,12.5003606Z"/>
  <path class="st24" d="M357.421875,138.28125l-.2901886,1.169171c-1.9040096-2.4605363-2.2111345-7.6264303-6.1550502-7.60858l1.7575347,2.3320733c-.7549157.6700328-3.7341846-3.3984049-5.1976722-2.2265462-.2929649.2345859.323983,1.3074018-.6555445,1.0574916-.1399249-2.1174375.1716657-4.3379073-.0059542-6.4423597-1.5054558-.3647736-1.8854704-2.293181-1.171875-3.515625,1.3710814-1.2626269,5.7461153.7355169,6.9771336,1.5189997,3.8647746,2.4597397,4.834813,9.462628,4.7416164,13.7153753Z"/>
  <path class="st17" d="M293.5546875,86.71875c9.1628604-5.3294297,20.2139996-2.7788299,27.5361017,4.3974574l-10.2264898-3.2505321c-6.2634217-.583567-8.997229.4061412-14.3799244,2.9546372-.4718252-1.6082654-1.5261646-2.6707445-3.163018-3.1874373l.2333305-.9141252Z"/>
  <path class="st87" d="M292.3828125,109.5703125c-.6000326.3264642-.9416173.7769419-1.7576085.5802049,2.749805-3.8241553,7.2870366-5.620401,11.6993946-6.7745849.8385917-.2193587,1.5425238.3672712,2.0108531.320078.1563751-.0157578.5709796-1.6939703,2.5847438-.9566575.1782697.0652711-.1584794,2.189623,2.4495229-.2005718.1378516,2.8190262,1.2254429.1887251,2.6457824-.5817955l-.294599,2.336027,2.9221894-1.7532956-.5784206,2.3392511,4.096433-1.4639235c-2.037705,1.7896431-4.2690723,3.3766808-6.4423537,4.9833928-1.0804356.8110414-1.4113908.476337-.5859375-.5859375.042429-.2574227.7794684-1.0141581.5904416-1.1652954-.094578-.0756203-1.6713227-.3543096-2.3482541-.5925171-.7363894,1.055702-1.3143397.8749223-2.3185064.4166454-.157671,2.9721555-4.5008992,3.1292997-6.2198145,1.3674441l-1.4226167-.026277c-2.1288563-.31044-3.1590047.0897957-4.8048076,1.677259-.6796022.2781157-1.5696325.4037734-2.2264424.0805535Z"/>
  <path class="st55" d="M256.0546875,97.265625c.3029664,1.1486076,4.9055655,4.3683886,4.0999626,5.2693886-2.7555433.7770548-5.4139015.5068972-8.2015251.5899864-1.5532233-.5352424-3.1786163-.9258207-4.8761788-1.1717351-.2159063-1.5121952-.9342633-2.6841168-2.1550712-3.5157649,2.7184587-1.2005276,6.375393-2.060745,8.7844741-.0013874-1.2774401-3.0151638.2643589-1.4167839,2.3483384-1.1704876Z"/>
  <path class="st81" d="M352.734375,151.171875c-3.5055634,5.6805781-3.9926601,14.9874273-7.03125,21.09375.6221873-7.0212922,1.1120647-14.114956,2.34375-21.09375,1.5017271.1818665,2.896947-.2042094,4.3468936-.4486554l.3406064.4486554Z"/>
  <path class="st64" d="M293.5546875,86.71875c.0531667.0083094.2067433.5716081.7503309.4997268.9325078-.12331,2.048966-1.4713132,3.3511408-1.0797769l-1.7548122,2.0477616,2.3407079.2959402-1.7576799,2.3379108c-2.4012319,1.1368895-4.5017858,2.459947-7.03125,3.515625-5.5704319,1.9797778-3.2268648-4.9728045,0-5.859375,1.5774198-2.1003545,2.0061229-2.0853072,4.1015625-1.7578125Z"/>
  <path class="st83" d="M266.015625,124.8046875c-.1051339,1.4481888,1.4348073,1.4506139,2.3076512,2.727469.3505749.5128447.1159714,1.1716012.6220363,1.960031l.5154922,1.1609798c-.8319123,1.1593171-.4394973,2.3188798.0704453,3.5265202.5593456.2718614.9770918.7670127,1.7576789.5909053l-.005226.8656257c-1.0422272,1.2853454-2.3923349,2.143803-4.0962029,2.059094-.7850773-.7864029-3.4228723-3.5819042-3.5332719-4.426189-.0854905-.6537913.8803999-8.7199784,1.195852-9.0498488.2102693-.2198801.7417513.5845761,1.1655449.5854129Z"/>
  <path class="st27" d="M289.453125,88.4765625c-.6865079.914094-2.3867545,4.4678296-2.3485064,5.5617011l2.3485064.2976739c-.6047132.2523785-9.2190508,4.2968812-9.3818978,2.6304827l1.1862161-6.7276053,1.1585787,3.5083377.887673-4.0957698.5803697,1.752179,2.9352524-3.5107166.2950059,1.1659178c1.3089352-.2856706.9628193-3.2215727,2.338802-.5822005Z"/>
  <path class="st46" d="M244.921875,98.4375c1.4853975-.1695532,3.1683167.116144,4.6845745.0059512.2010765,1.1318669-1.3900514.2934318-1.7085249.626744-.1241788.1299647-.1672438,1.9200638.0326322,2.2183019.40481.604023,3.6395196.2292152,4.0225682,1.8365029-2.9444851.0877647-6.9236216-.4153442-9.635844.0296811-1.6074597.2637543-2.168519,1.3248241-3.254781,1.7281314-.0546849.0203034-.4980823-.5321806-1.1666472-.0012047-.2740663-.7729814.5679717-1.1065846.5807097-1.1706703,1.5859134-2.0778415,2.3717339-4.7283752,5.2734375-5.2734375.3510405-.0659402.7911749.0434556,1.171875,0Z"/>
  <path class="st31" d="M275.390625,162.890625c-4.7136758.2109285-7.2127835.5052155-10.546875-2.9296875,6.4313522.6138435,12.9019951.7933393,19.3359375-.5859375,1.1169479,1.2847307-.2064085,1.6326435-1.1660469,2.0578966-2.4813872,1.0995994-4.9691039,1.3389706-7.6230156,1.4577284Z"/>
  <path class="st43" d="M287.6953125,158.203125c-1.03001.4422763-2.4141768.8435666-3.515625,1.171875-6.6852702,1.9926769-12.5332043,2.4435857-19.3359375.5859375-.388794-.4005498-.7830942-.4548083-1.171875-1.171875.1663153-.5116404.3620499-.5041927.5859375,0,6.0809302,1.2989716,11.5677961,1.5783529,17.7223921.4369884,1.7303892-.3208992,4.1756881-2.2456536,5.7151079-1.0229259Z"/>
  <path class="st3" d="M299.4140625,107.8125c1.1689842.0310093,2.1455467.8122593,2.9296875,2.34375.819757-.3814014,2.1837688-.3786514,2.34375.5859375-.3906058-.001791-.7812824.0026802-1.171875,0-3.303473,1.236303-7.6364157.3808665-11.1328125-.5859375v-.5859375c2.8038794-1.5255273,4.7953644-4.9121397,7.03125-1.7578125Z"/>
  <path class="st2" d="M309.375,106.0546875c-1.3731667,2.0230132-1.5628809,2.8542639-4.1015625,3.515625-.4414671.472183-1.4180296.6674955-2.9296875.5859375-.4767129-.1282882-1.0506657.1437754-1.7454445-.2904658-.6819821-.4262432-.7855514-1.4908208-1.184243-2.0532842l1.467657-2.3410411c.4659747,3.4495386,7.619356,3.9034612,3.8059295-.5827928,1.6871514-.0395795,3.1460852.6236606,4.687351,1.1660214Z"/>
  <path class="st62" d="M275.97846,128.3232397c.3736581-.3694056,6.214216-.3168641,5.8172938,1.9727432-.5843161,3.3705704-7.3758192-.431955-5.8172938-1.9727432Z"/>
  <path class="st68" d="M345.703125,123.046875c1.1558554,1.388426,1.0329478,1.8696068,1.171875,3.515625-.7001499.0506282-1.9538877,2.4629999-2.6471677,1.1824742-.7405885-1.3679072-.4579698-4.8638564-.8684573-6.4559117.6126643.5501366,1.8842933,1.2059081,2.34375,1.7578125Z"/>
  <path class="st33" d="M288.8671875,150c2.9052813.6207433,5.7400281,1.8346617,8.7890625,1.7578125.0406501.9884291-1.8418184.8082499-2.34375,1.171875l-11.1328125-2.9296875c-.5116404-.1663153-.5041927-.3620499,0-.5859375.6144563-2.2806161,3.3277408-.6372562,4.6875.5859375Z"/>
  <path class="st68" d="M342.1875,118.9453125c-1.1583834-1.0954187-3.3951627-3.8638392-3.8345101-5.2526572-.4253234-1.3444868-.0431878-2.5820297-.2670524-3.5364053,2.3303527,1.718809,3.2656957,6.030234,4.1015625,8.7890625Z"/>
  <path class="st69" d="M269.53125,134.1796875c-.1753867-.085244-.7277642.1492221-1.0210669-.1264368-1.2029515-1.1305871-.7796149-3.4817999.4351294-4.5610632.8005996,1.2473035,4.7856319,3.6327452.5859375,4.6875Z"/>
  <path class="st58" d="M303.515625,110.7421875c.3322997,1.7399579-.9076401,1.1656577-2.0316538,1.1796287-2.616279.0325192-7.096869-.2082884-9.1011587-1.7655662,3.847058.4600517,7.3153894.5597428,11.1328125.5859375Z"/>
  <path class="st68" d="M311.71875,108.3984375c-.5393832.3987673-3.8897879,3.6796939-4.6845008,2.9267096-1.0679506-1.0118751,3.7280061-3.0093323,4.0985633-3.5126471-.0548258.3326358.2023785.6756279.5859375.5859375Z"/>
  <path class="st68" d="M305.2734375,109.5703125c.8534402.6214723,1.474449.4774154,1.1689511,1.7546966-1.0120769.4222908-1.4596352-.4807225-1.7548886-.5828216-1.0910563-.3772893-1.5149026-.3628863-2.34375-.5859375.4855183-1.0728601,2.147774-.3822384,2.9296875-.5859375Z"/>
  <path class="st32" d="M363.8671875,147.0703125l.8789063,8.794965c.4738483-.0000469.3321044-7.7481216.2929687-8.794965,1.7365773,7.3957434-.3299881,15.0517158.0054407,22.55267.2287179,5.1146544,1.6628219,11.9151727,3.5101843,16.7051425.7922377,2.8630293.4016127,3.6442793-1.171875,2.34375-4.222912-10.1548111-4.2327104-17.292279-4.1015625-28.125.0513833-4.2442201.826476-8.9061396.5859375-13.4765625Z"/>
  <path class="st4" d="M343.9453125,195.703125c.0000561-.9764877-.0025105-1.9532078,0-2.9296875.0071525-2.7820117-.4988219-6.3753407.5859375-8.7890625-.1680605,3.7927411.6179154,8.1528176-.5859375,11.71875Z"/>
  <path class="st79" d="M368.5546875,186.328125c5.1027669,13.2308094,14.4236263,25.667613,21.5557274,37.9169389.7700021,1.3224724,1.9529462,2.6702187,1.8758883,4.2704681-3.5921961-4.8078636-7.7491017-9.4249733-11.014929-14.467375-4.3660855-6.7411883-10.5245186-18.0081958-13.5885618-25.376282,1.0755202-.3049483,1.2721547-1.3215134,1.171875-2.34375Z"/>
  <path class="st80" d="M251.3671875,165.8203125c-1.8816979-4.1469862-4.0517006-8.2031876-7.03125-11.71875-1.224846-1.6026999-1.2342899-3.5719484-1.7578125-5.2734375l7.9182127,12.882211c.3448032,1.1150365,2.3157084,3.0104565.8708498,4.1099765Z"/>
  <path class="st66" d="M275.9765625,51.5625l-19.3359375,1.171875c6.2733544-2.9686994,12.7580245-3.0210769,19.3359375-1.171875Z"/>
  <path class="st5" d="M241.40625,125.9765625c.520285,5.8518003.4716566,11.7214849,0,17.578125v1.171875c-1.1072556-6.6937553-.3756826-13.6548214-.5859375-20.5078125.7734023.4077739.443927,1.1943561.5859375,1.7578125Z"/>
  <path class="st9" d="M244.921875,118.9453125c.6669382.888532.4716257,1.4744695-.5859375,1.7578125.2826248,1.5920831-2.8048457,2.9730924-3.515625,1.171875-.0467553-.8330318.0451237-2.64005,0-2.9296875,1.2443945-.1725212,2.9700967.2483296,4.1015625,0Z"/>
  <path class="st80" d="M244.3359375,120.703125c2.9725382-2.4891156,1.9312202,2.641357-1.171875,2.9296875-.7757722-.0486486-1.5659064.033077-2.34375,0-.0215323-.584039.0326992-1.1752156,0-1.7578125.8285913.0021443,3.3152025-.4183334,3.515625-1.171875Z"/>
  <path class="st46" d="M239.0625,112.5c-.3383891-1.567725-1.8013707-5.6659554,0-6.4453125v6.4453125Z"/>
  <path class="st36" d="M288.8671875,150c-1.3214239-.2823358-3.6437265-.7672375-4.6875-.5859375-1.5357754.3490346-1.7180256-.1084446-.5859375-1.171875-4.4386695-.9316506-11.4438951-1.1179569-13.3008101,3.9901366-1.3636572,1.3022724-4.7442763,4.5297654-6.3410879,5.244135-.1964499.0878863-.6396009-.6048177-.8659146-1.0311466.0497236-1.5675839.7187098-3.7194625,1.171875-5.2734375,2.27707-.7559816,3.56299-2.812264,5.8630056-3.8049812,2.8889272-1.2468993,9.2292295-2.3680035,12.1944336-1.6516184,1.6216012.3917744,6.279461,2.3366826,6.5519358,4.2847246Z"/>
  <path class="st5" d="M252.5390625,118.9453125c-.6706718-3.3841467,10.3801499-3.4230109,9.134356-.9341196-1.2797826-.4191565-1.199568-.3030958.240644.3481821-.2720241,3.2875285-5.4649466,4.9637646-8.203125,5.859375-1.2119336.3964024-4.284403,1.2074437-5.5882097,1.0668682-.2039246-.021987-2.5076521-1.5341763-3.2008528-1.6528057.4890163-1.8018716,2.8191917-6.5849118,5.2734375-4.1015625l1.0793483.6502444c-1.0006079,2.5860143,2.4755111,2.3493391.4097083-.2012209l.8546935-1.0349609Z"/>
  <path class="st14" d="M256.640625,115.4296875c3.4455784-.0086794,8.2257502.8487101,10.5463705,3.5101341-1.8458366-.4691941-3.3408272-.6862618-5.272933-.5804466-.2457901.0134611-.8310255.7125158-1.0947534.528823-.1304606-.0908689-.291194-1.1232604-1.0019367-1.6388263-1.9991454-1.4501606-2.3985208.0923133-3.6319223.3724534-1.7935643.4073688-3.4385446,1.3191878-3.6463876,1.3234874-.6234323.7936718-1.4332755.8157236-2.34375.5859375-.5077729.247445-1.3796803.1531772-1.9718423.6395979-1.2372345,1.0163039-1.6927719,2.7975012-3.3015952,3.4619646-.5202751-.0890362-1.1860252.0358567-1.7578125,0l2.340846-2.6395859-1.168971-.2901016c.0323124-.1214869-.9764984-.218498.5859375-1.7578125,3.4326351-.7533812,7.380837-3.5046978,11.71875-3.515625Z"/>
  <path class="st60" d="M283.59375,148.2421875c.0051181.5404275-.203296,1.0321432-.692494,1.0742985l-6.0021922.2797399c-1.97291.1044202-5.8270877,1.3463532-3.2662513,3.3334617l.3827931.6668061c-2.6626759.3176126-4.7147625,1.0442261-7.0124314,2.3704502-.8141489.4699302-2.9196129,1.6353551-2.7453617,2.8221187h-.5859375c-.5750696-1.0606576-.6278899-1.0211615-.5859375-2.34375,3.9383117-.4103246,6.5672741-6.6185304,9.8225144-8.0485835,2.3928075-1.0511795,8.7716473-2.069483,10.6852981-.1545415Z"/>
  <path class="st80" d="M241.40625,143.5546875v-17.578125c1.0598895,4.2053354.6519876,9.8485309.5961254,14.3638681-.0122613.9910798.3755746,2.6048517-.5961254,3.2142569Z"/>
  <path class="st6" d="M283.59375,148.2421875c.2332243.2333816.348209.8541155.5859375,1.171875v.5859375c-3.4854566,1.0052949-7.0440606,1.9950561-10.546875,2.9296875-.7796485.2080282-1.499644.6417491-2.3404116.5833117-.5746236-6.3757939,8.0140797-4.9793865,12.3013491-5.2708117Z"/>
  <path class="st38" d="M252.5390625,118.9453125c1.6688238,4.6007267,2.9748747,1.8285862,6.442483,1.7638848l-4.527496,2.2009908-4.8471059.1366387.5883689-3.5155768c.1273009-.0620356.2883767-.9043137,1.005458-1.102783.7730397-.2139572,1.266576.5183291,1.338292.5168455Z"/>
</svg>