<?xml version="1.0" encoding="UTF-8"?>
<svg id="Layer_1" xmlns="http://www.w3.org/2000/svg" version="1.1" viewBox="0 0 600 600">
  <!-- Generator: Adobe Illustrator 29.2.1, SVG Export Plug-In . SVG Version: 2.1.0 Build 116)  -->
  <defs>
    <style>
      .st0 {
        fill: #e7c5b4;
      }

      .st1 {
        fill: #f3b8a1;
      }

      .st2 {
        fill: #cf9886;
      }

      .st3 {
        fill: #ec857c;
      }

      .st4 {
        fill: #f2c3b0;
      }

      .st5 {
        fill: #c28572;
      }

      .st6 {
        fill: #351111;
      }

      .st7 {
        fill: #ee9787;
      }

      .st8 {
        fill: #d06b63;
      }

      .st9 {
        fill: #f1c2af;
      }

      .st10 {
        fill: #f0a693;
      }

      .st11 {
        fill: #f2c3ac;
      }

      .st12 {
        fill: #bb7663;
      }

      .st13 {
        fill: #f7e6e6;
      }

      .st14 {
        fill: #f4c5ad;
      }

      .st15 {
        fill: #fcb7aa;
      }

      .st16 {
        fill: #fcc1bb;
      }

      .st17 {
        fill: #c1826f;
      }

      .st18 {
        fill: #b46f59;
      }

      .st19 {
        fill: #c38a7a;
      }

      .st20 {
        fill: #f5c6b0;
      }

      .st21 {
        fill: #fdb5ad;
      }

      .st22 {
        fill: #cb9a84;
      }

      .st23 {
        fill: #ad6e5c;
      }

      .st24 {
        fill: #fbcdba;
      }

      .st25 {
        fill: #c67d6f;
      }

      .st26 {
        fill: #f0a390;
      }

      .st27 {
        fill: #dba38b;
      }

      .st28 {
        fill: #30120f;
      }

      .st29 {
        fill: #ba8273;
      }

      .st30 {
        fill: #fcbeb8;
      }

      .st31 {
        fill: #f4c8b6;
      }

      .st32 {
        fill: #c5826a;
      }

      .st33 {
        fill: #f0d1bb;
      }

      .st34 {
        fill: #eba792;
      }

      .st35 {
        fill: #e6c2a9;
      }

      .st36 {
        fill: #f6bfa8;
      }

      .st37 {
        fill: #814136;
      }

      .st38 {
        fill: #fdd3cf;
      }

      .st39 {
        fill: #eba088;
      }

      .st40 {
        fill: #f6c1a9;
      }

      .st41 {
        fill: #f3c5aa;
      }

      .st42 {
        fill: #de8573;
      }

      .st43 {
        fill: #b67a6e;
      }

      .st44 {
        fill: #f9c5bc;
      }

      .st45 {
        fill: #c16054;
      }

      .st46 {
        fill: #b7876d;
      }

      .st47 {
        fill: #b8544a;
      }

      .st48 {
        fill: #f1af9a;
      }

      .st49 {
        fill: #ef9183;
      }

      .st50 {
        fill: #8b4e3b;
      }

      .st51 {
        fill: #f6c8b4;
      }

      .st52 {
        fill: #c9836e;
      }

      .st53 {
        fill: #ab6150;
      }

      .st54 {
        fill: #fdc1bb;
      }

      .st55 {
        fill: #d89381;
      }

      .st56 {
        fill: #93604f;
      }

      .st57 {
        fill: #5a2620;
      }

      .st58 {
        fill: #954d41;
      }

      .st59 {
        fill: #f8ccb7;
      }

      .st60 {
        fill: #ebe8df;
      }

      .st61 {
        fill: #865845;
      }

      .st62 {
        fill: #a0564b;
      }

      .st63 {
        fill: #f2b39b;
      }

      .st64 {
        fill: #eea593;
      }

      .st65 {
        fill: #955145;
      }

      .st66 {
        fill: #c0534d;
      }

      .st67 {
        fill: #c0806e;
      }

      .st68 {
        fill: #a0675b;
      }

      .st69 {
        fill: #f5bca5;
      }

      .st70 {
        fill: #ebb2a0;
      }

      .st71 {
        fill: #e0a690;
      }

      .st72 {
        fill: #ba7d71;
      }

      .st73 {
        fill: #c75b54;
      }

      .st74 {
        fill: #aa6353;
      }

      .st75 {
        fill: #f0a994;
      }

      .st76 {
        fill: #f49d94;
      }

      .st77 {
        fill: #c6695b;
      }

      .st78 {
        fill: #742825;
      }

      .st79 {
        fill: #eba08f;
      }

      .st80 {
        fill: #d49b85;
      }

      .st81 {
        fill: #9d6455;
      }

      .st82 {
        fill: #9e4b3f;
      }

      .st83 {
        fill: #f1ae99;
      }

      .st84 {
        fill: #994c40;
      }

      .st85 {
        fill: #e47f73;
      }

      .st86 {
        fill: #8c4d3a;
      }

      .st87 {
        fill: #b97562;
      }

      .st88 {
        fill: #e6b9a5;
      }

      .st89 {
        fill: #823e32;
      }

      .st90 {
        fill: #5b1f1a;
      }

      .st91 {
        fill: #5d2622;
      }

      .st92 {
        fill: #e39484;
      }

      .st93 {
        fill: #bc7664;
      }

      .st94 {
        fill: #d9726a;
      }

      .st95 {
        fill: #934d3e;
      }

      .st96 {
        fill: #4d1512;
      }

      .st97 {
        fill: #732f28;
      }

      .st98 {
        fill: #a96856;
      }

      .st99 {
        fill: #fcb9af;
      }

      .st100 {
        fill: #b1775f;
      }

      .st101 {
        fill: #b77569;
      }

      .st102 {
        fill: #e48377;
      }

      .st103 {
        fill: #f7bea6;
      }

      .st104 {
        fill: #8a4d41;
      }

      .st105 {
        fill: #b57061;
      }

      .st106 {
        fill: #b6b3b5;
      }

      .st107 {
        fill: #c36355;
      }

      .st108 {
        fill: #b26d5a;
      }

      .st109 {
        fill: #e7aa97;
      }

      .st110 {
        fill: #efb59b;
      }

      .st111 {
        fill: #c88774;
      }

      .st112 {
        fill: #fbbaaa;
      }

      .st113 {
        fill: #f4c6ac;
      }

      .st114 {
        fill: #edc0a8;
      }

      .st115 {
        fill: #852e2a;
      }

      .st116 {
        fill: #d1977f;
      }

      .st117 {
        fill: #ebb5a0;
      }

      .st118 {
        fill: #702a27;
      }

      .st119 {
        fill: #f9ccb6;
      }

      .st120 {
        fill: #f8e1d0;
      }

      .st121 {
        fill: #f5998d;
      }

      .st122 {
        fill: #c27d6c;
      }

      .st123 {
        fill: #bc7262;
      }

      .st124 {
        fill: #b8846a;
      }

      .st125 {
        fill: #c13538;
      }

      .st126 {
        fill: #bf4f43;
      }
    </style>
  </defs>
  <rect class="st13" width="600.000061" height="600.000061"/>
  <path class="st38" d="M298.828125,478.7109375c1.2763367,1.4454956-.4253235,1.8926392-1.8861694,1.7662048,1.1072998,23.0102234,3.3274536,46.2436829,6.6604309,69.7003479,1.5117798,15.1403809,2.9921265,30.3745117,2.8909912,45.5591431-.0046997.7061157-.1976929,1.4144897-.4039001,2.1351929-.2082214.7276611-.5001526,1.4313354-.81604,2.1281738h-138.28125l.4463806-3.321106c8.6389771-21.5627441,17.117981-42.6254883,25.4370117-63.1882935l.4837952-1.4593506c5.2552338-10.1882935,12.4927979-19.9303589,20.5078125-28.125.7003021-2.323761,2.2769928-4.7357788,4.1015625-6.4453125-.0320282-3.2630005,3.5636139-7.9168701,6.4453125-9.375,3.4404755-7.2371521,6.5654755-14.6590271,9.375-22.265625l1.5227509-.5872498c20.9660797,3.521637,42.1381989,8.0142517,63.5163116,13.4778748Z"/>
  <path class="st112" d="M247.265625,384.375l.1561737,2.6490173c-5.7885132,23.041748-11.0032806,46.2275085-15.6443024,69.5572815l-1.4649506.940918c-12.2546997,4.052948-17.4227905,11.8631287-11.6365967,23.5301208.7071075,2.4688721.9706726,5.134552.0445404,7.6246643-18.1727905,25.5584106-35.7006531,51.5518799-52.5835876,77.9805908.5993195-1.0200806,1.3982086-1.7506714,2.6131287-1.8137817,3.3132782-.0041504,1.2913361,7.9465942.6413116,10.1298828-2.7764587,7.8637085-5.4321747,15.7598267-7.9671478,23.6883545l-1.4632263,1.3380127h-29.296875c2.4004211-10.8742065,8.1332092-20.5278931,12.4079132-30.6585083,18.0141907-42.6916504,31.4391937-87.1186523,49.1155243-129.8883667,3.6440277-6.1522522,6.4814148-12.6795349,8.5121765-19.5818787,1.9929199-3.3300171,3.0617828-7.1542664,3.2065735-11.4728088.6008759-2.1000366,1.2094727-4.3370972,1.7578125-6.4453125,1.716507-2.323761,2.511673-5.2302551,2.3854828-8.7194824.9586792-3.5969238,2.1573334-6.539978,6.4564819-4.7526855l19.0864716.5819092c6.0479431,1.704895,10.847168,2.3950806,11.8434753-5.1306458.9773102-1.3781738,2.2904663-1.199585,1.8296661.4428101l-.0000458-.0000916Z"/>
  <path class="st16" d="M335.7421875,484.5703125l1.4877319.5061951c.6473389.6047668,6.7080078,15.1492004,6.9196777,16.3106995.1380615.7574768.0578003,1.7788696-.2042847,2.519043-.5506287.6092224-1.1634216.8597412-1.597229.2096252l-3.3840942-5.598938,22.9545898,100.5155334-.9810791.9675293h-28.7109375c-.3821411-.4362183-.7453918-.8839111-1.0424805-1.3718872-.288147-.4732666-.5549927-.942749-.6724243-1.4447632-3.3592224-14.3568115-6.242218-28.9520874-7.0957336-43.5108032.7843933-2.15271.6672668-3.6882935-.3513184-4.6067505-2.2146912-9.7226562-2.4628906-19.0036621-.7446289-27.8429565-1.0241394-2.4017334-1.6624756-4.9494019-1.9150391-7.6431274.6406555-9.4703979,1.0641174-19.0358582.2196045-28.5783386-1.2647095-.5979919-1.4154053-1.4441528-.1166687-2.1888123.3656311-.3546448.7247009-.6246643,1.0608521-.5986023,4.5619202.3536377,9.878479,1.3247375,14.1735229,2.3564148l-.000061-.000061Z"/>
  <path class="st99" d="M305.859375,480.46875c.6617432,1.5114441,1.3066406,3.065918,1.5028381,4.7156372,3.4160461,28.7215576,7.5136719,57.2741699,11.9146423,85.8725586.9274902,7.993103,1.8452148,16.0180054,2.1867371,24.0622559.0339966.8005981-.1111755,1.6115112-.2719116,2.432251-.1623535.8290405-.4108276,1.6411743-.6838989,2.4484863h-15.234375c.2299194-10.6685791-.39328-21.295166-1.1765137-31.9289551-1.9804077-26.8869019-6.9567871-54.791748-8.2226257-81.4259033-.0531921-1.1192627-.2469482-7.0984497.0226135-7.3480835.2534485-.2347107,2.5566101.4871826,2.9312134-.5861206,1.8046875-.591095,5.9710693.1861267,7.03125,1.7578125l.0000305.000061Z"/>
  <path class="st76" d="M320.5078125,482.8125c-.3036499,1.3391113,1.0773926.8308716,1.2172241,2.0151978.5274963,4.4674072.5193176,11.7530518.5671997,16.4650574.0354614,3.489502-.9875488,9.791748-.6706543,12.8970642.1077881,1.0560913.5572205,1.1392212.6981506,4.1066284.0422668.8896484,1.12323,1.555542,1.1625977,2.8725586.0588684,1.96875-1.5371704,4.057373-1.2629395,7.0899048.5769043,6.3798218.888031,13.3268433,1.7561951,19.9276123.1465759,1.1143799,1.1589661.7704468,1.2404785,1.2252808.1983337,1.1065674-.6955566,2.9389648-.6282043,4.5617065.2064819,4.9742432,1.131012,11.914917,1.8626709,16.9391479,1.3999023,9.6129761,4.0846863,19.4897461,5.7759705,29.0873413h-11.71875c-1.4224854-40.1906128-12.1835022-79.4498291-14.6484375-119.53125,4.6716614-.5056458,10.3398743.4703064,14.6484375,2.34375h.000061Z"/>
  <path class="st15" d="M343.9453125,503.90625c.1663208-.5116272.3620605-.5041809.5859375,0l1.7657776,1.3189087c4.8580933,9.5571289,8.9954529,18.9421997,12.4945984,29.1898804.141571.4146118.1181946.8901978.084259,1.3856812-.0346069.5053711-.1472473,1.0054321-.2821655,1.5039673,5.4096069,14.6801758,10.5215454,29.789978,15.3903503,44.6682129,1.9323425,5.9048462,4.0274658,11.9217529,5.1174622,18.0270996h-18.1640625l-23.3659973-102.3170166-.0656128-3.1516113c.6751404-.9344482,5.2132874,9.4370728,6.4394226,9.3748779h.0000305Z"/>
  <path class="st30" d="M193.359375,532.03125l.9238892,1.7993774c-8.5500336,22.2833252-18.7607422,43.8829956-27.2910767,66.1693726h-7.03125c1.6820679-9.5039062,7.7525635-19.935791,9.1098938-29.265686.2828979-1.9445801.7077332-4.0547485-.3208313-5.890564,6.6769867-11.9284668,15.07901-23.0167847,24.609375-32.8125Z"/>
  <polygon class="st106" points=".5859375 1.171875 .5859375 598.828125 .5859375 600 0 600 0 0 .5859375 0 .5859375 1.171875"/>
  <path class="st39" d="M358.59375,537.3046875c-1.8127136-4.9192505-3.5957947-10.2932739-5.576416-15.2243652-2.4348145-6.0618286-6.2430115-11.9838867-8.486084-18.1740723-1.2616272-1.5256653-.3516541-3.4457092.5081787-5.1935425,8.2192383-15.175415,15.9268188-30.960968,23.1227417-47.3566284,9.9066162-23.6638184,20.3890381-46.7720947,31.4472046-69.3248291l.0733337-1.5502319c8.5955811-12.9353027,18.0317993-25.3398743,28.3086243-37.2136536,11.8149414-16.7989502,17.6665039-37.4342957,19.9914551-57.5000305l1.4313049-1.001709c2.8887939,16.9522705-3.1517944,41.9924316-7.9121399,58.5917664-12.8501587,44.8085632-35.7554626,85.7167053-52.713623,128.927002-4.7391663,12.0756226-6.8451843,24.4693604-11.158905,35.716095-2.2357788,5.8291016-6.4267273,9.7989502-9.7940063,14.8153687-3.1870117,4.7479248-5.9347534,9.8209229-9.2416382,14.4888306h-.0000305Z"/>
  <path class="st54" d="M431.8359375,261.9140625c8.3314819,7.7368774,15.4501343,10.3638611,17.578125,22.8515625-.803009,3.055603-.8262024,6.317627-1.356781,9.4830322-2.7403564,16.3486938-9.54599,37.4203491-19.7613831,50.5511169-10.3376465,13.2878723-19.2351685,22.5230713-28.6864929,37.2314758l-1.6645203,3.769928c-16.4636841,27.1528625-33.1551208,54.1615601-50.0743408,81.026062l-2.7533264,3.094635-1.3622437-.4379272c-2.3143616-17.8742371-4.4144897-36.9980469-6.2830505-55.4030151-.2864075-2.8211365.9492188-6.3934631,4.1296692-5.6824951.5596924-1.8122864,1.7843323-4.6307373,4.1015625-4.1015625,18.0936279-16.1930542,36.1029968-33.1783142,53.5184631-50.3102417,1.4976196-1.4732361-.6268005-5.8594971-2.237915-6.8784485-2.9667358-1.885437-11.5516357-12.1345825-10.9820862-14.6716309.3692932-1.64505,3.7397461-.6749878,4.8187561-.2099915,2.3267212-.353302,5.2251587,5.6903992,4.6875,7.6171875,3.2942505,3.5567322,6.9770508,6.182312,11.0484619,7.876709l1.2562256-1.4313965c-.6364136-2.0628967,5.0709534-2.1951599,5.0879517-.8050537.0279541,2.2857361-1.3585815,1.7125549-.3660278-.4510193-1.5452881-1.4698486-2.3380127-3.004303-2.3782043-4.6033325-.2862549-2.214386,2.415741-6.2289734,4.6875-6.4453125l.5257568-2.9056702c11.0180969-16.7587891,15.736084-37.8127441,11.9763794-57.31427.0202332-.8399963.7138672-.916626,1.5603638-.7175598,2.8399658,4.1006775,3.0352783,4.1006775.5859375,0-1.6563416.6239319-3.4082336-2.193573-2.34375-3.515625-.3873291-.6106262-.3873291-1.0012512,0-1.171875.1663208-.5116272.3620605-.5041809.5859375,0l.8210144-.4906921c-.2463074-5.1487427.8471985-7.1336365,3.2805481-5.9546204l-.0000305.0000305Z"/>
  <path class="st103" d="M228.515625,258.984375c.4941711-.0104675,1.7715454.3016663,2.0085144.7483215.5211487.9822693,1.9742584,7.8327942,1.7897644,8.954071-2.6526489,2.7069397-1.3335419,4.2831726,3.9573517,4.7286987,7.7458038,2.5388489,2.7249908,12.4813232-3.834198,7.472229-1.0821075,2.1874695-1.3753967,3.3094482,1.5148621,2.9772034,2.819931,2.1001282,6.3607941,2.4101257,10.6226196.9300232l2.1162415.0127563c7.6196594,2.5753784,15.5030975,4.6635742,23.6655426,4.072052,3.364563-4.5819702,13.0090942-.6230164,6.3040161,3.1705017-4.0777893.947876-8.7752686,4.212616-8.8869019,8.5357056.3213196,1.882019-.168457,3.9737549-1.4693298,6.2752075-3.2436523,14.7286072-6.4445496,29.6522827-9.6026306,44.7709961-2.285553,11.2418823-5.4308472,22.1561584-9.4358673,32.7428589-.5068207-1.4433899-.9194336.5779419-1.0723267.9724426-.4421539,1.1409302-1.3979187,4.4211426-2.0935669,4.9436646-.497818.3739319-4.6280212,1.066803-5.4222412,1.0725708-2.0986023.0151978-3.3493195-1.0417175-5.1768646-1.1333008-6.2265015-.3120728-12.7457275-.7045593-18.7546997-.5736389-1.7580872.0382996-2.6310425-1.4697876-4.4257965.256958-.2267151.2181091-2.1161804,3.4185791-2.1487122,3.6268311-.3244019,2.0760193,1.7664642,7.6700439-2.5073547,8.4126282,12.1675568-46.7803955,13.9748688-95.4781189,22.265625-142.96875.1663208-.5116272.3620453-.5041809.5859375,0l.0000153-.0000305Z"/>
  <path class="st57" d="M289.453125,37.5c6.4449768-.2722893,12.0360718-3.4150124,17.8076477-3.4554825.5027466-.0035248,3.7024231.3809242,3.8692017,1.1059074-.9629211-.6224327-9.8257751,1.6147308-8.7862244,2.3437233.9661255-.0400352,1.9656982.080616,2.929657.0058517,2.8536682.2268791,6.8575439,2.3672981,7.03125,5.2734375,1.3958435,1.3305817,1.5180969,2.3842506-.5859375,1.7578125-.2622375,1.4571762-1.1310425,1.3794823-2.3666687,1.1865959l-5.2505188-2.3584709-1.5451965.9532127c-6.5242004-1.1855087-12.6904602.2379417-18.3776855,3.5351257l-1.7568054-.386776c-1.8204346,2.0873642-4.3088989,3.8447647-7.4654236,5.2722054-6.9831238,5.2429695-14.2602844,9.9308815-21.8314514,14.0637321l.2371216,1.3036118c-1.7808838,1.1780548-3.4224243,2.306015-4.9246216,3.3838882l-1.2400208,1.3330841c-14.2351532,1.9715195-16.4403534,14.0121994-17.6624756,26.0617828-.2179108,2.1485519-1.4492645,15.521431-1.153183,16.2857056,4.1882935,1.9017563,8.5681,4.6256638,11.1450653,8.6833649l-.4644012,1.5423203v.5859375l-1.5209503.25c-2.0407104-1.6616211-4.3156281-3.0616531-6.8396301-3.8546524,2.3895264,4.0079193,4.0045166,7.9438477,4.8449554,11.807785.3710632.9334259.0423126,1.8054199-.9862366,2.6159821l.4293365.5411377c3.6873779-4.9255829,3.3491211.7704163,1.728775,3.8741302l.6469269,1.1791229c-2.1402435,2.5069122-4.047348,5.1648407-5.721344,7.9738007.1581726,2.0352936.6777649,3.8671265,1.5587921,5.4955139,1.6237793-.5588989,6.9731903,1.9916992,5.859375,4.1015625.8867645,3.9288025.6073151,6.1130829-1.7578125,9.375,1.4142609.3711395,2.7467651,1.4996643,3.9975281,3.3856049,5.704422-2.0966797,13.1959991-.7875061,18.2680817,1.8878326l-.8833923,1.1572571-9.9260864-.0426636c-3.1486053.1240845-9.5220337,1.0765991-5.7910156,5.1465607l-.3917084,1.3560181c1.7582397.105896,3.8920288,1.1442413,2.34375,2.9296875l1.320282,1.0378876c-1.3511658,4.8795166-.9487457,8.7608032,1.2072754,11.6438751l-.1838074,1.380722c5.5584717,2.2556,11.1944427,2.2158661,16.9410553.1799774l13.3077698-4.4383392,1.3917847.7427368,2.9992676-.354599c5.6874084,5.2585602,10.5788269,11.4709167,14.6742554,18.637085l-.0953979,1.6394043-1.2478333,1.2406006c-17.829834.2211456-34.8182678,3.4462891-50.9652863,9.6754456l-1.6931305-.3691711-1.5231934.0289917c-2.3592529-2.1832275-7.6259766-8.3106995-5.5080566-11.1618042.0819855-1.121582-.3496246-1.7423706-1.2948303-1.862381l-.1781006-1.4799347-7.43013,8.3325653-1.6438141.2831726c-1.0120544,1.3429871-1.419754,1.0240173-1.171875-.5859375-.8468781-.780304-.5115509-1.8117523,1.0059814-3.0943146-.991745-.8460846-1.1155853-.9920654-.4200439-2.1791229,5.4052124-7.2174683,10.0317078-10.5764923,11.5736084-20.3645325.0981445-.6230621.6229401-2.0359192-.4334106-1.8967285-.4006042,1.1354065-.7259979,2.4050903-1.1792603,3.511261-.5476379.5117188-.7429504.1210938-.5859375-1.171875l-.7258606-1.6449127c2.1309662-5.4403381,2.7831573-10.7401428,1.8977356-16.5191345l-1.3940125-.5613098c-1.7853394-3.8356323-3.859726-7.5547791-6.223175-11.1574402-6.6888733-8.998291-11.4339905-17.5880127-16.40625-27.5390625l-1.7527924-5.0739136c1.3184204-18.7663574,4.6370239-38.2311554,10.2009888-56.3395538l-.8310089-.1099701c1.9860229-7.7827072,5.9842987-12.0671082,13.4765625-14.6484375,4.1305542-2.1929703,8.5205994-3.6901169,13.1701508-4.4914398-1.3205719-.6663437-1.8043823-1.5129471-1.4514008-2.5398102.3805237-.1738663.6439514-.4368401,1.171875-.5859375.934082.1264648,1.8552551.4213867,2.7635345.8847694-1.0389252-2.7241478.7150421-2.6265221,2.8085022-1.4705238.0742798.0410156-1.4299316-.4370804-.8845367-1.1720619l-1.1661377-3.5153847c.0919952-.1136932,2.0176392,1.4607811,2.3380127,1.7575722.8221436-.3187561,1.9260864.7666664,2.5992584,1.4396744.0960541.0960312-2.0582123-1.182888-1.4273834-2.0256119-.4989014-.478157-1.7743835-1.6608086-.8816833-2.3409309,1.83638,1.7434273,4.0078125,3.7702522,6.7409668,3.5069084-1.3765564-2.1144524-6.0416412-3.175766-5.5691681-5.8505821.7801361,1.4584465,2.282135,1.7117653,3.2255096,2.3408546l.5396729-.576767c1.5402832,1.0796661,1.9463196.6859856,1.2181396-1.1810455l.2901001-1.1690178c.6811829.9817467,1.8646851,1.598362,2.6395874,2.3408928.9484558.3754005,1.3812256.4767647,1.171875-.5859375-.9018555-.6329269-2.1476746-2.2597046-.3267212-1.7302895,1.4773865.4295311,2.976593,2.7634735,5.0140991,2.31036l-4.0930786-4.4000206,2.3353882.8902626c2.7987671,1.475811,4.3612671,1.6711235,4.6875.5859375l-.5859375-1.171875c.8650208-.8034973,2.303833-.4933434,4.3163757.9304619l5.100708-3.7504158c3.8337097-.4839516,7.7530518-1.0779686,11.6766663-1.8675461l.0000916.0000038Z"/>
  <path class="st67" d="M356.8359375,52.1484375c20.12323,28.6223068,27.2486267,63.6292725,31.4884949,97.6423492l2.4751587,12.6508789c.1564636,1.5292053-.7352905,2.0772095-2.2000732,1.5995178-6.4056091-14.2054443-12.6965942-28.4561462-18.8729553-42.752121-3.9821472-8.5997162-8.0837097-16.9981537-12.3046875-25.1953125q-.6970215-.9448624,0,0c4.5620422,8.2530823,8.4912109,16.9239578,11.71875,25.78125,9.0113525,18.317688,17.8776855,36.9497528,25.2403564,55.9473877,1.8460388,9.8639679,5.5124512,18.5325928,10.9992371,26.0059052-.5793762,5.3051453-4.2943115-.1061707-5.7708435-2.2657928l-.7949524.1252899c-16.4217834-17.7887115-28.2192993-39.55513-38.5022888-62.2440338-11.7147827-22.2409515-15.653717-28.7286987-37.8900757-39.4519501-16.2703247-6.3423615-30.8960571-13.6658249-43.5900879-25.6256256-5.7689209-4.5011902-12.1828613-7.1354904-19.2616577-8.1552505.289032-1.1674042,2.9427795-2.4828186,3.515625-1.171875,6.6938171.4559479,12.8549194,2.3340302,18.3216553,6.4278107,8.9515076,6.7604523,18.3809814,12.8546982,28.838623,17.2717361l28.6178284,13.0231781c3.8862915-.817009,6.2894287.0405884,7.2093811,2.5727997l4.3171997,2.891983.9131165-.1101227c3.2259521,2.7975845,6.4371948,5.1780472,9.6337585,7.1413727l.8259888-.2677155c-11.741333-23.4459839-26.740387-48.6136017-48.0952454-66.3053207l-1.9495239-3.1535301c.835144-.2882652.411438-1.3218956.5859375-1.7578125,2.4728699.2586823,5.0958862,2.4129105,7.03125,4.1015625,2.1037903,1.352562,4.0569153,2.915062,5.859375,4.6875,2.9622192,2.5004234,5.690033,5.2516937,8.203125,8.203125l4.1015625,4.6875038,6.4453125,8.7890625q1.7720337,2.5688858,0,0l-6.4453125-8.7890625-4.1015625-4.6875c-2.5212708-2.9639168-5.2290039-5.6942177-8.203125-8.203125l-5.2734375-4.6875c-2.4498291-1.8840752-4.9888916-3.2512627-7.6171875-4.1015625-2.3699341-1.6300926-4.3894958-3.9178009-7.03125-5.2734375,20.5826111-1.596302,36.7380676-.8500099,51.5625,14.6484375h.0000305Z"/>
  <path class="st110" d="M356.8359375,52.1484375c18.0812683,18.9033356,31.5922546,57.8004456,35.0814514,83.5708923,2.8897095,21.3428955,1.2326355,33.0119019,16.4963684,50.3004913,6.7459106,7.6408081,23.1253357,18.5556488,25.6206665,27.700058.1037292.3801575.5863953,2.4686279-.443512,1.6179504-5.1940613-12.3172607-17.584259-17.7910309-26.9585876-26.3647156-4.2045898-3.8454895-7.599762-8.1615448-11.1188049-12.6056824,3.3668213,18.1292419,14.1096802,32.2628937,28.1163635,43.6549683-3.0223389.396347-4.6361084-4.7134705-7.6113586-4.1072998,7.320282,6.7964325,13.2540588,15.7798462,13.7695312,26.0741577-5.6681519-15.3886719-18.3753052-25.2089691-29.5927429-36.3252106.0431213-1.3975525,1.3555298-.3016052,1.2638855-.3001251-2.3708801.038208-5.1915588-3.943985-1.849823-3.8014374,1.9500732.1622314,2.7242432,3.0337677,3.816925,3.5102844.6901855.3009796,1.1652527-.1754913.8657837-.8657837-.5329285-1.2284393-3.3487244-4.195755-4.3813782-6.1685028-3.4669189-6.6230621-4.5022888-13.8170776-6.9116211-20.6274261-6.6114197-18.687973-15.6575317-37.4481354-23.8584595-55.5360718-.2251587-.7982407-.1972046-.9708557.5859375-.5859375,6.4875183,14.0332336,12.9478455,28.1068878,19.3432922,42.1831512,1.1034241.125824.4489441-1.1814728.3167114-1.7805023-4.0575562-18.3803558-4.9031677-36.889389-9.8657227-55.1773987-5.0942078-18.7731628-12.8964233-37.6066818-22.684906-54.3658714v.0000114Z"/>
  <path class="st113" d="M258.3984375,66.2109375c.4398499-.5948715.865448-.6822357,1.171875,0,16.6972351-.5223923,25.1931152,13.7649918,38.2783813,21.1942902,15.5252075,8.8145981,39.2337341,14.3752594,50.0897827,29.0117798,15.1466675,20.4213104,22.6042786,46.9247589,38.8872986,68.9252014,2.8957825,3.9125824,11.3811951,12.7304993,12.7836304,16.2202911.0217285.0541077-.6874084.3898926-.3298035,1.1186066.6330566,1.2900085,3.8995972,2.6750336,2.9693909,4.1520538-1.0763245-1.104248-.848053-1.3765717-2.0536499-1.1690826-.7298279.1256104-1.442688-.4430237-1.1264954.8219147,2.287384,3.9155273,3.0447083,8.4606323,5.1190796,12.4706726,5.2909851,10.2282257,19.9397278,22.1882782,22.7968445,31.695343,1.9602966,6.5229187-.9550171,5.8702698,4.8511963,11.262085-1.6381836-.0914001-2.4858398,2.2727661-2.6997681,3.503418-.2864685,1.6477661.9046021,5.7900696-1.4017944,2.9418945-.3178101-2.8977966-1.012085-5.750061-2.0827942-8.5567932-4.4476624-6.9984283-9.5184326-13.5792084-15.2122803-19.7423553l.302887-1.5836639c-5.1819153-4.4793549-8.5621948-9.7435303-10.1408691-15.792511-.7990723-6.2179413-2.2000122-12.2193298-4.2028809-18.0041809-9.512085-12.7247009-18.7608337-25.6711731-27.4201355-39.6131592-.4085999-.6578979-.6856384-1.3998108-.9525757-2.1560211-.2710571-.7679138-.4676514-1.5621185-.6429138-2.3638306-1.4745483-1.9145203-4.1400452-5.3864594-3.515625-7.6171875l-2.7697754-4.5322113c-5.7709961-11.7371521-11.6807861-23.7290497-21.0938416-33.0245056l-.7457886-2.2870255c-7.538269-4.2923508-15.2698975-8.2392044-23.1948242-11.8405685-.261322-.8644562-.9281616-1.6050949-2.0004883-2.2219315-.224823.3669205-.5310364.6032181-.8783569.4471893-4.3609924-1.9591446-8.7183228-3.9350433-13.0562134-5.9627151l-.7138672-1.5157166c-.6812744.223381-1.4749146.4552155-2.0764771.1244583-8.8850403-4.8852005-15.5079651-10.5744247-22.8101501-17.3411407-5.4050598-4.5422974-11.8857422-7.5136719-19.0327911-5.8557358-3.2342987-.704155.8545685-3.5283966,2.9037933-2.7088318v-.0000305Z"/>
  <path class="st60" d="M.5859375,598.828125V1.171875v597.65625Z"/>
  <path class="st93" d="M210.9375,137.109375c-1.1026764-2.2068024-3.4724426-4.703125-4.2336121-7.194931-.9429932-3.0870361,1.4309845-8.6596222,2.1891785-12.1346588,2.2731781-10.4187164,5.5626831-33.9790192,9.6616211-42.1938477.2429199-.4868317,2.6388855-4.4812775,2.9238129-4.1014557-.981369,3.6749725-2.3521118,7.3054733-3.2377167,11.1117783-2.5534363,10.9746323-4.8986206,24.4513168-6.5470276,35.64048-.9294281,6.3087845-2.0751495,12.509903-.7562561,18.8726349Z"/>
  <path class="st0" d="M233.7890625,194.53125c-.2328491,3.6860199-2.5022736,7.5625-4.6875,10.546875-1.5959473,2.7635651-2.7619934,3.682785-4.6875,5.859375l-.1561127.9319153c-4.9441223,4.9207153-8.6542206,10.8964539-12.1485748,16.6462097-.4309845-.2668915-.9168549-.5893097-1.0618896-1.0966797-1.2135925-4.2453766,10.271759-18.3712769,14.5200348-20.8551483-.3565063-1.7545166.791153-1.0210419.2250824-.344574-3.3206635,3.9682465-5.9220581-.0387268-1.7512817-2.5617371-.7455597-1.0922852-.4259949-2.1812439.9586945-3.266861-.0300903-.9332581,1.4060974-2.348877,2.34375-2.34375,5.1577148-6.4435883,7.3824005-13.3743896,6.6761169-21.4228516l.9410706-.2568359c1.8657684,6.4667664.8213959,11.7383423-1.171875,18.1640625h-.0000153Z"/>
  <path class="st95" d="M225,220.3125l.4461975,1.4174042c-2.7929688,3.4815369-3.7541046,7.6814423-3.9618225,12.0591583l1.3506317,1.4627686c.7774353,5.7122498,3.0946503,11.0178528,5.4590454,16.2261047l.2215729,3.4048767c1.6185608.3271332,1.7998352,3.9599609,0,4.1015625h-.5859375c-.2459106-4.3074341-8.0080566-12.2485199-9.9523773-17.2966766-.6500854-1.6878815,1.6398468.5475769,1.1523743-1.1464539-.9508362-3.3043213-2.5401154-5.772171-1.7468872-9.6818542l.7369843-.2276917c.2741394-4.4107513,1.7378693-8.1146545,4.3911591-11.1117401l1.3171692.2066193,1.171875.5859375.0000153-.0000153Z"/>
  <path class="st22" d="M227.34375,198.046875c-.817337.8341522-1.3699341,1.534668-2.34375,2.34375-.5812225.5150299-.7741852,1.1967316-.6564636,1.9806061-12.4268951,7.3487244-18.7787628,11.4176178-13.7510834,26.9564209.311554-.5505981.8774719-.7781372,1.516922-.812027,2.8304138-7.2359619,7.3318024-11.9567871,12.3046875-17.578125.9116058,1.0834961.0572815,1.3341522-.5656128,2.051712-5.6855316,6.5495605-12.9311676,14.9915619-11.5839844,24.4575348.4672241,3.2829437,2.5568848,5.579361,3.3547821,8.646759-5.1513062-5.5217285-7.2942963-14.1495514-8.6233063-21.5468903-3.253006-18.1063232,10.5306091-17.4462433,19.7618713-27.0856934.8234406-.7765198,1.1250305-.4491425.5859375.5859375v.0000153Z"/>
  <path class="st23" d="M223.828125,219.7265625c-1.0463409,1.4481659-2.3365784,2.4684143-3.0600891,4.2638702-.3076477.7634583-2.0540924,10.2112732-2.7935028,9.2127228.3701172-.9918823-.4810638-1.8036652-.5917206-2.3437805-.1480713-.7227325.536972-2.4294128-.5798492-2.3406677-.500061,4.2485504-1.9656677,7.9813385-.5975952,12.2982788-1.1526337-.1671448-1.1387939-2.3530273-1.1924438-3.193573-.6492157-10.1711884,3.709671-15.5705872,9.4011383-23.1702881l.878952,1.1729279,5.8622589-6.4433899c.4442291-.0844574.3655853.5547028.2998657.882782-.2412262,1.2041168-6.2308655,7.7288361-7.6270142,9.6611328v-.0000153Z"/>
  <path class="st32" d="M234.9609375,176.3671875c-.8317261,1.6025696.1298828,3.4501953-.0563965,5.4988098-.5958405,6.5528717-3.0749817,11.6028137-7.560791,16.1808777l-.5859375-.5859375c4.7678986-4.9787292,7.451889-12.4840851,6.1801605-19.363205-.8463745-4.5782318-4.7450867-8.7832184-5.594223-13.449295,3.6226807,4.8734589,5.6316376,4.836853,7.6171875,11.71875Z"/>
  <path class="st2" d="M289.453125,37.5c-1.0671387,1.2465782-2.9118347.5984535-4.10672.9631996-.3185425.0972366-.8382568.8357277-1.5547485,1.1698189-.5196228.2422867-1.918457-.8562851-1.9637451,1.3790665l-.5837708-1.7541618-2.047821,1.7557144-.5801697-1.1678848c-.7590637,1.0100784-5.0071106,4.3763504-5.8464966,4.4823837-.6966858.0880089-3.4646606-1.6194763-4.4103088-2.1406326-.7921753-.4365845-1.4180908.6539726-1.1729126-1.165947,2.0299988-.0980339,3.8079834-1.1197052,5.7413635-1.5896301,5.4622192-1.3276405,11.2107849-1.7073936,16.5253296-1.9319267Z"/>
  <path class="st103" d="M203.90625,408.3984375c-.2675018,2.1854858.3847504,7.4099731-.4010468,9.220459-.3794861.8743591-1.4556427.9840393-2.0759735,2.0586548-1.0676422,1.8495178-1.8864594,6.5453491-3.2445221,9.6594849-1.4802551,3.3943481-2.9990692,7.8056946-5.9972076,10.1160583,4.2631836-10.3152466,8.6294098-20.2576294,11.71875-31.0546875v.0000305Z"/>
  <path class="st19" d="M243.75,53.90625l4.098053,2.9231529c-5.0865936,1.8261223-10.7387085,2.358532-15.816803,4.1080971,3.4715271-2.5995178,7.763855-5.2242393,11.71875-7.03125Z"/>
  <path class="st43" d="M255.46875,46.875l-1.7575531-4.095726c1.8788605-.3800507,1.1735382,1.8235588,2.370224,2.6895409.5984192.4330521,1.0859375-.3606796,1.1451416-.3516273.8167725.1248741,3.399231,3.5162468,3.5127563,4.6843796-.7764893.7065239-4.430542-2.3663864-5.2705841-2.9265671h.0000153Z"/>
  <path class="st72" d="M249.609375,51.5625c1.3836365.4626884,2.4866638.9937325,3.5129395,2.0534248-1.2965393,1.5810699-5.0671844-1.6726532-5.2649841-1.4672852l2.335144,3.5122414c-2.1240082.3167763-4.07724-.5683784-5.2705994-2.3405685.6814423-.1924553.9166565-.978241,2.3390808-.0009727l-.5790863-2.3389359c1.0841675-.3245049,1.4112701.8938484,2.1519928,1.0438271.4218292.0854111.7327271-.4760437.775528-.461731h-.0000153Z"/>
  <path class="st56" d="M234.375,195.703125c-1.2746735,3.1107941-2.6028748,7.278183-5.2734375,9.375,1.6426544-2.8444366,3.7237549-7.4400787,4.6875-10.546875l.5859375,1.171875Z"/>
  <path class="st68" d="M268.9453125,43.359375c.6795654.2445374,1.5452271,1.0311775,1.7575684,1.7522964-2.3851013-.1592751-5.0103149-.0827675-6.4450684-2.3382339,1.5502319-1.9471169,2.8662415.7390022,3.89328,1.0462952.3432617.1027069.7510376-.4758987.79422-.4603577Z"/>
  <path class="st101" d="M251.953125,49.21875c1.1147919,1.0684433,3.2893677,1.6297646,4.0973511,2.9222107-3.0115509,1.3931351-3.6111908-.8002892-5.2692261-2.3362732l1.171875-.5859375Z"/>
  <path class="st116" d="M261.328125,45.703125c1.1690369.8204384,3.1618958.8480492,2.9267883,2.3405457-1.1154175.0396233-2.3518066.0498581-3.3961487-.3907394-1.0325623-.4356308-.6089783-1.2742386-.7025146-1.3638687l1.171875-.5859375Z"/>
  <path class="st10" d="M277.1484375,294.7265625c-3.1474609,18.9465942-7.1466675,38.8809814-11.792572,58.0386047-.4599915,1.8968201-1.0247498,3.6903687-2.269928,5.2426453-.764679,6.0163269-2.1201782,11.9284973-4.0664368,17.7365417-9.8274231,30.5163269-19.0932159,61.2861938-27.7973633,92.3096008l-4.144928,10.5575867.852478.0993958c-.549942,2.8837585-1.7002563,5.6656189-3.4509583,8.3456421l-.0646667,1.0293579c-1.9259644,3.3877258-4.330307,6.1886292-6.4453125,9.375-1.687027,1.6098022-3.5988312,4.2472839-4.1015625,6.4453125-6.6129913,9.4578247-13.6243134,18.8548584-20.5078125,28.125-8.1261292,10.9436035-16.4448547,21.8920288-24.609375,32.8125-2.8316498,3.7874756-6.2915802,7.3049927-9.0849152,11.1298828l-.283432-.866333c19.5661316-28.9084473,37.2588806-59.1231079,58.3271027-86.9872742,2.5182495-8.0890808-6.956665-14.3847351-.2238312-23.6624451,3.151474-4.3426514,8.5883789-6.5010681,13.390625-8.4238892,3.7122498-24.2554321,10.6052856-47.859314,16.3900757-71.6586914,3.7489624-15.4237671,7.9467163-30.7742004,11.4337158-46.2811279,2.3565063-10.4794922,3.9886475-28.9672546,9.0740967-37.5079346-.4603882-2.6480103,3.4290466-6.7922058,6.2612915-7.3928223,1.7229614-.365387,4.1758118-.7596436,3.1137085,1.5334473Z"/>
  <path class="st125" d="M237.890625,463.4765625c27.6430054,6.2840881,55.2891541,12.5342102,83.1871948,17.5733337,4.9741516-.7799377,10.0566101.3729248,14.6643372,2.3485413l4.5887756.5852051c.6202087,2.0537109-3.9170532,2.635376-4.5887756.5866699-5.0928345-.0097351-10.1953125-1.0054016-15.234375-1.7578125-4.8146667-.7189026-9.8591309-1.4832458-14.6484375-2.34375-2.1752319-.3908386-4.6955261-1.325531-7.03125-1.7578125-12.3525696-2.2861938-24.710907-4.7079468-37.026062-7.2122192-9.3203583-1.8952637-18.6074066-4.5103149-28.0130005-5.6784058-1.5717316-1.0189819.0260468-3.5934143,1.7578125-2.9296875,1.0178986-.9263,1.8782959-.7084351,2.34375.5859375h.0000305Z"/>
  <path class="st47" d="M224.4140625,488.0859375c-1.1766815-.351532.0010376-1.7538452.2866974-2.3510742,1.1125641-2.3259277,2.1276398-4.7120972,3.2289276-7.0239258.2097015-4.1680603,2.6941071-10.0796204,5.859375-12.890625-1.5174103,7.460968-5.5843353,15.5979309-9.375,22.265625Z"/>
  <path class="st126" d="M217.96875,497.4609375c-1.4011688,2.1109314-2.6415253,4.3571777-4.1015625,6.4453125-1.2787018-.3684387.1330719-1.658783.4659882-2.1717224.6976471-1.0749207,2.2962646-4.4545898,3.6355743-4.2735901Z"/>
  <path class="st26" d="M190.4355316,471.6795044c-.032608-15.5374756,11.4152374-30.3222656,22.8399506-39.8433838l-12.997345,28.3052673c-2.9002991,3.9640503-5.3528595,9.193512-9.8426056,11.5380859v.0000305Z"/>
  <path class="st103" d="M219.8474884,442.8555603c.4287872.2877808,1.5306854.0445862,2.2118988.4049988.7936249.4198914.8306427,1.3948364,1.3708344,1.8676147.3044891.26651,3.7147369.9307556,1.5732422,2.2461243-1.2903137.7925415-5.1690979-.8696899-5.5695343-2.636261-1.3621979.7675476-.4844055,3.1898499-1.422699,3.8383484-.5104065.3527527-3.7095032.4624023-4.0960693.2001038-.2252197-.152832-.7267456-4.9147339-.567337-5.4138489.2918701-.9138794,1.7135925-1.103302,2.2944031-1.841156.4356232-.5533752,1.7867126-4.8733521,3.2138062-2.6631165.5451813.8443604.2557526,3.5034485.9914398,3.9971924h.0000153Z"/>
  <path class="st94" d="M344.53125,503.90625h-.5859375l-8.203125-19.3359375c.76474.0014648,4.1053467.2294617,4.1074524-.2929688-1.333252.0744629-3.1697388-.7654419-4.1074524-.8789062l.6359253-1.1721497,5.5549622-.1256714c-.8664856-2.936676-.5863647-5.2384338.8403625-6.905304-.5245972-3.5726929.2566528-5.3305054,2.34375-5.2734375,17.2945557-29.0827637,36.1845703-59.3998413,54.4921875-87.890625,1.1743164.3492432.0011902,1.7564087-.2860718,2.3516846-14.6210632,30.2961426-26.9179688,61.796051-41.3983154,92.1943665-3.7928162,7.9621887-10.1126404,17.8312683-13.0722656,25.6282654-.2154541.5675659-.4278259,1.0744324-.3214722,1.7006836Z"/>
  <path class="st33" d="M356.8359375,168.1640625l1.3075256.6297302c.9766541,7.1480713,4.4154053,13.8848877,7.8216248,20.2681427l-4.0081787-15.2039032.7383728-2.17836c-.0033264-.5115814.0299683-.7397461.5859375-.5859375,1.4536438,4.2174988,3.0178528,8.4279938,4.6925964,12.6315155l-.2313843,1.2212219c2.4693298,6.2335663,5.0838318,12.3581696,7.8434753,18.3738098.690979.6582489.7374268.3937531.5859375-.5859375-3.9432373-5.5725555-6.4983215-12.3454285-8.6412964-18.8767395l1.2492981.0769196c-1.5493469-1.0996094-1.6213684-2.7876129-1.3970642-4.6376801-.4369812-1.0377655-.7831421-1.920578.5859375-1.7578125l1.5278931.8322601c7.7196045,15.7951813,16.7806396,30.7521362,27.1830444,44.8708649l1.728363.9175568c4.0720825,4.8739471,8.1834717,9.646225,12.334137,14.3168182,3.3327942,4.6431427,5.0243225,6.7264252,9.0500183,10.5488892,1.1769714,1.117569,6.5546875,9.3079529,7.2572632,10.9367371,1.0952454,2.5392151,1.9755249,5.7685547.684906,8.3971558h-.5859375c-8.2107544-10.4289551-18.1303711-19.5066376-28.125-28.125l-1.3468933.4450684c-3.2179871-2.9271851-2.8337708-2.157074,1.1526489,2.3103027l-.3916931,1.3461914c4.8998108,3.3721924,9.0704651,8.8236847,10.4056396,14.8706055.3308411,1.4984131,1.4518738,6.7354126,1.184082,7.7501526-.1551514.5878906-.5835876,1.0302429-1.0428162,1.4026794.078125,2.5959778-.5091553,3.2854614-1.7618408,2.0684509-1.0570679-6.5776672-4.5361023-12.674469-9.8192444-16.7621155l-1.3095703-2.2985229-.7016602.0913849-2.8139648-7.7085724-1.4465637-.1079407c-5.8025208-8.0714874-11.570343-16.2386322-17.3034363-24.5014343h-1.171875c-.6421204-.5387115-1.2280579-1.3199615-1.7578125-2.34375-.3684082.2121887-.6617737.3681335-.6923828.3272705-1.9726562-2.6331787-3.6274719-7.2400055-4.5810547-10.288208-2.6980286-1.2779083-4.5595398-5.2398987-4.1015625-8.203125-.9207153-2.325531-.1382141-2.8055115,1.171875-.5859375.5020447-.3838959.8269043.6689301.8030396.6148834-4.9619141-8.9799194-7.7686462-18.3645782-8.4202271-28.1539459-.3793945-.1614227-.7052612-.3493042-.84375-.629715-.2861023-.5792236-.3564453-12.4580994.1182861-12.8962402.1223755-.1129456.4015198-.0560455.7254639.0493927,2.4420471,2.6512756,2.3643799,7.6188202,1.7578125,11.1328125l.0000305.000061Z"/>
  <path class="st64" d="M366.2109375,332.8125l1.5004578-.2122803c1.5738831,1.8291321,20.0145569,14.221405,21.1240234,12.3757324.2680969-.4460144-3.8308411-4.8420105-4.6911926-5.5064087l.2307739-1.3836365c-.7765198-.8234253-.4491272-1.1250305.5859375-.5859375,2.253479-.6000977,4.6207275,2.8781128,5.8602905,4.7225647,3.142334,4.6758423,3.9086914,9.8866882,1.7632751,15.2298584l-16.5183105,16.104187c-9.6416626,10.7658691-19.7626648,21.0126038-30.3630371,30.7402344-1.3974609,1.4967651-2.628418,2.6957397-4.1015625,4.1015625-1.3358765-.0041809-1.7927551-.5531006-1.307251-1.7662964,3.2700806-7.851593,6.0187378-15.8713074,8.2459412-24.0591125l1.2644043-.5417786,1.0882874-6.0985107c6.6011047-13.5275269,11.1810303-27.5014954,13.7396851-41.921936l1.5782776-1.1983032v.000061Z"/>
  <path class="st74" d="M396.09375,251.3671875l1.5696716,2.3074493c-.1325684,6.75914,2.1309814,12.2392426,4.7915039,18.2380829,1.043396,3.0762329.8957825,6.1538086-.3148193,9.1268311-.6758423.7036743-8.7366028,21.9126892-7.2305603,21.3713989.6600952-.2372437,6.2807617-7.9402466,7.2673035-9.4257812,4.4939575-6.7670593,6.4945984-13.7633667,5.8267822-21.9553528.7922974-.5779114,1.1192322-1.4680786.9807739-2.6704712-1.1750793-12.8014221-2.7371216-14.540329-10.546875-24.0234375-.6408386-.8990936-.6804199-1.4955597.3889771-1.6119232,1.9180298-.2087097,18.5566406,16.6661835,20.8629761,19.6130219,3.5306702,4.5112,7.4543762,12.0664062,8.3243103,17.7850952.9175415,6.0316772-2.9974365,4.1542969-3.7806702-1.1788635.5276489,8.3669739-.9423218,16.8904419-4.8715515,24.3433838-.8302917,1.5749207-5.4818115,9.4897766-6.7932434,8.3241577-.3950195-.3511353-.6094055-1.4201355-.6839905-2.0838318,7.2582092-11.6827698,9.1497803-24.911438,7.0609741-38.237915l.78125,8.7068481-.78125.3751831c1.2910767,2.2835999.9933472,5.0062866-.8932495,8.1680298-3.2288208,5.5353699-6.9189758,10.7660828-11.0704041,15.6921692-9.3747253,10.5816956-6.6417542,24.220459,7.1793213,28.3669128l.6827698,1.3861694c-1.4615479,2.1343079-2.9307556,4.5662231-4.6875,6.4453125l-2.1653442-.5032959c-3.1876831-2.7511597-17.1305847-15.8862305-17.2843628-18.7755737-.021637-.4064636.0349121-.8171082.1138-1.2289124,2.0641174-.0844727.2845459-4.5679932-.1770325-3.0003052l-1.58078.0706177c-4.0256653-2.5995178-3.2083435-10.3297729-2.3309021-14.7604065,2.6581116-7.0260315,4.2430115-14.1773071,4.7547607-21.4538269,3.4165955-12.103302,5.2011414-23.1822205.2595215-35.3182068l.8322449-1.7097473c.8106689,1.4287109,3.2066345,6.3285522,3.515625,7.6171875h-.0000305Z"/>
  <path class="st83" d="M399.0234375,240.234375c10.3939819,8.0365448,19.7689819,17.8021851,28.125,29.296875.9780884,1.2651367,1.515625,2.2901917,2.34375,3.515625-.1717529.3967896-.3675537.3889465-.5859375,0-1.1833191,1.1575317.4468994,3.7358704.5798645,5.5723877,1.5112915,20.8719482-2.9996643,38.3631287-14.6423645,55.3651123-8.0789795-1.8764954-15.0388489-8.5417786-14.65625-17.2593689.5547791-12.6400146,18.7578125-23.3711853,18.7578125-36.3539124v-9.0820312l1.7824707,9.6435242c.3995667,7.5896606-.8830566,14.4446411-3.8523254,21.3920898-1.2965698,3.0336914-3.2559509,5.7166748-4.3697205,8.8078918,9.9942932-11.168396,12.5535278-25.974762,9.3751831-40.4293823,1.0293579.1604919,1.0072937,1.1819458,1.3233032,1.8933716,1.4591064,3.2849121,2.5921936,6.8900452,3.3648376,10.4076843,1.0584717.1375122.5301819-1.2703247.4328918-1.8961487-.4674988-3.0074463-2.2440491-7.709198-3.5383911-10.5286865-4.9269409-10.7326355-14.510498-17.8022003-22.9654846-25.6661682-.4728088-.4397583-1.5635681-1.9615479-2.0605774-.577301-.7705383-.9356232-7.1403198-8.068512-6.4423218-8.7860718,2.7106018.7936249,4.8446655,3.0741882,7.0282593,4.6845093Z"/>
  <path class="st102" d="M379.6875,324.609375c1.1270447-1.5049744,2.2776794-.5630493,3.4021301.5145874l1.2853699.0713501c1.1355591.450531,1.9215088,1.5520325,2.3578796,3.3044739,1.3152161.7505188,2.0917664,1.6021423,2.3296204,2.5549011,1.8190918-.7639771,2.4050293-.3733521,1.7578125,1.171875l-4.0951233.2835388c2.0074463,2.5711975,3.2282715,5.6496887,5.2797546,8.1997986,3.4086609,4.2371216,11.2236938,7.8972473,8.1148071,13.9994812-17.0067139,15.3230591-32.7305908,32.964386-50.624054,47.2271729-1.1011963.8777466-2.4041443,2.0575867-3.7926025,2.360321,15.0472717-16.1165466,29.6040649-32.6418762,45.9515686-47.5054932,2.7872009-8.3475647-.7753296-13.9524231-6.6937561-19.2913818-1.1427612-.6531677-1.1170654-.5344543-.5859375.5859375,1.6222534,1.4901428,9.9138794,9.1450195,2.9266052,7.9713135-3.8075867-.6395874-18.1087036-10.2653809-21.0906677-13.244751-2.675354.5753174-4.8152161-4.6771851-5.5925293-7.0389404-.6775818-2.0587463-2.0532837-7.2800598.9050293-7.3165283-.4560547-.055481-1.1367493-.1957397-1.171875-.5233154-.1195679-1.1151428-.3229675-10.7719116,0-11.2313232.2975464-.4232483.6539917-.7229919,1.171875-.8430176.2771301-1.1950073.8223267-1.6160278,1.3019104-.4933777.1086121,2.97229.6512146,5.2851868,1.6277771,6.9386902l.5046082.1405945c-1.771637-9.3908691-2.875061-19.6764832-.5046082-28.851532.5286255-1.7516174,1.0472107-2.1379395,2.1723938-.4989319,1.3634338,10.6127014,3.0370178,21.4790649,6.4767456,31.6879578,1.2023926,3.568634,3.6268616,7.5159302,6.5852356,9.8265991h.0000305Z"/>
  <path class="st49" d="M349.8046875,382.03125c-.6669617,5.4968872-5.9096069,18.0142517-7.9551392,24.0213318-.2784119.8175659-1.0309143,1.4302063-.2479858,2.3458557-2.3618774,2.2539673-3.0666504,1.6586914-2.9637451,5.580719,2.1610718,16.3557739,3.6557922,32.7834473,5.3127136,49.1992188.2073975,2.0547791.4984741,4.8415833,1.1666565,6.7434998-1.5812378,2.6590271-2.0570374,1.3325806-2.34375,5.2734375-.4537354.0605164-1.1715088.023407-1.2122192-.2568054-2.4605408-16.9396057-4.7008057-35.0965271-6.3966064-52.1261902-.8869019-8.9063721-1.7565613-17.8878479-2.4109192-26.8216858l1.2306824-1.6546631c-.4008179-4.1027832.9045715-6.8887329,3.1810608-10.1322632,2.6005249-6.1544189,5.8370361-11.7613525,9.7095642-16.8208618,2.2531433-2.8819275,5.4071045,2.6596985,5.308197,5.2252197-1.3699646,3.0158386-1.8797913,6.1676331-2.3785095,9.4232178v-.0000305Z"/>
  <path class="st35" d="M390.8203125,319.921875c4.9667358,7.5604858,12.9443359,14.039978,19.3359375,20.5078125,1.6148376,1.6340942,3.1700745,3.5307922,4.6880493,5.2671204-1.3453369-.0973816-2.3214722.306427-2.352478,1.7607117-1.1436462.1921387-.2998657-1.4561462-.588562-1.7520447-.2037659-.2088623-3.4408264.4250183-4.0907593.5835876-.3327332,1.6139526-.9196777,2.1090393-2.4923096,1.2767334-3.591217-2.1507263-6.7772827-4.8462524-9.8123779-7.7220459-2.0597229-2.556427-3.2468872-6.0775452-4.6875-7.6171875-.4080811-.4360962-1.213501-.8152771-1.7578125-1.171875-.6146545-2.6471252-1.0374146-5.6109314-1.268219-8.8914795-.158783-2.0460205.459259-3.1837463,1.8541565-3.413208,1.4112549-.8518372,1.8285828-.3087463,1.171875,1.171875Z"/>
  <path class="st53" d="M427.1484375,268.359375c.1156311.1895752-.0769958.8305969,0,1.171875-6.7226868-8.6955872-18.6412354-20.6859131-27.2284851-27.5555267-.2611084-.2088928-2.0817566-1.4815826-.8965149-1.7413483,9.9886169,7.3662872,21.6154785,17.451355,28.125,28.125Z"/>
  <path class="st52" d="M407.8125,346.2890625c.2629395,2.9343567-.1057434,2.7967224-2.5718384,1.6923523-3.6419983-1.6309814-7.2507324-5.0569763-9.7328491-8.1376648l9.9937134,7.3540955c.9607849.6801758,1.6791382-.7546692,2.3109741-.908783Z"/>
  <path class="st53" d="M429.4921875,273.046875c1.267334,1.8753357,3.8370056,4.3859253,3.2225952,7.0372009l-3.8085327-7.0372009h.5859375Z"/>
  <path class="st40" d="M232.6171875,240.8203125l.6305542-1.0692291c23.6452026,4.6053009,47.2366638,9.3742218,70.7744141,14.3067627-.8821106,6.5763092-1.8321838,13.1013031-2.8502808,19.5749664-1.9165649,11.5006104-4.8462524,22.8287354-8.7890625,33.984375,1.419281,1.1569214.6290588,3.4424438-1.171875,3.515625l-1.7578125,4.6875c.7286682,1.6581726.3181458,3.0735779-1.171875,4.1015625l-.8379211,1.1358948c.15271,3.3180847-.7398682,4.8925781-2.6777039,4.7234802-.7911072,3.824646-2.8972778,8.0091248-5.2734375,11.1328125.1040955.411377.1859741.8229675.190094,1.2353516.0121765,1.2122192-10.0090027,15.7251587-11.73526,17.6403503-.5055542.5608826-1.2205811.8425903-1.931427,1.0461731-1.0444946.3553162-1.7884521.2177429-1.4876404-.8059998,5.2766724-20.0159912,9.0881348-41.2737122,12.6204834-61.3033752-.3021851-.8652954-.6765747-.6270447-1.4536438-.6060486-3.6199036.0978088-6.2522278,3.662262-7.9213562,6.4654236-1.8355408.2050171-1.1687927-.4725952-.7128601-1.5904846,1.3385925-3.2819824,2.4359131-5.0114746,5.587616-6.7183533,1.9325562-1.0466309,4.7299805-.9136963,5.6707458-3.4028625-1.3431702-.0488281-3.0552063-1.1629028-4.3218994-1.021698-1.4564514.1623535-2.2453918,2.0386047-3.6153564,2.2085876-3.5692749.4428711-11.2727356-.5523682-15.0453796-1.3544922-2.4177246-.5140686-7.2523804-2.6025696-9.0051727-2.7642212-3.3302612-.3071289-7.1465149,1.8596802-10.9211273.4258423-.8454437-.321167-1.3208008-1.2946777-2.0466614-1.4911804-.6212158-.1681824-1.5828705.454834-1.9560547.2158203-1.3374634-.8566589-.9042969-4.0357666.2983398-5.0665588,1.7043304-1.4607849,4.3522949,3.6891479,6.6955566-.3132935,3.468338-5.9241638-7.3821869-5.5132446-8.4559021-7.2451172-.9974823-1.6089172,1.5196686-3.3864441,1.3695374-4.8910217-.0658417-.6599426-.8609161-1.490448-1.0169373-2.4694214-.2024536-1.2703247.270462-2.868042-.1172943-3.9974365-.2851715-.8305969-1.981308-.8540955-1.6649933-2.1256714.1304321-1.304718-.1880493-2.8543701,0-4.1015625-.7271881-2.7855072.275177-8.5539856,2.9296875-9.375,1.201767.6872406,1.201767.4919281,0-.5859375-1.5493011-.9546356-.6677551-4.1436615,1.171875-4.1015625h.0000305Z"/>
  <path class="st119" d="M248.4375,71.484375c1.1568298-1.426712,1.9380798-1.426712,2.34375,0,2.0479889-.9254913,6.0181885-1.0574722,7.6171875.5859375,1.4310303.1819916,2.4075928.5726166,2.9296875,1.171875.9522705,1.8153763,2.4644775,3.4437332,4.5366516,4.8850861,9.5334167,12.2372971,22.655365,19.7572937,35.9836121,27.3685913l1.6672363,1.7306976c3.1850586,3.5857849,4.7694092,11.0575333,4.1015625,15.8203125.4359741,2.5088577-1.9577637.9616165-2.4345703-.9050217-10.3132935,11.5719986-21.2200012,22.1584854-32.7201233,31.7594833-1.4668579,1.3003082-4.0021667,12.08992-.0469055,10.7555084,14.6163025-4.9311981,30.111908-11.9578552,43.9378662-18.8679199.3198547-.1598663.6178589-1.6984253.7015686-2.2348633.0953674-4.5430298.4144897-8.3438568,2.8668213-12.3040619-.8395081-2.5252533,7.4163818-5.5614319,8.7655945-4.6063919,1.47052,1.0409164,2.6273193,8.0309982,1.3981323,9.9566422-1.9234009,3.0296936-3.7206726,5.8614349.9690857,3.4388123.0140076-2.1551971,3.6398621-2.5919647,5.5429993-2.060318,2.9338989,2.5782471,4.0763855.9997864,5.997467-1.8893738l1.3501587-.151886c-.6060181-1.0810089-.4913635-3.5716248,1.0508728-3.4436798,2.326355.1930084,2.7103577,8.0102997,1.1425476,10.7481537-.9592285,1.6750946-4.6511536,4.0326843-6.3692017,5.1281891-.1019287.0650024-.2939758-.0113068-.5117493-.1279907-3.8204651,4.5969543-9.960968,4.8757019-15.4786377,3.9645691-.1975708,2.5442047-.7020874,4.7383118-1.5135498,6.5823059-.9208374,1.1496735-1.6313477.575943-1.7740173-.8377533-14.2164001,17.4175568-30.2331848,31.2722626-50.9472046,39.6310272-7.2752686,2.9358063-14.8713837,4.8931885-22.2787933,1.6363983-5.5630493-4.3956299-1.31073-9.33284-2.34375-14.0625l.6663208-1.2549438c2.9102478-1.0792389,5.8131409-2.2234192,8.7086792-3.4325562-.0169373-2.4459229,4.7178497-4.8363342,7.0312653-5.859375-2.7889709-.9417114-5.7447662-1.7398834-8.8673401-2.3944855-4.8237457-2.0326538-10.0321503-4.2054291-15.1560974-2.878952-.5681-1.8594208.6640625-2.746521,1.2582092-4.8908081.4091644-1.4767151.6383209-2.9473267.4996033-4.4841919,1.3861237,1.0218201,3.0314941.8359375,4.9360962-.557663,3.356369-.5535126,6.2893677-1.680481,8.7989655-3.3808899-1.6534882,1.2543335-5.548233,3.2148895-6.7038116,1.0088654-2.5040894-.5493317-5.0546265-.7301483-7.6171875-.5859375l-.9297943.8148041c-1.3894958-.9527893-2.8373718-1.4197083-4.3436432-1.4007416-6.7712097-5.6567993.272522-9.1660004,3.515625-14.6484375.4978638-3.4873199,1.6697388-6.2216949,3.515625-8.203125-.2038422-2.5309601-.5944672-5.0700226-1.171875-7.6171875-2.7380066-5.1526184-7.0362244-6.7138901-11.6361237-9.7669754,1.6057129-16.8492737-1.8914642-41.8567505,21.0111237-44.1392746l.000061.0000458Z"/>
  <path class="st24" d="M296.484375,215.625c.1679077-1.7983093,2.535614-1.751709,2.9296875,0,1.1339722-1.2801208,1.5949402-1.0693359,1.171875.5859375,1.0365295.9544067.7150269,1.7764893-.9645081,2.4662323,1.2589722,1.6006927,5.1927795,7.0801392,5.1123352,8.7711334-.029541.6210632-.2350769,1.1690826-.6322021,1.6532593,1.179657,3.4521637,1.7655945,6.9677887,1.7578125,10.546875.4929199,11.3278809-1.5840454,23.1425781-4.6875,33.984375.0182495-.1006165-.7452087-.8866272-.5610046-1.9665527.4229736-2.4795837,3.815979-15.5704041,2.8422241-16.7252045l-70.835907-14.1207581c-1.3955688-1.9914093,1.1898956-6.0619202,2.5544128-8.0145721,1.7232208-2.4659729,4.8090057-5.773056,7.4065247-6.6338654,11.9299316-7.3762665,39.8721619-9.8239899,53.90625-10.546875v.0000153Z"/>
  <path class="st17" d="M304.1015625,43.359375c8.8345947,3.7002754,16.4471741,10.982708,23.1078796,17.8615913,13.7390137,14.1890678,24.2131042,32.2100639,32.8152161,49.7618675.4045105.8253632.364502,1.7931519.3269043,2.6890411-4.6074829-2.7918396-9.605835-6.3561783-12.890625-10.546875-.4275818.3375626-1.0476379.5946732-1.4042969.2669601-14.4692993-13.294632-31.9202881-26.3869247-48.5985718-37.524025,12.0462646,9.2008667,23.5333252,18.9707642,34.4611816,29.3096771l7.5749817,4.768837c-.0197754.5992355-.1120911,1.9131622-.2002563,1.8792038-15.7788086-6.0773468-32.1817322-14.4647675-46.9036865-22.5524139-5.8810425-4.5806961-12.0615234-8.6256027-18.5414429-12.1347122l-.2160034-.9275894.7026978-1.0194931,17.6774597,4.9816284-6.8760681-5.7969742c-4.071167-3.6905975-6.3531799-9.7533226-1.6333618-13.902401l-1.0816956-.6690102c-1.9393311-.1245117-1.1452637-1.288784,0-2.34375,8.0463867-4.3862953,12.4333496-5.5897484,21.6796875-4.1015625Z"/>
  <path class="st48" d="M322.265625,158.7890625c.8096008,4.1670837-3.9340515,18.5399017-7.3116455,20.7428284-.1726379.1125946-.5086975-.0254059-.8914795-.2350159.3460693.9224701-.0879517,1.738678-1.3020325,2.4485931-9.7269592,5.5583954-19.8993225,10.2146301-30.5171204,13.968689l-3.3370972-.0110321c-7.0742798,2.5718536-19.2428284,6.7513123-26.5076447,5.707016-2.0618134-.2963867-3.5285492-.9236603-5.1329803-2.191391,2.8014374-.1766663,5.7751312,1.1496429,8.4911499,1.2119598,7.3978577.1697388,24.7616272-9.4451599,31.7465515-13.4156647,13.9467468-7.9278564,23.4577637-20.9512939,34.4722595-32.3246002.5131226.8812866-.2903137,1.9921112-.3187256,3.1896057-.023468.9897003.6140137.8545532.6087952.9089966l-.0000305.0000153Z"/>
  <path class="st73" d="M315.234375,180.46875l.0450439,1.9249878c-8.46521,9.2694855-13.6426086,19.1643982-14.4412842,31.8720856l-1.4240723,1.3591766c-.7606201-.1289978-2.0872192-.043396-2.9296875,0-5.2507629-5.4985046-8.3374939-14.667572-14.6768188-19.0174866-.9162292-.6286926-1.7721863-.97052-2.9013062-.9043884,7.8509216-2.854187,29.3268738-11.2671051,35.15625-16.40625,1.3090515-1.1408386,1.9608154-.2070465,1.171875,1.171875Z"/>
  <path class="st13" d="M221.484375,233.7890625c-2.6964722-4.5291901,11.271225-21.25383,12.8024902-21.1074677.6228485.0595245,1.7111359,1.686142,1.2600098,2.3574677.8894348,4.768631,4.0529022,7.6316376,7.03125,11.1328125-.1566315.0968475-.2955017,1.1879425-.7564087,1.5609283-5.2755127,4.2691498-6.822937,6.6775818-9.2045288,13.0875092-.5623169,1.5134583-.74646,2.7478485-1.171875,4.1015625.5048676.1575317.4950562.3535767,0,.5859375-.7728882,2.5760956-2.5680847,6.9766541-2.9296875,9.375-3.1378632-7.2450714-6.2723999-13.1015015-7.03125-21.09375Z"/>
  <path class="st11" d="M311.71875,44.53125c23.4062195,19.0830688,37.3967285,41.9783325,50.6734924,68.5647888.2511902.5029831,4.1279907,5.6684723,1.7759705,4.6723099-.8812866-.3732529-2.364502-2.6805191-3.2307129-3.5105362-.5071106.250946-.6837463.0289154-.5859375-.5859375-5.4407349-8.2212906-8.9997559-17.4806213-14.1750488-25.9616547-10.9665527-17.9714584-24.7074585-32.4551277-42.0749512-44.3508453,2.5770569.414772,4.9364624,1.5898132,7.6171875,1.171875Z"/>
  <path class="st87" d="M258.3984375,65.625c.5116272.1663132.5041809.3620529,0,.5859375-1.323822.1703491-2.9372864.2324448-3.5151215,1.7523193,14.6190643-3.868515,23.6190338,10.0497437,33.7990875,17.4754333,3.2818604,2.3938904,7.1500244,4.6534958,10.7316589,6.5534973,1.2781067,1.0276794,1.8252869,1.757637,0,2.34375l-1.8816223.3997345c-9.5285339-4.1928558-17.4277954-11.2069168-24.4855652-18.563797-1.428894,1.0064697-3.4723511-.7684937-2.9296875-2.34375-5.9314575-2.4933701-13.3269348-3.654129-19.3359375-2.34375-.7649536.0015793-1.5933075-.074791-2.34375,0,.731781-2.0836792,2.9887543-3.3067245,4.6875-4.6875.6615143-.2614822,2.1237793-.9613266,4.3867493-2.0995407l.8866882.9276657Z"/>
  <path class="st105" d="M235.546875,215.0390625c-1.649231-2.7917938-1.5098419-.574173-2.3283997.2790222-5.2894745,5.5132751-10.0911713,10.6607208-11.7341003,18.4709778-.6648254-7.0019684-.4732819-7.7163239,3.515625-13.4765625,6.0290222-8.7062836,13.4705658-11.6244507,15.1632996-23.2156067.4736786-3.2434998.2953339-7.4075775.6629486-10.7658386l1.7723389,7.9394073c-.3803101,4.3034058-.7776947,7.9277649-2.8535156,11.7832184-1.000885,1.8589478-4.0594482,4.9052277-4.5245514,6.06073-.2565308.6373291.828476,1.2503052.8911896,2.0280762.035614.4417572-.5763855.8346558-.5648346.8965759Z"/>
  <path class="st121" d="M259.5703125,174.609375c-.1525269-1.0287628,1.4762878-.8942566,1.7578125,0-1.3783875,2.2215729-4.8000793,4.3443909-7.03125,5.859375-2.638855,1.1151276-6.5501404,2.758255-9.4729614,2.6059265-.8841858-.0460815-1.4570312-.3651581-2.2457886-.848114-1.1019592-1.4423676-2.2471161-1.8148041-1.7805481-4.3825073.8223419-4.5256348,15.0004425-3.2346802,18.7727356-3.2346802Z"/>
  <path class="st70" d="M239.0625,125.9765625c.8241577,2.1128845,1.2424469,4.9651031.5859375,7.03125.1420288,1.9616241-2.9693146,2.6014709-4.1015625,1.171875-1.578537.3406219-1.1280975-.8011322-1.4551697-1.7375183-1.4874878-4.2585144-3.5798187-7.7128143-5.5759735-11.7331696,3.9478455.4709549,7.6155396,2.7117462,10.5467682,5.2675629Z"/>
  <path class="st85" d="M237.3046875,169.3359375c1.7624054-2.6355133,5.2081757-1.5584259,7.7364349-.9966125,5.7077332,1.2683105,10.9991913,5.078064,16.8701019,5.1011047.3288269,1.1014404-.4666138.9811859-.5830994,1.1689453h-1.7578125c-4.0173645-1.0073853-9.0024719-1.599884-13.1608276-1.7826233-2.3110504-.1015472-4.9450226,1.1815338-5.2145538,1.1377258-.9683685-.1574097-3.5338898-3.4621582-3.8902435-4.6285553v.0000153Z"/>
  <path class="st34" d="M246.09375,157.03125c3.9461212-.4256897,6.5456848-.848587,7.6245117-5.2691345,1.9320831,1.17836,1.1287079,3.5609741-.0020447,4.9851837-2.9628601,3.7317657-11.0225525,1.9859009-13.7776794,7.3123016-.5661926-1.5484161.0927277-2.4073486-.8760376-4.0986481-.9292908-1.622406-3.9380035-2.4964142-5.859375-4.1015625,1.3157196-.3133545-.9905548-1.4567261-.5857086-1.7520599.4662933-.3401489,4.6679535,1.9783478,5.8591461,2.3379974,2.5515442-.1790466,5.132843.0021667,7.6171875.5859375v-.0000153Z"/>
  <path class="st109" d="M282.421875,47.4609375v2.34375l-.81604,1.530571c-6.1486511,3.3939209-11.9328613,7.4964142-17.3526611,12.3074799-1.5895691.9083023-4.1711731,1.8240051-5.8547363,1.9822617-1.0602417.4520645-3.5505829.26297-4.9689178,1.7621994l-.3045197-.5903244c7.943573-6.4566803,20.2624207-14.411026,29.296875-19.3359375Z"/>
  <path class="st28" d="M240.234375,133.0078125c-.2851257,2.2493286-2.3228607,6.1867676-3.515625,8.203125l.5800476-5.2733459-2.6337738,4.0984955-.295929-2.340683c-1.4659271,1.1513519-3.1494141,1.9842072-4.6786652.2899628,3.3325806.3690948,4.1915741-3.013916,5.8564453-3.8056641,1.1104126-.5280762,2.9302979-.4499054,4.1015625-1.171875.1663208-.5116425.3620453-.5041962.5859375,0v-.0000153Z"/>
  <path class="st77" d="M254.296875,180.46875c-2.8670502,1.9467468-5.7455902,4.4473724-9.375,4.6875-.1789856-.819458-1.8606415-2.2973328-2.34375-2.9296875l11.71875-1.7578125Z"/>
  <path class="st81" d="M240.234375,133.0078125h-.5859375l-.5859375-7.03125v-.5859375c1.3840332,2.6045837,1.559082,4.5625916,1.171875,7.6171875Z"/>
  <path class="st41" d="M347.4609375,103.125c.6956177,1.2418594,1.7088623,2.3259583,3.0397339,3.2523041l-.1100464.8492584c-2.8885193-.6746063-5.4246216-3.6212082-7.921051-4.6795654-1.6439819-.6969681.5226135,1.6896439-1.1494446,1.155365-14.704071-8.3085938-32.0638428-13.592041-46.6045532-21.9530792-5.9207764-3.4044952-11.2307434-8.323967-17.0278015-11.6831436-4.9488831-2.867691-9.2113342-3.5158386-14.6018372-5.0270767.8581848-2.2201042,8.223114-1.0844002,10.1151123-.2133865l.4317627,1.3852615c6.9395142,2.6653595,16.1846313,10.7850418,23.0440674,14.7488861,9.9276733,5.7368698,22.4678345,11.2079544,32.9839478,16.2348022,3.1139221,1.4885025,6.4091492,2.840126,9.5967407,4.1668243-1.8957825-2.1087494-5.092926-2.9575729-7.3239136-4.6818314-5.9541931-4.6018066-12.1658325-11.3921585-18.1785278-16.391777-9.2798767-7.716301-19.304718-14.6001587-27.8147278-23.1617889l.8683777-.2854767c19.3955078,13.8983459,38.9363098,27.6654663,57.4135742,42.7846146,1.2452087,1.0188904,2.2727356,2.6936722,3.2385864,3.4998093Z"/>
  <path class="st89" d="M282.421875,49.8046875c1.8340454-.581028,3.948822-.8724365,5.8591919-1.1660538-1.9284668,1.9611092-3.887085,1.4708672-5.3853455,4.2717628-4.4226685,8.2678909,9.2468872,14.6596413,13.5883484,19.7401772l-22.8512573-6.4396362c-2.8163147-1.0817108-7.5397644-1.4166183-10.546875-1.171875-1.0302124.083847-2.703949.4725571-3.515625,1.171875-.3837585.0120087-.7997131-.0478897-1.171875,0v-.5859375c8.6781311-3.7002029,15.0062561-12.9636841,24.0234375-15.8203125Z"/>
  <path class="st97" d="M350.3846741,76.7548599l-4.4593506-11.6450272c-3.7180481-7.3151855-8.4266052-14.0096817-15.2718201-18.7125702l-10.7286987-5.961628c18.5664978-1.2134209,31.4567871,19.4059181,30.4598389,36.3192253h.0000305Z"/>
  <path class="st71" d="M347.4609375,103.125c4.3283386,3.6126556,8.4696655,6.327446,12.890625,10.546875.2001953.1910553.3869934.3953094.5859375.5859375-.5606384,1.4511337-1.5639954-.2287674-2.0450745-.592804-2.850708-2.1572266-6.0658569-3.7468033-8.5018005-6.438446-.9531555-1.0531998-2.0999756-2.40345-4.0740356-3.2509232l1.1443481-.8506393Z"/>
  <path class="st9" d="M369.7265625,121.2890625l-.5859375.5859375c-3.8920288-8.5842285-7.7097778-17.2531052-11.71875-25.78125.0708313.1217728.7384338.395462,1.0818481.9419708.7894287,1.2562637,1.440155,2.9398499,2.1551819,4.31707,3.3582153,6.4683533,6.0151062,13.3331985,9.0676575,19.9362717Z"/>
  <path class="st4" d="M357.421875,96.09375c-.091095-.1566315-.8495178-.5729446-1.289978-1.3221283-2.0530396-3.4918671-4.2842407-7.7796936-5.7353821-11.5684052,3.296875,3.6930847,4.9674683,8.5128632,7.0253601,12.8905334Z"/>
  <path class="st20" d="M333.3984375,59.765625c-2.769104-2.697258-5.4433289-5.5279274-8.203125-8.203125,3.9482727,3.0639915,5.1429749,4.1433792,8.203125,8.203125Z"/>
  <path class="st59" d="M343.9453125,73.2421875c-1.6874695-2.0617752-3.6376343-4.0599823-5.1775818-6.2535934-.6371155-.9075623-.9118652-2.0152206-1.2677307-2.5354691,3.0381165,3.275238,4.2122803,4.9533844,6.4453125,8.7890625Z"/>
  <path class="st114" d="M319.921875,46.875h-.5859375c-2.0385437-1.469017-4.8509216-2.6018791-7.03125-4.1015625.2106018-.5261269.1402588-.6871338.8608398-.5754623,1.5257874.2364616,5.3504333,3.5882111,6.7563477,4.6770248Z"/>
  <path class="st14" d="M325.1953125,51.5625c-1.8049316-1.4006996-3.9751587-3.3296776-5.859375-4.6875h.5859375c2.2954102,1.7776604,3.2519531,2.7279739,5.2734375,4.6875Z"/>
  <path class="st31" d="M343.9453125,73.2421875c1.1759033,1.4367371,3.4442749,2.9315186,3.5098877,5.2731934-1.9771423-1.1004715-2.5958252-3.7031174-3.5098877-5.2731934Z"/>
  <path class="st51" d="M337.5,64.453125c-1.7851562-1.9244728-2.4792175-2.5352173-4.1015625-4.6875,2.0823975,2.0283737,2.451355,2.2750282,4.1015625,4.6875Z"/>
  <path class="st91" d="M299.4140625,94.3359375c.2170715-.4562836.5447083-.7067719,1.0192261-.6838531l12.4957886,5.6559296,1.1334229-.2845764c8.4726562,3.9954834,18.1580811,7.8137512,25.1953125,14.0625-.6842346.9556198-1.8184509.9317093-3.4026184-.0717316,11.499176,9.0403519,18.8833313,21.3768158,24.8972473,34.7328491l3.1147461,5.1826324c1.1614075,2.5448608,2.7510071,4.895401,3.515625,7.6171875-.082428,3.5170593-3.5202942-1.1971283-4.3322449-3.111496l-3.5675964-6.7976379-.8892212.5341339c.8697815,2.8450317-.502594,5.5545349-1.7194824,1.7068176l-1.503418-.938797c-.0570984,1.1099548-.2533569,1.8588867-1.4646301,2.1616669.4016724,6.3962402.4016724,12.8415527,0,19.3359375.7399902,8.4480896,3.4692383,16.2014465,7.5775757,23.6486206l.0396118,1.5466919c1.4194641,2.6562958,2.6766357,5.5502167,4.1015625,8.203125.8823547,1.9644165,1.2729797,3.722229,1.171875,5.2734375l-1.6584473.1632385c-12.0454712-9.8052216-21.2308655-25.1566162-20.3075562-41.3143921-.2614136,1.1432953-.8080139,1.7989655-2.0574341,1.8933563,1.8849182,3.0397491-13.5569458,18.9369049-14.8164673,18.7195435-1.7956543-.3098755-2.3900452-1.2324982-1.2285767-2.8249207,4.4222412-3.977417,8.3425903-8.3841553,11.7610779-13.2202148l1.9402161-.9165955.5599976-3.7496643c2.5653992-6.9778595,5.7918701-16.0458679,1.9563904-23.0010223-1.1408691,1.1837463-2.1749573,1.506897-3.1023254.9694366-.8740845.5266876-1.1455383.3349152-.5859375-.5859375,1.4534607-1.0459442,6.2984924-5.5242004,6.7720947-7.0010071.9362793-2.9196014-.9987793-4.8057861-.9161987-7.6503143-2.021637-.4364471-.8410645,1.3962402-1.168396,2.3466339-2.1269226,1.0135345-2.5950317-2.3779144-.5859375-2.9296875.8643799-4.9196167-1.7044678-8.914444-5.1058655-12.2288895l.4183655-1.247673c-.954071.3306122-1.7493896-.0529404-2.3859863-1.1506653l-2.8155212,1.9243546c-3.7436218,6.391983-9.6378479,8.9556503-16.3778687,5.3008957l-4.3269653-7.4831696c-.8123169,3.7269058-.4154358,7.5378342.0366211,11.3013306l-1.0834351,1.2400665c2.2578125.9310455,1.5089111,5.8549042-.8400574,5.3116455-.984436-.2276764-2.4790955-5.7938232-.9177551-6.4835205-.2428894-5.661232-.8091125-11.2770157-1.6986389-16.8473511-1.7464905-3.2728882-3.7193298-6.446167-5.9185486-9.5198364l-1.4667664.1271439c-2.4483948-2.8858948-5.3945007-5.3059006-8.4941101-7.4589157l-.000061-1.4572906c-2.0256348-.3476105-3.8731079-1.6474152-5.5591736-2.8480835-2.5393372-1.8083115-15.1784973-13.1262436-15.1638794-14.9812546.0042725-.5431747.7722778-.6466904,1.387146-.3347244,10.6879272,8.6371536,13.1985474,11.9503555,26.3671875,18.1640625l.0000305-.0000153Z"/>
  <path class="st27" d="M367.3828125,160.546875c5.6480713,8.3551941,10.8053894,17.0485535,16.5139771,25.3805542,3.2511902,4.745285,12.3570251,15.0750122,14.0779419,19.3204956,2.5473022,6.2841187,2.723999,15.9577026,5.2738037,22.2652588,1.5206909,3.7617798,5.1907959,7.7551575,7.4936218,10.9633942l-8.5031128-8.196106c-1.8760376-2.3234558-3.6936951-4.7156982-5.5593872-7.038269-11.3293762-15.039856-20.7658081-31.20047-28.3093567-48.4818573.4582214,1.0454865.4596558,1.9101257-.4015808,2.7787323l-.5859375,1.7578125-.7058411.328476c-1.5021667-2.9209442-2.6340942-5.7648163-3.3957214-8.531601l-.5859375.5859375c-1.9135742-.6951904-2.5290833-5.4872284-2.6184082-7.5888062.5159912-1.9377289.4122314-3.5096893-.3112793-4.7158813-1.7165222-.3412476-2.0907898-4.7387848-.9617004-5.5992126l-.2101746-2.6039124c.0615234-.7802582-.5092468-2.9397583.5783691-2.9251251,2.3744812,3.3038635,4.9173279,9.4884644,7.3727417,12.3492126.4820557.561615.8144531-.0838623.8379517-.0490875l.0000305-.0000153Z"/>
  <path class="st108" d="M339.2578125,113.0859375c11.6598816,10.3534546,18.2556763,25.9216919,24.609375,39.84375-5.0519714-5.091095-7.3474426-12.7597198-11.2452087-18.9305725-2.5133362-3.9790497-6.1318359-8.9225769-9.2474976-12.4321899-1.5109558-1.7019882-9.7064209-8.7372665-9.9707336-9.3682175-.4601135-1.098465.7010193-.9689407,1.4277039-.8438339l4.4263611,1.7310638Z"/>
  <path class="st65" d="M314.0625,99.0234375c.07547.4591446-1.492981.2390518,1.7637329,1.4648209-.0713196,2.0729752-15.4838562-5.7142868-16.4121704-6.1523209v-2.34375c2.0449219,1.0848083,14.5166626,6.2295761,14.6484375,7.03125Z"/>
  <path class="st13" d="M225,200.390625c-1.1815643,1.2957611.5379639,3.0706329.3348541,3.5169983-.3696747.8124084-2.400238,1.778244-2.6784058,2.9225464,1.3325348.440567,2.7069855-2.3053436,3.2224426-2.3262329.7403564-.0299988,1.0441132,1.6815796.7868347,2.5283813-.1609192.5296326-5.5856171,4.9263306-6.6725006,6.222641-3.3362274,3.9790955-7.5548553,10.037674-7.8838501,15.2606812l-1.7519684,7.6143646c-.1968231-6.9330139-3.9201355-14.6135406-1.8924561-21.5127411,1.8507843-6.2972565,11.674057-10.1879578,16.5350494-14.2266083v-.0000305Z"/>
  <path class="st3" d="M254.8828125,397.8515625c.1728668.5281372.3227386,1.0592346.3920288,1.600647.0690308.5393372.1304321,1.057373.0075531,1.5210876-5.3259125,20.0983582-10.9794159,39.8966064-17.6534576,59.5958862-.1513062.4465942-.4954376.834259-.8577576,1.2382202-.3614044.4029541-.7841034.7509155-1.2243195,1.0831909-.0608063.1662598-1.1941833,1.4814453-1.7578125,2.9296875-1.8169861,4.6686707-3.7564697,8.4762268-5.859375,12.890625l-1.7651825,2.9253235c-1.0914154.1327209-.4594879-1.1901855-.3179626-1.7817078.9115143-3.809967,3.0455627-8.2588196,4.2578735-12.1524963,5.4379272-17.4655762,9.9855194-35.2064514,15.2475891-52.7211609,5.7117462-19.0114441,12.6541748-37.7816467,17.7339478-56.9730835l.9492493.3467712c-2.8204041,13.2575989-5.8711853,26.4232483-9.1523743,39.4969788v.0000305Z"/>
  <path class="st8" d="M266.015625,356.8359375c.6336975.8167725.5432434,1.7487183-.2713928,2.7958374l-9.5534363,37.8279419-1.3079987.3918457c.0243225-.0939941-.7607574-.7759705-.4754333-1.8828735,2.8135834-10.9155579,7.3814545-24.1550598,9.029007-35.0273743.168457-1.1116638.0592041-1.9016418-.3504333-2.9335022,5.2882996-19.9793091,8.8121948-40.3892517,12.8979492-60.6367188.2025452-1.0037842.0883484-2.0482788,1.1645508-2.6445312.2283325.6538086-.5050659,6.5322876-.660675,7.8354187-2.0334167,17.0303345-6.5503845,34.8749695-10.5393677,51.5778503-.1872864.7842407-1.0131226,2.197876.0672302,2.696106Z"/>
  <path class="st21" d="M288.28125,319.921875l.7831116.5306396c2.5670166-5.2918396,6.3565369-5.4518433,3.9975586.8316345-1.9849243,17.738678,1.1217651,35.5415039,6.3083801,52.4925842,9.5077209,28.272522,19.038208,56.7803345,26.4320068,85.7230225,1.9614868,7.6781311,3.1417236,15.0768127-2.0246887,21.6559448-28.7637024-4.870636-57.3927002-10.7637024-85.8870239-17.6791687-.7819061-.1927795-1.5604858-.3988647-2.34375-.5859375,7.0017853-19.1425476,14.1644897-45.0538025,19.3359375-65.0390625l9.6449585-38.1077576c.159668-1.1531982.9820557-1.9574585,1.487854-2.9078674,3.6727905-6.9015808,9.5592041-12.9477539,13.4765625-19.921875,2.2789001-2.7744141,4.6889343-7.5340881,5.2734375-11.1328125.6429443-1.3200684,1.4066467-1.6300964,1.7088318-2.2210999.5107422-.9988708.0052795-3.071991,1.8067932-3.6382751l.0000305.0000305Z"/>
  <path class="st16" d="M316.9921875,258.3984375l1.4260254,3.269043c5.7913208,27.2235718,8.9510803,55.1222839,11.2809448,82.8400879l-.4022827,3.5393066,1.2204285.4204407c1.350769,13.3387451,2.7044067,26.7059326,4.0609131,40.1015625l-.5938721,5.7670593c-.5281677,8.7981262,2.4916687,19.4159241,2.348938,28.4127808l6.4401245,52.4465942c-.2008057,2.7601624.0378113,5.4979248.583313,8.1999207l-7.614563.0032043c-33.6567078-4.0728149-65.0608521-11.8368225-97.8515625-19.921875l84.225769,17.4553223c1.8652344-.0736694,3.9830017-7.160675,4.1853943-9.0201416.5769958-5.3015137-1.7025146-12.1212158-3.0309143-17.3505554-3.585144-14.1134338-8.0909424-29.223938-12.5680237-43.0960388-9.7139587-30.0983276-22.2526245-57.1931152-18.8440552-90.0165405.1581116-1.5226746.9483337-2.9333191,1.1079407-4.4523315l-4.9864502,6.4362183c-1.7560425.7469788.0976257-2.7937927.3009949-3.5105896.3878479-1.3670654.7933655-2.7316895,1.171875-4.1015625l1.7578125-4.6875c.3235474-1.1365662.8283081-2.2597656,1.171875-3.515625,7.3096008-22.7649536,13.196991-46.2333984,14.0625-69.7265625-.8812256-2.8045654-1.6624756-5.7342529-2.34375-8.7890625-1.7226868-4.7984161-3.8325195-8.4441223-7.6143188-12.0145569,1.5208435-.5899506,3.1765747,1.5058594,4.0986938-.8760681.3363037-.3648682.9724426-.7584839,1.1952209-.5167847,5.9918518,6.5007324,9.9253235,17.0357819,12.4508362,25.5368652.9348755,3.1468964,3.9586182,13.5925903,3.3050842,15.8931274-.1252136.4407959-.3244934.8605347-.5448914,1.2742615Z"/>
  <path class="st120" d="M372.65625,219.140625c.3805542.1506195.7080078.3286591.8496399.6027527,4.0079346,7.7559967,3.1786804,8.8841248.1465759.3457031-.0931396-.2622833.0128174-.5952759.1756287-.9484558,5.7671509,4.4159088,10.3013611,12.7463074,14.5113525,19.1792603,1.2983398,1.9838867,3.0292664,3.2987823,4.2386475,5.4301147.6329651,3.3849182,1.9247437,6.5794678,2.642334,9.955307,2.3766174,11.1805573-.3491821,16.241806-2.4950256,26.8130951-.4849548,2.3890076-.3266907,5.2896729-.8952332,7.8938293-2.257843,10.3418579-7.3634338,17.6513977-2.7677002,28.5799561,1.6917114-.3653564,1.9007568.816925.5859375,1.7578125-1.3515015,3.7709351-.454071,6.9294739.3315735,10.5112915.2492371,1.1362915.884552,2.0526733-.917511,1.793396-.7112122-.4659424-1.8594971-.2233276-2.9490051-1.4462891-.9748535-1.0942383-1.4232788-2.9959717-1.7384949-4.4130859l-1.42099-1.2039185c-.8720703-2.3822021-.9178467-10.3618469.8350525-12.272644l1.2629089-11.7567444.8972168-.5540466c1.818573-6.3718567,3.4905396-12.9892883,4.2851868-19.3298645l-1.0658875-.9543152c1.2490845-3.9646301,1.1582031-7.7131348-.2727051-11.2456055l.752655-1.2766724c-1.5574646.5493469-2.121521-.4536743-1.171875-1.7578125l-1.9430847-1.4220581c-1.8111877-3.1477051-9.8629456-18.6665344-9.555481-20.7711029.0618896-.4235535.2025452-.8355865.3657532-1.2443237l-1.8184509-1.6702118c-2.2471008-7.535553-4.3847656-15.3834534-4.6268616-22.9391632.923584.1460724.8084106.2302399,1.7578125,2.34375l.0000305.0000458Z"/>
  <path class="st80" d="M396.09375,251.3671875c6.5823975,3.9321747,11.4124146,11.7224426,12.3107605,19.3328552l.5798645-2.3406677c1.4838562,16.1653748-3.3003235,22.9310608-13.3626709,34.9772034l-2.4516296,5.4496155c.0650635-4.3507385.8457947-8.7880554,1.918457-13.0140381,1.3334351-5.253418,6.6711426-14.9120178,6.8922424-18.9354248.2709045-4.9301758-2.9481506-9.1710815-4.2272339-13.3597717-1.2118835-3.9685364-.8119202-8.5737915-1.6597595-12.1097565l-.0000305-.0000153Z"/>
  <path class="st84" d="M373.828125,219.140625c5.4070435,12.4949036,17.1420288,22.7770538,19.2758789,36.6812744.1914062,1.2471619.4173584,12.5261536-.2329102,12.543396-2.8259277-10.8943787-9.8844604-20.1700439-14.0522766-30.4848785-2.437561-6.0326538-3.5255127-12.8692932-6.1625671-18.7397766.0447998-2.5244293.4936829-.5193024,1.171875,0v-.0000153Z"/>
  <path class="st98" d="M362.6953125,171.6796875c1.380127,6.8862457,3.2003479,12.14151,4.9938049,18.7366333.2314453.85112,1.3617249,4.2993317.2869263,4.6965637-4.0906067-7.3445129-8.2000122-14.4981689-10.3842773-22.721756-.4012756-1.5108185-.4653625-2.8535461-.7558289-4.227066.2078247-2.8141479,1.1194153-7.0014648,2.9296875-8.7890625,1.5888977-1.042984,1.1085205-.572052,1.1741028.8681641.2196655,4.8234558.8516846,6.9263763,1.7555847,11.4365234Z"/>
  <path class="st18" d="M396.6796875,223.2421875c-8.7547913-10.8987579-24.5108032-32.8192596-28.7109375-45.703125-1.0803833-3.3141022-1.9083252-7.624176-2.6697998-11.1037598-.1311035-.5991211-.7840576-1.9085236.3187256-1.7825317,3.0654907,7.7007904,5.9211426,15.4499969,9.6628113,22.859726,6.1094055,12.0986176,13.6681824,22.3403015,20.933197,33.5579071.3328552.5139618,1.7451477,1.8033905.4660339,2.1717682l-.0000305.0000153Z"/>
  <path class="st96" d="M370.8984375,216.796875c2.2473145,7.9468842,3.6219482,16.9093323,6.4453125,24.609375-.1695251,3.3363342-2.7344055,3.3894196-3.6098938.1485596l-1.0776062-4.8360596-1.3321533-1.0478668c-2.1687622-8.0570679-5.7179565-15.5923004-10.6475525-22.6056671l.2609558-.9558411c-.6287842-.8261108-.3603821-1.14151.5859375-.5859375l1.9361877.6422729c4.0028992,5.5619354,7.9112854,9.8140717,2.6456604,1.189209l.6915894-1.2455444c-.6750793-1.5464325-.6075439-3.537262-1.7626038-4.9686127l.5907288-.3048248c.8112488,1.5103607,4.7168274,9.8729095,5.2734375,9.9609375Z"/>
  <path class="st37" d="M353.90625,154.1015625c.1018677-1.5980072.5202637-3.0943298.5917969-4.6872864,1.3543701,2.2523346,4.2813721,1.8299713,3.515564,4.6845398,1.0904236.0124512.5184021-2.1441345.5801392-2.9269409.5552368,2.1442108,1.0791016,5.8143158,1.171875,8.203125.1669922,4.2998199-1.4545898,5.0365143-2.9296875,8.7890625-.8239441-3.8957977-1.301178-7.1827393-1.7578125-11.1328125-.4675598-.6867828-.8581848-1.6633453-1.171875-2.9296875Z"/>
  <path class="st100" d="M367.3828125,179.296875c3.00354,6.8183136,6.6192322,13.2982941,10.5389404,19.6398163l-.2821045.865036c-3.8922729-4.733078-5.8903809-11.0205688-9.6651611-15.8170929,2.1787415,6.2426453,5.0414429,12.9346771,8.1974182,18.7497406.390564.9727936.3565063,1.128418-.5859375.5859375-5.2523804-9.4537964-10.3552551-21.5652466-12.3046875-32.2265625-.1692505-.9256287-1.40625-3.6583252-.006073-4.0984802.3819885,3.5375214,1.6445923,7.5113525,2.9962158,10.8033295.2772522.675293.9579468,1.1498566,1.1114502,1.498291l-.000061-.0000153Z"/>
  <path class="st88" d="M362.6953125,198.046875c-1.1977844-.7474213-1.2720337-.9779358-1.171875.5859375-4.7406616-8.8712921-8.2652893-14.1852875-7.6171875-25.1953125-.4798889-1.627121-.2845764-2.408371.5859375-2.34375,1.6629028,9.319931,4.3972778,18.304306,8.203125,26.953125Z"/>
  <path class="st61" d="M355.078125,170.5078125c1.0203552,10.211319,4.7630005,19.8908691,9.3664551,29.0154572-.1118164,2.2768402-1.6686707-1.3028259-1.7492676-1.4763947-3.8787231-8.3545074-8.0439758-17.661499-8.203125-26.953125-.1880493-.5761414.0077209-.7710114.5859375-.5859375Z"/>
  <path class="st29" d="M355.078125,157.03125c-.9371948.7508698-.6882019,2.7472076-.6151123,3.8369751.207489,3.0931702.3187256,6.6735992.6151123,9.6395874-.1925964.1851959-.4458923.3582153-.5859375.5859375-.7130737,1.1593781-.5128784,1.1024933-.5859375,2.34375-1.5892639-3.516037-.1334839-7.8964844.0241699-11.4019012.1182251-2.6287079-.1911926-5.3135986-.0241699-7.9340363,1.5223389.4634247,1.0405579,1.7936859,1.171875,2.9296875Z"/>
  <path class="st46" d="M376.171875,202.734375c2.1543274,3.9695282,5.2111816,7.5428467,7.0254822,11.7185364-2.8725281-3.0123596-5.5552673-7.4317017-7.6114197-11.1325989l.5859375-.5859375Z"/>
  <path class="st124" d="M385.5411072,211.5232239c-2.0047913-1.6092834-3.9644775-4.5047607-4.6759949-7.0308075,2.1574402,1.5856323,3.6794739,4.5803528,4.6759949,7.0308075Z"/>
  <path class="st7" d="M360.9375,253.125c.8753662,2.4113007,1.6250916,5.857666.5859375,8.203125,1.6235046,4.2573853,2.2385559,8.8779602,1.8451538,13.8617554l.4985962,1.3726196.6917419.9392395c-1.8710632,11.6038208-1.6015625,23.3008423-.1058044,34.802948-.5398254,1.3071289-1.3172913-.9743652-1.3708191-1.2661438-.2970581-1.6192932-.2111206-2.8637085-.3910217-4.305542-.1333313-1.068573.2209167-.9532471-1.1678467-.8736267v12.5976562c0,.2625732-.6285095,1.1755371-.622345,2.298584.0230103,4.2036743,2.3448792,9.0945129,5.309845,12.0568848-1.4697571,4.4830627-1.7112122,9.2596436-2.8546143,13.8446045-3.0260925,12.1342468-9.6737366,23.4859619-13.5516357,35.3741455.2348938-1.9358826-.2557983-4.1622925.0291138-6.124115.1992188-1.3717041,1.4315491-1.7887878,1.1366882-4.078949-.184021-1.4292908-2.1192627-4.9433899-4.0954895-4.4453735l-.6174316-1.4706421c5.8409119-14.8039246,10.774231-30.8735657,11.1873779-46.8654175-2.4301147-12.5527344-2.4848328-25.3474731-.1642151-38.3841858l1.3130188-1.1703796-1.03302-1.0525208,2.243042-8.7294312c-.683136-5.723175-1.217865-11.6409302-.2664795-17.4496765l1.4002075-.8933716c1.3096008.5091858,1.3076172,1.249588,0,1.7578125Z"/>
  <path class="st44" d="M384.9609375,337.5l-.5859375.5859375c-4.2843628-3.9354553-9.6993713-6.934906-13.4779663-11.4241943-.5535889-.6577148-1.4206848-.9534912-1.1647034-2.0521545,4.6613464,4.736969,10.3312378,8.4725647,15.2286072,12.8904114Z"/>
  <path class="st111" d="M389.0625,316.9921875c1.9475708-1.6331482.4225769-4.2509155.5869446-6.724762.4503479-6.7770691,2.6160278-16.7428894,7.0245056-21.9859009-1.2624817,4.1100769-2.9944763,8.0317383-3.8088074,12.2984924-1.5409241,8.0736389-2.6213074,16.287323,3.2283936,22.8517151l-5.2732544-3.5098572c-.2651672-.403656-.9597778-.7767029-1.171875-1.171875-.191864-.3574829-.3461304-1.1875305-.5859375-1.7578125h.0000305Z"/>
  <path class="st58" d="M360.3515625,215.0390625c4.9859314,12.2131042,8.1046143,24.899231,9.3560486,38.0583801l1.1908264-.5583801c.5921631-4.7588654.8280334-9.5390625.7075806-14.3406219l1.0502319-1.4796906,2.9275208,6.1575165c1.4616089.7632141-.0986633-1.966095.0028076-2.0504913,1.4025269-1.1665192,1.0176392,2.250412,1.7571716.5804749,2.7987061,7.632843,7.7189026,15.79422,11.1328125,23.4375-.4321289,1.2467651-.0415039,1.8327026,1.171875,1.7578125,2.8466187,6.9743958,1.3082886,6.9054871.5859375,13.4765625-.2717896.9732056-.6624146,1.3638306-1.171875,1.171875-.6218567,3.3131714-2.1610718,7.091095-4.5096741,9.4070435-3.5311279,8.1388855-7.2081604,16.938324-5.6086121,26.0091248-1.3965149,4.0386963-4.2728577-3.2918701-4.6990662-4.9723511.6801758,4.0910645,2.5960693,7.8717957,5.3025208,11.0084534l.139801,1.9071045c-1.8945007-.4475098-3.5998535-3.2861633-4.9286194-5.3252869-5.49646-8.4348755-7.8370972-24.5986023-9.1515198-34.8025208-.1698303-1.3184204.5740356-2.0079041-1.1542358-.8878174l-.5503235-.7910461c3.3261414-18.2148132-.4719238-36.5097046-4.3670654-54.466507-1.1762085-4.8550262-1.7406311-9.642746-1.6932373-14.3631897l1.3371582-.6917725c1.3747864-.8010559,2.1123657.5204315,1.171875,1.7578125l.000061.0000153Z"/>
  <path class="st118" d="M366.796875,212.109375c.7203369,1.650116,2.003479,2.984436,2.6298828,4.694046l1.7675171,5.8499298c-3.925354-3.3400116-6.6547241-7.0630951-9.6708374-11.1299133-1.6943665-1.4180756-3.1340027-3.2649384-4.3189392-5.5406189l-.9544983-.3187561c.7373657,2.3057556,1.8740845,4.5869293,3.4101868,6.8435211l-.4804993.7736664c-.5016785,1.6745148-.1664124,4.3510284.0718384,6.0814362,2.3590698,17.1333466,7.8755188,34.0484314,6.954071,51.6275787-.2129822,4.0629272-1.4097595,8.5500488-1.7524719,12.6034851-.9957275,11.7770691-1.0657349,22.821991,2.3530579,34.2688904-.5568542.9136047-1.5749207-1.7872009-1.6083069-1.9073792-.2733459-.9842529-.4929504-2.4734497-.744751-3.6505432-3.1433411-14.6948242-1.8820801-21.4180298-.5859375-35.7421875-.8539429-5.3811951-1.2535706-11.3506165-.580658-16.7638855-.817749-4.8404083-1.4439087-9.7113037-1.8785095-14.6126862-2.8601379-10.723465-5.8865356-21.3984222-9.1942139-32.0263977-.6676941-2.14534-7.1755066-17.5948029-8.0687256-18.0156403-2.6124268.9415894-3.1779175-1.594635-1.4301453-3.1225433-3.368042-5.6298981-4.2696228-11.759903-.1397705-17.1925507l.1982727-1.9772339c.8026123-1.6759186,1.3648376-3.5214691,2.0775146-5.24646l2.0180969-12.3287201c.2176208,8.3874817-1.8592529,16.3768158-.4328308,24.7522736,1.4385986,8.4470215,6.8486328,18.0854492,12.1585388,24.7555237,2.2030029,2.7673035,5.4846191,5.0842896,8.2021484,7.3251953l-.0000305-.0000305Z"/>
  <path class="st92" d="M389.0625,281.25c1.3434448.1071472.5883789,3.4996033.2857666,4.8334656-2.8893738,8.4969177-4.7424316,17.0420227-5.5592041,25.6352844.0005188,4.4846497-.3878784,9.0985413.5859375,13.4765625l-.8749084,1.7544556c-1.9358215-1.3420715-1.4768372-1.7886658-3.8125916-2.3403931-8.075531-8.544342-8.3350525-18.2749329-4.6950378-29.0143738.221344-.6530457.3300476-2.123291,1.1738586-2.0369873-.8684387,5.8191223-2.3512573,11.7950745-.8938293,17.594696l2.6516418,6.4220581c-2.6340332-13.1055908,4.8175659-25.4730835,11.1383972-36.3247986l-.0000305.0000305Z"/>
  <path class="st64" d="M358.59375,279.4921875c-.9407959,8.2058716-2.4160156,21.6541748-1.7481384,29.5802307.2525024,2.9966431,1.5230103,6.344635,1.7386475,9.3939209.8209229,11.6088562-6.6372986,38.0939941-11.709259,48.9165039-2.6731262,5.7038879-5.6281738,11.3771667-8.4842834,17.0039978-1.8937378,3.7308044-4.1380615,5.4803467-4.4063416,9.9491272l-4.6875-46.2890625.7901917-1.3598938c18.6030884-4.9321289,20.7641602-17.1154175,21.8786621-34.2387085-.1867065-9.7597961.4438477-19.3581238,1.8916626-28.7949524.1335754-3.1260681,2.4884949-8.835022,4.7363281-4.1611328l.0000305-.0000305Z"/>
  <path class="st123" d="M292.3828125,307.6171875c3.0577698-11.1772156,6.7199097-22.578186,8.7890625-33.984375,2.2434998-11.2546387,4.3365784-22.4707489,4.6875-33.984375-.2928772-1.3588104-.0975647-1.9447479.5859375-1.7578125.7463684,9.408493-1.2922668,20.7022705-3.1123962,29.9930725-2.6296997,13.4231567-6.3328552,26.8857117-10.9501038,39.73349Z"/>
  <path class="st12" d="M279.4921875,336.9140625c2.014679-3.586792,3.4807434-7.452179,5.2734375-11.1328125,1.197113.5473633.2532959,1.8120117-.0753479,2.5606995-1.0570984,2.4083557-2.4874878,5.0548401-3.7151794,7.4176331-.1495972.2879333-1.0362854,2.4512634-1.4829102,1.15448Z"/>
  <path class="st103" d="M231.4453125,244.921875c3.8225403-.6586151.6209869,4.5600739,0,.5859375.0538025-.179306-.0558014-.4083862,0-.5859375Z"/>
  <path class="st123" d="M289.453125,315.8203125c.4342346-1.5715332.2817078-3.5307007,1.7578125-4.6875-.4289856,1.506958-.2596741,3.5773315-1.7578125,4.6875Z"/>
  <path class="st69" d="M319.921875,131.25c1.5345764,2.0639343-.7246094,3.2393799-1.1401978,5.0118561-.656189,2.7988129.1907959,8.8407593-1.8088989,10.4960785-14.7193298,6.3955841-28.9656982,14.244278-44.305481,19.0360565-2.2065735.4981842-3.7715149-1.7949066-3.7591858-3.7865753.0025635-.4145813,1.5686646-7.3045044,1.762085-7.645813,1.6305542-2.8771667,8.2599487-7.1320648,10.8884277-9.6193848,8.3327026-7.8852234,15.7962646-16.6247253,24.0157471-24.6200638l1.4310608,3.2529449.6117554-.3282242c1.8410034.9140396,2.6222534,3.0624771,2.34375,6.4453125.5334167,1.7519989.9983215,4.0184784,1.1779175,5.8563232,1.0548706-.5276794.6417236-3.6293793.579895-4.6844482.8440552-.9508514,2.3125-.7888184,4.4053345.486145,1.656189-.4871674,2.9221191-.4539032,3.7977905.0997925Z"/>
  <path class="st117" d="M261.328125,112.5l-2.9267578,4.6844177c6.6780701.3497314,16.7105408-.348793,22.9870911,1.9156189,4.770874,1.7212143,2.2866821,2.9917221-.1384583,5.1187057l-14.9229736,5.2677536c-2.8117676.5639801-5.6499634.7611847-8.5145264.5916138l-5.6898346-1.634964c-3.3566437-1.6474686-2.34021-3.6509552-3.4174194-5.9570007-.582901-1.2478409-3.205246-2.77005-4.055481-4.1476669-1.4103699-2.2851944-2.4759064-5.5995178,1.4439697-4.0806808,1.5359344-.3031311,2.0047913,1.0408249,1.143631,2.2415848,1.2997742-.2751999,2.6763611-.4364548,4.1298065-.4837723l.4608002-1.4715729c1.4651489-1.0354462,8.1441956-3.4093704,9.5001221-2.0440521l.0000305.0000153Z"/>
  <path class="st75" d="M292.3828125,94.3359375c5.2094727,3.8602295,5.4677734,3.8183289,9.9609375,8.7890625,1.4399109,1.6300049,1.8305359,2.9971924,1.171875,4.1015625-1.2225647.1910858-1.8582458-.5041351-2.7643127-1.0409775-8.0834045-4.7893524-19.3471069-11.0275879-26.2237854-17.1388855-5.4594116-4.8517838-9.2157288-11.6124954-16.1262207-14.928421l2.9268494-.876091c2.1549683-.930809,5.6638184.91716,7.1303406,2.9176178,4.9128113,9.3153229,14.7008057,14.1336212,23.9243469,18.1761322h-.0000305Z"/>
  <path class="st42" d="M338.671875,119.53125l.0257874,1.4254913c-4.1126099-.5073853-8.0177612,5.5768433-5.3257141,8.4200287l-.5594177.701355c1.0204163.8406372,1.4428406,1.4295197,1.0803223,2.7380981-1.2955627,1.9690704-3.0191956,4.8678589-2.8381348,7.2228394-.7506409,1.5198975-2.4034729,2.4897156-4.0984497,2.3408051-.723999-2.9491577,2.6080322-4.2969055,2.91745-6.7879486.3210144-2.5843353-1.5271606-5.1951752-1.1618347-7.8613434-3.8016968-.5817566-6.0357666,1.9809723-8.7899475,3.5194244-3.9391174,2.2003479-4.3245239.7267761-8.203125-.5859375-.1698914-2.8983612-.6838379-5.3846817-.613739-8.524147.061676-2.7628708,1.065979-5.5673828.6197205-8.4650879l6.164917,11.1113281c.8034363.6647491,2.0531616.8727341,3.0688782,1.0315018,10.2711182,1.6055527,7.4847412-5.10392,15.1851807-8.5521088,1.1530151-.1788635,1.8999023,1.6300049,2.5281982,2.2657013h-.0000916Z"/>
  <path class="st1" d="M343.359375,133.0078125c.1842957.8233948-.4735413,2.4350128.5859375,2.9296875-.5332031,1.5482025-2.888855,4.3744354-4.5301208,4.6126709-1.5619812.2267303-2.3661194-1.547699-3.9893188-1.6645203-1.4775696-.1063385-2.9971313.8292236-4.3711548,1.1534119-.1352539.0319061-1.0469055-.9718475-2.3379822.5857391.6693726-3.5324097,4.2857361-5.2388458,2.3434753-9.3742981l1.7463684,1.7545166c-.1220703-.8899841.1978149-2.1369171.0059509-2.9268951l.6930237-.5519714c-3.238739-3.7348099-.1791687-4.6209412,3.4191589-4.2377243,4.97229.529541,7.4875488,2.5515976,6.4346924,7.7193832h-.0000305Z"/>
  <path class="st104" d="M248.4375,111.9140625c4.7508392-2.85569,15.973999-6.5395737,21.4031372-5.8737717l14.9220276,4.1100082c-5.0683899.7050934-10.5427246-1.1905441-15.4746094-.5301361-2.6682434.3572922-5.4958801,2.1090851-7.9599609,2.8798447-4.0064392,1.2532043-5.9994812,1.7948837-9.9609375,3.515625-3.6985168,1.8367157-5.4741058-1.4699554-2.9296875-4.1015625l.0000305-.0000076Z"/>
  <path class="st66" d="M270.1171875,73.828125c1.0887146.6536713,1.9539795,1.5552521,2.9296875,2.34375-1.1694641.2473297.6090088,1.487114.8798828,1.7578812,6.2081299,6.2056274,11.3568115,11.1455994,18.4560547,16.4061813-1.1121521.7472992-2.2870483-.0502548-3.324585-.4815521-6.2772522-2.6094131-13.3579712-6.3010406-17.7704163-11.5289307-3.9642029-4.696846-2.9256287-7.0590973-9.9597168-9.0832596-1.0175476-.2928162-2.1695862-.2593689-2.9296875-1.171875.0828247-.4813614.2887878-.8716202.6731873-.8626175,3.9304199.0920486,7.3996277,1.0913391,11.0455627,2.62043l.0000305-.0000076Z"/>
  <path class="st6" d="M281.25,124.21875c-.6930237.6078262-4.0881958,2.962471-4.0904846,3.2228394-.0062866.7125397,2.7756042.5753784,1.1643066,1.7726746-.7412109.5216675-2.5145264-.6390228-2.9298401-.3053436-1.3339844,1.0717926,1.5184021,1.0162659,1.1656799,1.7493439-3.4416809.2942963-5.4682007-.7456512-6.7358398,2.9241333l-1.7514038-1.7434845-2.6420593,2.3354645-.3009644-1.7628174-6.1448059,3.5201874,2.9236755-4.0956116-4.6759644,2.9292755,1.1651611-2.3386993c-1.9266357.8072052-2.8879547-.0381775-4.6822052-.5981598l4.0971832-1.7504425c.9183655-2.1263962,3.5591736-.8624878,5.5603638-1.1804504,5.434021-.8633881,7.9959412-2.6758881,12.7207642-4.269043,1.1670532-.3935165,4.0808411-1.3237762,5.1563721-.4098816l.000061.0000153Z"/>
  <path class="st62" d="M309.9609375,129.4921875c-.5905151-1.9395828-1.7879944-4.415062-2.34375-6.4453125-1.4678955-5.3622589-2.327301-10.4346771-4.1015625-15.8203125-.4400024-1.335556-.7971191-2.7433701-1.171875-4.1015625,2.322876,2.5697479,5.4530334,4.5262222,6.7333069,8.2080994,1.7067566,4.908287,1.908783,13.1060104.8838806,18.1590881Z"/>
  <path class="st82" d="M339.84375,148.828125c.3479004,2.2214661-3.8753662,4.1377563-5.8555908,4.7328491-2.0244141.6083832-6.0428162,1.5269165-7.0350342-.6312866-.4850159.743866-1.0073853,1.0744476-1.7072449.6381073-1.2233276,9.0424347-2.8383789,18.2641449-8.0054016,26.0318604l-2.0061035.8690948-1.171875-1.171875c4.7172852-4.1587524,7.6094055-14.3326263,8.203125-20.5078125l1.1784668-7.6186066c5.5705261,2.6904602,11.1435242.4325256,15.8137207-2.9282684l.5859375.5859375Z"/>
  <path class="st78" d="M270.1171875,73.828125l-7.398407-1.6845627c-1.4252625-.263298-2.9032593.0612717-4.320343-.0732498-2.5673523-.2437134-5.0144653-.5913162-7.6171875-.5859375-1.0469818-1.5962677-.5651855-1.1030884.8701782-1.1720352,7.0518188-.3387375,12.313446-.1780777,18.4657593,3.5157852Z"/>
  <path class="st5" d="M251.3671875,116.015625c-2.0044708.8706818-5.6743622,3.4132996-5.8648987-.2881241,2.4420013.5854721.6458893-.5304413.5914612-1.4696884-.0904846-1.5617218,1.3890991-1.7699127,2.34375-2.34375-.1787567,2.6573257-.3542328,4.571228,2.9296875,4.1015625Z"/>
  <path class="st115" d="M246.09375,157.03125c-2.9710693.3204956-4.4176941.3800812-7.6171875-.5859375,1.8890991-1.1629639,5.7550659-.8922272,7.6171875.5859375Z"/>
  <path class="st36" d="M326.953125,152.9296875l.7480469.3483429c.5629272,2.2414093.9339905,2.3677521,3.2006226,1.8068695,5.9216003-2.4263153,13.3571167-4.4200592,12.8608704,4.677063-1.4518127,4.8962402-2.5628052,9.8453827-3.3329773,14.8474121-3.5513611,6.079483-8.46875,10.6650543-13.4736633,15.5301971-.092926.4344635.6119995.3997955.8682251.2853088.6495361-.2902222,8.3808899-8.1842957,9.389679-9.3633118,2.0154724-2.3555908,4.2183838-5.4095917,5.5595398-8.2100067,1.8016663,1.7562103-.5249634,3.5192871-1.0217285,5.1303101-.8305969,2.6936798-.9923706,5.0087738-.4697876,7.7885437.3544617,1.8855591,2.4819336,5.2210693,2.5716858,6.2267609.0801086.8977661-1.6335144,1.8671112-1.0743713,2.5338593.2733154.3259125,1.229248-1.1668701,1.459198-1.1620789.967865.0202026,7.5404053,15.292572,8.3480225,17.4235535,6.9603271,18.3652191,13.0429382,46.2958069,11.2807617,65.769989-1.4347534-.4270325-1.0534668-1.5684509-1.1871948-2.6235352-.5335083-4.2095337-.846344-8.3806458-1.1565552-12.6108398.6239319-1.7168884.6351929-4.2574463.0337524-7.6216736-.0742493.7337494-.2808228.5399475-.6196899-.5814514-.0204773-.5845947.0115356-1.1725922,0-1.7578125l-1.1591492-.9985046c2.0078125-9.6373596-5.0280762-6.6761322-11.0405884-3.8912964l-14.477417,8.117218c-5.5422974,3.0509338-11.0649109,5.0060425-17.268158,3.803833-2.4179688-12.3206635-5.3075256-25.0596313-11.8327026-35.9211884-.8752747-1.456955-3.3786926-5.4385681-4.5735474-6.2663116-.4711304-.3263855-.3788452-.4514465-1.171875-.5859375,1.1292114-6.241684,1.4963989-12.0406036,3.9959412-17.9767303,2.8578796-6.7871857,7.6982727-11.3873596,11.8243713-17.1795197,6.0395813-8.478241,7.8201294-17.8504028,8.7914429-28.1267853,1.0715332-.4002228,2.2408142.5275421,2.9273071.5877228h-.000061Z"/>
  <path class="st36" d="M306.4453125,237.890625c-.7597961.2813873-.5663147,1.1143646-.5859375,1.7578125l-1.7578125-10.546875c1.1414185,3.1793213,2.0582581,5.1900635,2.34375,8.7890625Z"/>
  <path class="st79" d="M340.4296875,174.609375c-2.5032043-4.5428314,3.6542969-14.3306732,2.0383301-18.1507416-.4527283-1.0702667-2.2878418-2.3346405-3.4956665-2.4115601-3.5674744-.2271881-12.8949585,6.3237762-12.0192566-1.1173859,6.0494995.5303345,8.3610229-.7586365,12.890625-4.1015625,2.3561096-1.7388611,3.1528015-4.0220642,4.9830017-.0026093,2.9164429,6.4049835-.9334106,19.8545227-4.3970642,25.7838593h.0000305Z"/>
  <path class="st45" d="M343.359375,133.0078125c-1.3822937-6.175499-3.1543274-6.8804092-9.0910339-6.4452667-.6405029.0469437-1.947998-.3292847-1.4508057.8708267.8749695,2.1119766,6.4876404,4.2888412,7.6119385,6.7405472l-7.6169739-4.0957947c-.2098083-.8638763-1.2278748-1.2384644-1.237793-3.2151794-.0096741-1.9253845,1.8568726-5.70961,3.5917358-6.4412155,1.1932678-.5032043,2.709259.0870438,3.5054321-.8904724,3.2590942,3.2974548,8.0018311,8.7382889,4.6875,13.4765549Z"/>
  <path class="st63" d="M316.9921875,258.3984375c.8624573-2.2379761,2.9168091-.5248718,4.3331604-.6398315,12.5087585-1.0153198,24.7370911-14.3616028,35.9628601-15.0635223,5.1886292-.3244324,3.5760193,4.9497375,3.649292,8.6721039-.9931335,3.8111267-.6869202,8.6121521-.613678,12.6256714.0368347,2.0181885.8210754,3.8396606.6449585,5.8302612-.197876,2.2365417-1.9671326,6.1112061-2.3750305,9.6690674-.6469421.0123596-1.8942261-1.0233459-2.3758545-.2554626-.8103027,1.2918701-1.9985962,9.1400452-2.2362976,11.1706543-1.5440674,13.1895752,1.2601929,36.4447937-6.8643799,47.0418701-3.8701477,5.0479431-11.5636292,9.4658203-17.820343,10.5976257-3.2427368-29.934082-6.5057678-60.1002502-12.3046875-89.6484375Z"/>
  <path class="st55" d="M389.6484375,266.6015625c-3.8900452,2.1598206-7.6219788,5.1523132-10.52948,8.5134888-1.5908203,1.8390503-2.8278503,4.4624329-4.4048462,6.1429138-1.4474182,1.5423889-.3085022-.6498718-1.4644775-.5894775l-1.1734619,1.7532959c1.0171204-8.9640503,9.7769165-13.0873413,16.4003906-17.5780029.1890259.4232178.8413391.9479675,1.171875,1.7578125v-.0000305Z"/>
  <path class="st107" d="M383.7890625,311.71875c-.0003662-3.3369751.441803-5.5607605.5238037-8.5622559.0996094-3.6461487-2.1934509-9.5124512,1.2280884-12.5314026.1947327,2.1021423-.5110168,4.0415955-.6073914,6.1269531-.0296631.6419983-.3920898,2.7677917.6072388,2.6589661.8041077-4.9092712,2.2619324-9.6765747,3.3346863-14.533844.2086792-.9448853,1.0455627-2.9348145.1870422-3.6271362.3092957-.5310059.5367737-.9641724,1.171875-1.171875-.212738,1.9353638.1643372,3.9376526-.150238,6.0032043-1.2724915,8.3554382-5.9811096,16.947937-6.2950745,25.6374207l-.0000305-.0000305Z"/>
  <path class="st25" d="M360.9375,212.109375c4.8887329,6.4890137,10.7824402,16.4044495,11.71875,24.609375.5854187,5.130127-.4955444,10.8561096-1.7578125,15.8203125-1.0999146-2.5623474-1.6299744-5.497345-1.5902405-8.8049774-2.2879333-9.7558899-5.273468-19.3208923-8.9566345-28.6950226-.3753052-.7605133-.9366455-1.2937164-1.171875-1.7578125-.9566956-1.8874359-2.3250427-4.1533813-3.0687866-6.0471954-.3796692-.9667664-.652771-.7985382.1390991-1.5699921,1.9382324,1.2216797,3.833252,4.2784576,4.6875,6.4453125Z"/>
  <path class="st63" d="M360.9375,253.125c1.8933411-.3308716.9812622.9562988,1.1500244,2.0455017.1808777,1.16745.5016785,2.3839417.599884,3.5400085.0839233.9880676.6469727,3.0292053-1.1639709,2.6176147-.2004395-2.7331848-.4874573-5.3899384-.5859375-8.203125Z"/>
  <path class="st90" d="M370.8984375,252.5390625c-.0621338.9785004-.5050049,3.2204437-.7555542,4.2329712-.1453857.5875244-.1687317,1.7619934-.9964294,1.6235962-1.4104309-11.9847565-2.3227539-24.6010132-7.4734497-35.5959778l-1.3214417-7.7606049c5.4887085,11.1226196,11.3535156,24.7969513,10.546875,37.5v.0000153Z"/>
  <path class="st91" d="M356.25,205.6640625c.4605713-.4486847.2382812-1.2071838,1.2052612-.2280273,1.2691345,1.2851257,2.8375244,4.4280243,4.0681763,6.0874023l-.5859375.5859375c-1.5903015-2.1108856-3.549408-4.0050507-4.6875-6.4453125Z"/>
  <path class="st122" d="M302.3439636,215.6192322l5.8533936-5.8533936c-.7679443,2.2039337-3.6494446,5.0854492-5.8533936,5.8533936Z"/>
  <path class="st50" d="M321.09375,195.703125c-1.8798218,1.9912567-3.5375366,4.3001099-5.8536072,5.8591766.3099976-1.5572205,2.6099243-3.8204346,3.7882996-4.7146454.8563232-.6498108,1.7393799-.8999939,2.0653076-1.1445312Z"/>
  <path class="st86" d="M321.09375,195.703125c1.2763672-1.3520355,2.6369324-3.8428345,4.6872864-4.0957947-.9226379,2.1135712-3.2157898,2.9917297-4.6872864,4.0957947Z"/>
</svg>